<svg xmlns="http://www.w3.org/2000/svg" xmlns:xlink="http://www.w3.org/1999/xlink" width="108" height="108" viewBox="0 0 108 108">
  <defs>
    <filter id="Trazado_904820" x="0" y="0" width="108" height="108" filterUnits="userSpaceOnUse">
      <feOffset dy="3" input="SourceAlpha"/>
      <feGaussianBlur stdDeviation="3" result="blur"/>
      <feFlood flood-opacity="0.161"/>
      <feComposite operator="in" in2="blur"/>
      <feComposite in="SourceGraphic"/>
    </filter>
  </defs>
  <g id="Grupo_1200796" data-name="Grupo 1200796" transform="translate(-618 -4425)">
    <g id="Grupo_1184786" data-name="Grupo 1184786" transform="translate(627 4431)">
      <g id="Grupo_1173585" data-name="Grupo 1173585" transform="translate(0 0)">
        <g id="Grupo_1173428" data-name="Grupo 1173428">
          <g id="Grupo_1171958" data-name="Grupo 1171958">
            <g id="Grupo_1167341" data-name="Grupo 1167341">
              <g id="Grupo_1166792" data-name="Grupo 1166792">
                <g transform="matrix(1, 0, 0, 1, -9, -6)" filter="url(#Trazado_904820)">
                  <g id="Trazado_904820-2" data-name="Trazado 904820" transform="translate(9 6)" fill="#e8edf7">
                    <path d="M 44.99999618530273 88.49997711181641 C 39.12687301635742 88.49997711181641 33.43022155761719 87.35005187988281 28.06829643249512 85.0821533203125 C 22.88852119445801 82.89128875732422 18.23629570007324 79.75457763671875 14.24084663391113 75.75912475585938 C 10.24540901184082 71.76367950439453 7.108683586120605 67.1114501953125 4.917821407318115 61.93169021606445 C 2.649921178817749 56.56975173950195 1.499996185302734 50.87311172485352 1.499996185302734 44.9999885559082 C 1.499996185302734 39.12686538696289 2.649921178817749 33.43021392822266 4.917821407318115 28.06828880310059 C 7.108683586120605 22.88851356506348 10.24540901184082 18.23630142211914 14.24084663391113 14.24085140228271 C 18.23629570007324 10.24540138244629 22.88852119445801 7.108688354492188 28.06829643249512 4.917826175689697 C 33.43022155761719 2.649925947189331 39.12687301635742 1.500001072883606 44.99999618530273 1.500001072883606 C 50.87311935424805 1.500001072883606 56.56977081298828 2.649925947189331 61.93169784545898 4.917826175689697 C 67.11147308349609 7.108688354492188 71.76369476318359 10.24540138244629 75.75914764404297 14.24085140228271 C 79.75458526611328 18.23630142211914 82.89131164550781 22.88851356506348 85.08216857910156 28.06828880310059 C 87.35007476806641 33.43021392822266 88.5 39.12686538696289 88.5 44.9999885559082 C 88.5 50.87311172485352 87.35007476806641 56.56975173950195 85.08216857910156 61.93169021606445 C 82.89131164550781 67.1114501953125 79.75458526611328 71.76367950439453 75.75914764404297 75.75912475585938 C 71.76369476318359 79.75457763671875 67.11147308349609 82.89128875732422 61.93169784545898 85.0821533203125 C 56.56977081298828 87.35005187988281 50.87311935424805 88.49997711181641 44.99999618530273 88.49997711181641 Z" stroke="none"/>
                    <path d="M 44.99999618530273 3 C 39.32870864868164 3 33.82865142822266 4.110061645507812 28.65262603759766 6.299331665039062 C 23.65165710449219 8.414573669433594 19.15968322753906 11.44332885742188 15.301513671875 15.301513671875 C 11.44333648681641 19.15969085693359 8.414566040039062 23.65164947509766 6.299339294433594 28.65261840820312 C 4.110054016113281 33.82864379882812 2.999992370605469 39.32870101928711 2.999992370605469 44.9999885559082 C 2.999992370605469 50.6712760925293 4.110054016113281 56.17131805419922 6.299339294433594 61.34735870361328 C 8.414566040039062 66.34832763671875 11.44333648681641 70.84028625488281 15.301513671875 74.69845581054688 C 19.15968322753906 78.55663299560547 23.65165710449219 81.58540344238281 28.65262603759766 83.70063018798828 C 33.82865142822266 85.88991546630859 39.32870864868164 86.99997711181641 44.99999618530273 86.99997711181641 C 50.67128372192383 86.99997711181641 56.17134094238281 85.88991546630859 61.34736633300781 83.70063018798828 C 66.34834289550781 81.58540344238281 70.84030914306641 78.55663299560547 74.69847869873047 74.69845581054688 C 78.55665588378906 70.84028625488281 81.58542633056641 66.34832763671875 83.70065307617188 61.34735870361328 C 85.88993835449219 56.17131805419922 87 50.6712760925293 87 44.9999885559082 C 87 39.32870101928711 85.88993835449219 33.82864379882812 83.70065307617188 28.65261840820312 C 81.58542633056641 23.65164947509766 78.55665588378906 19.15969085693359 74.69847869873047 15.301513671875 C 70.84030914306641 11.44332885742188 66.34834289550781 8.414573669433594 61.34736633300781 6.299331665039062 C 56.17134094238281 4.110061645507812 50.67128372192383 3 44.99999618530273 3 M 44.99999618530273 0 C 69.85281372070312 0 90 20.14717102050781 90 44.9999885559082 C 90 69.85279083251953 69.85281372070312 89.99997711181641 44.99999618530273 89.99997711181641 C 20.14717864990234 89.99997711181641 -7.62939453125e-06 69.85279083251953 -7.62939453125e-06 44.9999885559082 C -7.62939453125e-06 20.14717102050781 20.14717864990234 0 44.99999618530273 0 Z" stroke="none" fill="#2e5bb6"/>
                  </g>
                </g>
              </g>
            </g>
          </g>
        </g>
      </g>
    </g>
    <g id="economia_1_" data-name="economia (1)" transform="translate(640.258 4444.26)">
      <g id="Grupo_1200794" data-name="Grupo 1200794" transform="translate(0.93 0.929)">
        <g id="Grupo_1200793" data-name="Grupo 1200793">
          <path id="Trazado_1042176" data-name="Trazado 1042176" d="M48.544,9.993,42.117,7.577a1.169,1.169,0,0,0-1.565,1.286l.27,1.627A29.536,29.536,0,0,0,21.366,33.7a1.825,1.825,0,1,0,3.6.568A25.873,25.873,0,0,1,41.428,14.148l.247,1.489a1.169,1.169,0,0,0,1.9.712l5.3-4.359a1.169,1.169,0,0,0-.331-2Z" transform="translate(-19.627 -7.501)" fill="#0ed2b3"/>
          <path id="Trazado_1042177" data-name="Trazado 1042177" d="M303.135,40.553l-1.627.27A29.536,29.536,0,0,0,278.3,21.368a1.825,1.825,0,0,0-.568,3.6,25.873,25.873,0,0,1,20.12,16.457l-1.489.247a1.169,1.169,0,0,0-.712,1.9l4.359,5.3a1.169,1.169,0,0,0,2-.331l2.415-6.427a1.169,1.169,0,0,0-1.286-1.565Z" transform="translate(-242.873 -19.629)" fill="#0ed2b3"/>
          <path id="Trazado_1042178" data-name="Trazado 1042178" d="M291.589,276.212a1.825,1.825,0,0,0-2.086,1.519,25.873,25.873,0,0,1-16.457,20.12l-.247-1.489a1.169,1.169,0,0,0-1.9-.712l-5.3,4.359a1.169,1.169,0,0,0,.331,2l6.427,2.415a1.169,1.169,0,0,0,1.565-1.286l-.27-1.627A29.535,29.535,0,0,0,293.107,278.3,1.824,1.824,0,0,0,291.589,276.212Z" transform="translate(-233.222 -242.874)" fill="#0ed2b3"/>
          <path id="Trazado_1042179" data-name="Trazado 1042179" d="M34.268,289.5a25.873,25.873,0,0,1-20.121-16.457l1.489-.247a1.169,1.169,0,0,0,.712-1.9l-4.359-5.3a1.169,1.169,0,0,0-2,.331l-2.415,6.427a1.169,1.169,0,0,0,1.286,1.565l1.627-.27A29.536,29.536,0,0,0,33.7,293.108a1.825,1.825,0,1,0,.568-3.6Z" transform="translate(-7.5 -233.223)" fill="#0ed2b3"/>
        </g>
        <circle id="Elipse_12556" data-name="Elipse 12556" cx="18.057" cy="18.057" r="18.057" transform="translate(12.756 12.755)" fill="#fef48b"/>
        <path id="Trazado_1042180" data-name="Trazado 1042180" d="M130.02,146.415q-.785.069-1.59.069a18.057,18.057,0,1,1,0-36.114q.8,0,1.59.069a18.058,18.058,0,0,0,0,35.975Z" transform="translate(-97.617 -97.615)" fill="#fee45a"/>
        <circle id="Elipse_12557" data-name="Elipse 12557" cx="13.476" cy="13.476" r="13.476" transform="translate(17.336 17.336)" fill="#fee45a"/>
        <path id="Trazado_1042181" data-name="Trazado 1042181" d="M251.863,160.8a13.48,13.48,0,0,1-15.969,13.244,13.477,13.477,0,0,0,0-26.487A13.48,13.48,0,0,1,251.863,160.8Z" transform="translate(-207.575 -129.983)" fill="#ffd15b"/>
      </g>
      <g id="Grupo_1200795" data-name="Grupo 1200795" transform="translate(0 -0.002)">
        <path id="Trazado_1042182" data-name="Trazado 1042182" d="M16.176,30.134a2.774,2.774,0,0,0,.431.034,2.74,2.74,0,0,0,2.719-2.326A24.872,24.872,0,0,1,34.134,8.869l.058.349A2.1,2.1,0,0,0,37.6,10.5l5.3-4.359a2.1,2.1,0,0,0-.594-3.587L35.878.135a2.1,2.1,0,0,0-2.809,2.308l.143.863A30.47,30.47,0,0,0,13.883,26.984a2.754,2.754,0,0,0,2.293,3.149Zm-.456-2.86A28.605,28.605,0,0,1,34.56,4.8a.93.93,0,0,0,.614-1.031L34.9,2.14a.229.229,0,0,1,.084-.224.233.233,0,0,1,.148-.056.248.248,0,0,1,.088.017l6.427,2.415a.239.239,0,0,1,.068.409l-5.3,4.359a.239.239,0,0,1-.388-.146L35.78,7.425a.93.93,0,0,0-1.243-.719A26.734,26.734,0,0,0,17.488,27.552a.893.893,0,0,1-1.023.745.895.895,0,0,1-.745-1.023Z" transform="translate(-12.132 0.002)"/>
        <path id="Trazado_1042183" data-name="Trazado 1042183" d="M298.379,33.81a2.075,2.075,0,0,0-1.965-.738l-.863.143a30.468,30.468,0,0,0-23.677-19.329,2.754,2.754,0,1,0-.857,5.441,24.478,24.478,0,0,1,3,.668.93.93,0,1,0,.517-1.786,26.333,26.333,0,0,0-3.227-.718.895.895,0,0,1-.388-1.608.887.887,0,0,1,.666-.16,28.6,28.6,0,0,1,22.476,18.839.93.93,0,0,0,1.031.614l1.627-.269a.238.238,0,0,1,.262.32l-2.415,6.427a.239.239,0,0,1-.408.067l-4.358-5.3a.239.239,0,0,1,.145-.388l1.489-.247a.93.93,0,0,0,.719-1.243,26.841,26.841,0,0,0-13.435-14.725.93.93,0,1,0-.81,1.674,25,25,0,0,1,12.082,12.647l-.349.058a2.1,2.1,0,0,0-1.278,3.4l4.358,5.3a2.075,2.075,0,0,0,1.613.768,2.163,2.163,0,0,0,.353-.029,2.077,2.077,0,0,0,1.621-1.333l2.415-6.426A2.077,2.077,0,0,0,298.379,33.81Z" transform="translate(-235.374 -12.134)"/>
        <path id="Trazado_1042184" data-name="Trazado 1042184" d="M285.156,268.721a2.755,2.755,0,0,0-3.15,2.293A24.87,24.87,0,0,1,267.2,289.986l-.058-.349a2.1,2.1,0,0,0-3.4-1.278l-5.3,4.358a2.1,2.1,0,0,0,.594,3.586l6.426,2.415a2.114,2.114,0,0,0,.747.137,2.1,2.1,0,0,0,2.063-2.444l-.143-.863a29.923,29.923,0,0,0,2.805-1.22.93.93,0,1,0-.829-1.665,28.173,28.173,0,0,1-3.324,1.395.93.93,0,0,0-.613,1.03l.269,1.627a.238.238,0,0,1-.32.262l-6.427-2.415a.238.238,0,0,1-.067-.408l5.3-4.358a.239.239,0,0,1,.388.145l.247,1.489a.93.93,0,0,0,1.243.719A26.734,26.734,0,0,0,283.844,271.3a.894.894,0,1,1,1.767.279,28.65,28.65,0,0,1-11.981,19,.93.93,0,0,0,1.058,1.529,30.518,30.518,0,0,0,12.76-20.237,2.754,2.754,0,0,0-2.292-3.15Z" transform="translate(-225.716 -235.372)"/>
        <path id="Trazado_1042185" data-name="Trazado 1042185" d="M27.842,282.01A24.872,24.872,0,0,1,8.87,267.2l.349-.058a2.1,2.1,0,0,0,1.279-3.4l-4.359-5.3a2.1,2.1,0,0,0-3.587.594L.137,265.456a2.1,2.1,0,0,0,2.308,2.809l.863-.143a30.469,30.469,0,0,0,23.678,19.329,2.77,2.77,0,0,0,.431.034,2.755,2.755,0,0,0,.426-5.476Zm.455,2.86a.9.9,0,0,1-.882.756.91.91,0,0,1-.141-.011A28.6,28.6,0,0,1,4.8,266.775a.929.929,0,0,0-1.031-.613l-1.627.27a.239.239,0,0,1-.263-.32l2.415-6.427a.239.239,0,0,1,.409-.068l4.359,5.3a.239.239,0,0,1-.146.388l-1.489.247a.93.93,0,0,0-.719,1.243,26.735,26.735,0,0,0,20.846,17.049.895.895,0,0,1,.745,1.023Z" transform="translate(0 -225.719)"/>
        <path id="Trazado_1042186" data-name="Trazado 1042186" d="M140.85,121.864a18.986,18.986,0,1,0-18.986,18.986A19.007,19.007,0,0,0,140.85,121.864ZM121.864,138.99a17.126,17.126,0,1,1,17.126-17.126A17.146,17.146,0,0,1,121.864,138.99Z" transform="translate(-90.122 -90.122)"/>
        <path id="Trazado_1042187" data-name="Trazado 1042187" d="M154.229,139.824a14.413,14.413,0,0,0-13.92,18.122.93.93,0,1,0,1.8-.48,12.552,12.552,0,1,1,1.647,3.667.93.93,0,0,0-1.552,1.025,14.405,14.405,0,1,0,12.028-22.333Z" transform="translate(-122.487 -122.487)"/>
        <path id="Trazado_1042188" data-name="Trazado 1042188" d="M221.279,194.607a.93.93,0,1,0-1.018,1.556,5.586,5.586,0,0,0,3.049,1.068v1.006a.93.93,0,1,0,1.86,0v-1.08a4.555,4.555,0,0,0,3.575-3.737,4,4,0,0,0-2.753-4.577c-.27-.1-.546-.2-.822-.3v-4.4a2.867,2.867,0,0,1,1.132.542.93.93,0,0,0,1.189-1.43,4.889,4.889,0,0,0-2.322-1v-.9a.93.93,0,1,0-1.86,0v.969c-.138.03-.278.066-.421.109a3.787,3.787,0,0,0-2.594,2.971,3.335,3.335,0,0,0,1.091,3.286,8.981,8.981,0,0,0,1.924,1.1v5.576a3.819,3.819,0,0,1-2.031-.761Zm1.255-7.379a1.5,1.5,0,0,1-.412-1.478,1.968,1.968,0,0,1,1.188-1.494v3.468A5.583,5.583,0,0,1,222.535,187.228Zm2.838,3.37a2.17,2.17,0,0,1,1.539,2.515,2.734,2.734,0,0,1-1.741,2.113v-4.7Z" transform="translate(-192.582 -158.055)"/>
      </g>
    </g>
  </g>
</svg>
