<svg xmlns="http://www.w3.org/2000/svg" xmlns:xlink="http://www.w3.org/1999/xlink" width="110.186" height="110.186" viewBox="0 0 110.186 110.186">
  <defs>
    <filter id="Trazado_982547" x="0" y="0" width="110.186" height="110.186" filterUnits="userSpaceOnUse">
      <feOffset dy="3" input="SourceAlpha"/>
      <feGaussianBlur stdDeviation="3" result="blur"/>
      <feFlood flood-opacity="0.161"/>
      <feComposite operator="in" in2="blur"/>
      <feComposite in="SourceGraphic"/>
    </filter>
  </defs>
  <g id="Grupo_1200873" data-name="Grupo 1200873" transform="translate(-745 -5442.538)">
    <g id="Grupo_1184788" data-name="Grupo 1184788" transform="translate(1 2337.835)">
      <g id="Grupo_1183772" data-name="Grupo 1183772" transform="translate(0 -5016.854)">
        <g id="Grupo_1173639" data-name="Grupo 1173639" transform="translate(753 8127.557)">
          <g id="Grupo_1173555" data-name="Grupo 1173555" transform="translate(0)">
            <g id="Grupo_1172017" data-name="Grupo 1172017" transform="translate(0)">
              <g id="Grupo_1167337" data-name="Grupo 1167337" transform="translate(0)">
                <g id="Grupo_1166720" data-name="Grupo 1166720">
                  <g id="Grupo_1164305" data-name="Grupo 1164305">
                    <g id="Grupo_1163948" data-name="Grupo 1163948">
                      <g id="Grupo_1158168" data-name="Grupo 1158168">
                        <g id="Grupo_1152576" data-name="Grupo 1152576">
                          <g id="Grupo_1148633" data-name="Grupo 1148633">
                            <g id="Grupo_1148525" data-name="Grupo 1148525">
                              <g transform="matrix(1, 0, 0, 1, -9, -6)" filter="url(#Trazado_982547)">
                                <g id="Trazado_982547-2" data-name="Trazado 982547" transform="translate(9 6)" fill="#e8edf7">
                                  <path d="M 46.09305953979492 90.68612670898438 C 40.07238006591797 90.68612670898438 34.23257827758789 89.50730133056641 28.73588562011719 87.18239593505859 C 23.42596626281738 84.93648529052734 18.65684700012207 81.72095489501953 14.56100654602051 77.62511444091797 C 10.46517944335938 73.52928924560547 7.249646186828613 68.76016998291016 5.003739356994629 63.45023345947266 C 2.678832769393921 57.95354080200195 1.500006198883057 52.11373901367188 1.500006198883057 46.09305953979492 C 1.500006198883057 40.07238006591797 2.678832769393921 34.23257827758789 5.003739356994629 28.73588562011719 C 7.249646186828613 23.42595291137695 10.46517944335938 18.65684700012207 14.56100654602051 14.56100654602051 C 18.65684700012207 10.46517944335938 23.42595291137695 7.249646186828613 28.73588562011719 5.003739356994629 C 34.23257827758789 2.678832769393921 40.07238006591797 1.500006198883057 46.09305953979492 1.500006198883057 C 52.11373901367188 1.500006198883057 57.95354080200195 2.678832769393921 63.45023345947266 5.003739356994629 C 68.76016998291016 7.249646186828613 73.52928924560547 10.46517944335938 77.62511444091797 14.56100654602051 C 81.72095489501953 18.65684700012207 84.93648529052734 23.42596626281738 87.18239593505859 28.73588562011719 C 89.50730133056641 34.23257827758789 90.68612670898438 40.07238006591797 90.68612670898438 46.09305953979492 C 90.68612670898438 52.11373901367188 89.50730133056641 57.95354080200195 87.18239593505859 63.45023345947266 C 84.93648529052734 68.76016998291016 81.72095489501953 73.52928924560547 77.62511444091797 77.62511444091797 C 73.52928924560547 81.72095489501953 68.76016998291016 84.93648529052734 63.45023345947266 87.18239593505859 C 57.95354080200195 89.50730133056641 52.11373901367188 90.68612670898438 46.09305953979492 90.68612670898438 Z" stroke="none"/>
                                  <path d="M 46.09305953979492 3 C 40.27421569824219 3 34.63101577758789 4.138961791992188 29.32021713256836 6.385231018066406 C 24.1890869140625 8.555519104003906 19.58021545410156 11.66310119628906 15.62165832519531 15.62165832519531 C 11.66310119628906 19.58021545410156 8.555519104003906 24.1890869140625 6.385231018066406 29.32021713256836 C 4.138961791992188 34.63101577758789 3 40.27421569824219 3 46.09305953979492 C 3 51.91190338134766 4.138961791992188 57.55510330200195 6.385231018066406 62.86590194702148 C 8.555519104003906 67.99703216552734 11.66310119628906 72.60588836669922 15.62165832519531 76.56444549560547 C 19.58021545410156 80.52301788330078 24.1890869140625 83.63058471679688 29.32021713256836 85.80088806152344 C 34.63101577758789 88.04715728759766 40.27421569824219 89.18611907958984 46.09305953979492 89.18611907958984 C 51.91190338134766 89.18611907958984 57.55510330200195 88.04715728759766 62.86590194702148 85.80088806152344 C 67.99703216552734 83.63058471679688 72.60588836669922 80.52301788330078 76.56444549560547 76.56444549560547 C 80.52301788330078 72.60588836669922 83.63058471679688 67.99703216552734 85.80088806152344 62.86590194702148 C 88.04715728759766 57.55510330200195 89.18611907958984 51.91190338134766 89.18611907958984 46.09305953979492 C 89.18611907958984 40.27421569824219 88.04715728759766 34.63101577758789 85.80088806152344 29.32021713256836 C 83.63058471679688 24.1890869140625 80.52301788330078 19.58021545410156 76.56444549560547 15.62165832519531 C 72.60588836669922 11.66310119628906 67.99703216552734 8.555519104003906 62.86590194702148 6.385231018066406 C 57.55510330200195 4.138961791992188 51.91190338134766 3 46.09305953979492 3 M 46.09305953979492 0 C 71.54954528808594 0 92.18611907958984 20.63655853271484 92.18611907958984 46.09305953979492 C 92.18611907958984 71.54954528808594 71.54954528808594 92.18611907958984 46.09305953979492 92.18611907958984 C 20.63655853271484 92.18611907958984 0 71.54954528808594 0 46.09305953979492 C 0 20.63655853271484 20.63655853271484 0 46.09305953979492 0 Z" stroke="none" fill="#2e5bb6"/>
                                </g>
                              </g>
                            </g>
                          </g>
                        </g>
                      </g>
                    </g>
                  </g>
                </g>
              </g>
            </g>
          </g>
        </g>
      </g>
    </g>
    <g id="economia-colaborativa" transform="translate(726.603 5460.505)">
      <g id="Grupo_1200872" data-name="Grupo 1200872" transform="translate(48.183 1.014)">
        <g id="Grupo_1200861" data-name="Grupo 1200861" transform="translate(0 45.263)">
          <path id="Trazado_1042278" data-name="Trazado 1042278" d="M62.955,385.385l-7.592-7.592a.905.905,0,0,1,0-1.271l7.592-7.592a.9.9,0,0,1,1.534.634v4.17a.9.9,0,0,0,.875.9c6.265.152,9.912,1.168,11.952-3.926a.533.533,0,0,1,1.027.231c-.572,10.06-5.3,8.961-12.938,8.781a.894.894,0,0,0-.916.9v4.139a.9.9,0,0,1-1.532.633Z" transform="translate(-55.102 -368.667)" fill="#70da40" fill-rule="evenodd"/>
        </g>
        <g id="Grupo_1200862" data-name="Grupo 1200862" transform="translate(27.186 45.263)">
          <path id="Trazado_1042279" data-name="Trazado 1042279" d="M287.111,385.385l7.592-7.592a.905.905,0,0,0,0-1.271l-7.592-7.592a.9.9,0,0,0-1.534.634v4.17a.9.9,0,0,1-.875.9c-6.265.152-9.912,1.168-11.952-3.926a.533.533,0,0,0-1.027.231c.572,10.06,5.3,8.961,12.938,8.781a.894.894,0,0,1,.916.9v4.139a.9.9,0,0,0,1.532.633Z" transform="translate(-271.724 -368.667)" fill="#70da40" fill-rule="evenodd"/>
        </g>
        <g id="Grupo_1200863" data-name="Grupo 1200863" transform="translate(11.469 16.732)">
          <path id="Trazado_1042280" data-name="Trazado 1042280" d="M147.953,160.567h24.566a1.466,1.466,0,0,0,1.465-1.461v-8.158a9.647,9.647,0,0,0-9.618-9.618h-8.257a9.647,9.647,0,0,0-9.618,9.618v8.158A1.464,1.464,0,0,0,147.953,160.567Z" transform="translate(-146.49 -141.33)" fill="#0593fc" fill-rule="evenodd"/>
        </g>
        <g id="Grupo_1200864" data-name="Grupo 1200864" transform="translate(11.468 16.732)">
          <path id="Trazado_1042281" data-name="Trazado 1042281" d="M147.945,160.571h1.837a1.469,1.469,0,0,1-1.465-1.465v-8.158a9.647,9.647,0,0,1,9.618-9.618H156.1a9.647,9.647,0,0,0-9.618,9.618v8.158A1.469,1.469,0,0,0,147.945,160.571Z" transform="translate(-146.48 -141.33)" fill="#0584e3" fill-rule="evenodd"/>
        </g>
        <g id="Grupo_1200865" data-name="Grupo 1200865" transform="translate(15.531 31.079)">
          <path id="Trazado_1042282" data-name="Trazado 1042282" d="M188.534,275.015a9.682,9.682,0,1,0-9.684-9.681A9.7,9.7,0,0,0,188.534,275.015Z" transform="translate(-178.85 -255.65)" fill="#fea832" fill-rule="evenodd"/>
        </g>
        <g id="Grupo_1200866" data-name="Grupo 1200866" transform="translate(18.308 33.857)">
          <path id="Trazado_1042283" data-name="Trazado 1042283" d="M207.886,291.593a6.906,6.906,0,1,0-6.906-6.906A6.917,6.917,0,0,0,207.886,291.593Z" transform="translate(-200.98 -277.78)" fill="#ffd23b" fill-rule="evenodd"/>
        </g>
        <g id="Grupo_1200867" data-name="Grupo 1200867" transform="translate(18.436 0.001)">
          <path id="Trazado_1042284" data-name="Trazado 1042284" d="M208.778,21.577A6.778,6.778,0,1,0,202,14.8,6.79,6.79,0,0,0,208.778,21.577Z" transform="translate(-202 -8.02)" fill="#fbbd80" fill-rule="evenodd"/>
        </g>
        <g id="Grupo_1200868" data-name="Grupo 1200868" transform="translate(18.436)">
          <path id="Trazado_1042285" data-name="Trazado 1042285" d="M208.778,8.01a6.635,6.635,0,0,1,.693.034,6.78,6.78,0,0,0,0,13.489,6.635,6.635,0,0,1-.693.034,6.778,6.778,0,1,1,0-13.557Z" transform="translate(-202 -8.01)" fill="#e2aa73" fill-rule="evenodd"/>
        </g>
        <g id="Grupo_1200869" data-name="Grupo 1200869" transform="translate(0 45.263)">
          <path id="Trazado_1042286" data-name="Trazado 1042286" d="M62.955,385.385l-7.592-7.592a.905.905,0,0,1,0-1.271l7.592-7.592a.9.9,0,0,1,1.514.438l-7.157,7.155a.905.905,0,0,0,0,1.271l7.157,7.155a.9.9,0,0,1-1.514.435Zm8.485-10.594a5.836,5.836,0,0,0,4.635-1.92,9.557,9.557,0,0,0,1.409.555c-1.478,1.31-3.45,1.448-6.044,1.365Zm-.545,5.035c-1.168.038-2.461-.014-3.863-.061a.9.9,0,0,1,.32-.048C68.617,379.748,69.8,379.8,70.9,379.827Z" transform="translate(-55.102 -368.667)" fill="#65c43a" fill-rule="evenodd"/>
        </g>
        <g id="Grupo_1200870" data-name="Grupo 1200870" transform="translate(27.472 45.262)">
          <path id="Trazado_1042287" data-name="Trazado 1042287" d="M289.1,385.377l.434-.438a.919.919,0,0,1-.02-.2V380.6a.868.868,0,0,0-.272-.641.858.858,0,0,0-.648-.255c-.555.014-1.1.031-1.623.048a.882.882,0,0,1,.328.207.863.863,0,0,1,.269.641v4.139a.9.9,0,0,0,1.532.635Zm.434-16.018-.434-.438a.9.9,0,0,0-1.534.634v4.17a.9.9,0,0,1-.875.9c-1.526.038-2.9.124-4.132.162,1.685.079,3.691-.1,6.079-.162a.9.9,0,0,0,.875-.9v-4.17A.916.916,0,0,1,289.536,369.359ZM274,373.573c1.013,5.882,4.214,6.355,9.105,6.245-3.95-.131-6.49-1.269-7.258-6.889A9.6,9.6,0,0,1,274,373.573Z" transform="translate(-274 -368.657)" fill="#65c43a" fill-rule="evenodd"/>
        </g>
        <g id="Grupo_1200871" data-name="Grupo 1200871" transform="translate(15.531 31.079)">
          <path id="Trazado_1042288" data-name="Trazado 1042288" d="M188.534,255.65c.2,0,.4.006.6.02a9.682,9.682,0,0,0,0,19.327c-.2.01-.4.018-.6.018a9.682,9.682,0,1,1,0-19.365Z" transform="translate(-178.85 -255.65)" fill="#e5972d" fill-rule="evenodd"/>
        </g>
      </g>
      <path id="Trazado_1042289" data-name="Trazado 1042289" d="M73.4,15.624a7.807,7.807,0,1,0-7.8-7.809A7.816,7.816,0,0,0,73.4,15.624Zm0-13.607a5.8,5.8,0,1,1-5.8,5.8,5.8,5.8,0,0,1,5.8-5.8ZM99.046,53.432l-7.588-7.592a1.9,1.9,0,0,0-3.243,1.343v4.065c-.855.021-1.648.058-2.416.093-3.2.147-5.109.183-6.47-.676a10.673,10.673,0,0,0,4.061-12.643H85.7a2.472,2.472,0,0,0,2.469-2.469V27.382a10.652,10.652,0,0,0-10.64-10.64H69.265a10.652,10.652,0,0,0-10.64,10.64v8.171a2.471,2.471,0,0,0,2.469,2.469H63.4a10.672,10.672,0,0,0,4.062,12.643c-1.362.86-3.271.823-6.471.676-.769-.035-1.564-.072-2.416-.093V47.184a1.9,1.9,0,0,0-3.243-1.343l-7.584,7.588a1.9,1.9,0,0,0,0,2.69L55.331,63.7a1.885,1.885,0,0,0,1.345.564,1.916,1.916,0,0,0,.734-.147,1.9,1.9,0,0,0,1.168-1.755V58.338c.6.015,1.19.035,1.757.055,2.976.1,5.545.192,7.568-.649,2.062-.857,3.353-2.578,4.019-5.378a10.5,10.5,0,0,0,2.951,0c.665,2.8,1.957,4.521,4.019,5.378,2.024.841,4.593.753,7.568.649.567-.02,1.152-.04,1.757-.055v4.025a1.9,1.9,0,0,0,1.9,1.9,1.877,1.877,0,0,0,1.339-.56l7.584-7.584a1.9,1.9,0,0,0,0-2.69ZM61.092,36.015a.469.469,0,0,1-.463-.462V27.382a8.645,8.645,0,0,1,8.635-8.635h8.268a8.645,8.645,0,0,1,8.635,8.635v8.171a.468.468,0,0,1-.463.462H82.377A10.752,10.752,0,0,0,80.1,33.479V28.042a1,1,0,1,0-2.006,0V32.2a10.66,10.66,0,0,0-9.389,0V28.042a1,1,0,0,0-2.006,0v5.432a10.777,10.777,0,0,0-2.284,2.54H61.092ZM60.4,56.387c-.607-.021-1.236-.043-1.884-.058a1.859,1.859,0,0,0-1.372.532l-.014.014a1.879,1.879,0,0,0-.565,1.353V62.1l-7.329-7.329,7.329-7.333v3.907a1.9,1.9,0,0,0,1.855,1.9c.872.02,1.688.058,2.476.094,3.55.163,6.414.292,8.5-1.655.187.075.378.147.57.212C68.845,56.678,65.925,56.577,60.4,56.387Zm4.317-14.6A8.675,8.675,0,1,1,73.4,50.463,8.684,8.684,0,0,1,64.721,41.786ZM90.221,62.1V58.229a1.878,1.878,0,0,0-.563-1.353l-.015-.015a1.856,1.856,0,0,0-1.365-.532c-.653.015-1.281.036-1.889.058-5.521.191-8.441.291-9.566-4.484q.288-.1.571-.212c2.085,1.947,4.947,1.817,8.5,1.654.788-.036,1.6-.073,2.481-.094a1.894,1.894,0,0,0,1.849-1.9V47.441l7.329,7.333ZM75.606,41.659a2.251,2.251,0,0,1,.7,1.857,2.4,2.4,0,0,1-1.078,1.76,2.883,2.883,0,0,1-.825.368v.39a1,1,0,1,1-2.006,0v-.5a3.322,3.322,0,0,1-1.837-1.865A1,1,0,0,1,72.41,42.9a1.292,1.292,0,0,0,.808.8,1.117,1.117,0,0,0,.906-.1.393.393,0,0,0,.182-.276.262.262,0,0,0-.1-.225,2.968,2.968,0,0,0-.767-.242,3.988,3.988,0,0,1-2.07-.973,2.377,2.377,0,0,1,1-3.884l.025-.008v-.448a1,1,0,1,1,2.006,0v.415a2.859,2.859,0,0,1,.564.232,2.468,2.468,0,0,1,1.229,1.589,1,1,0,1,1-1.948.479A.45.45,0,0,0,74,39.95a1.182,1.182,0,0,0-.587-.12h-.019a1.366,1.366,0,0,0-.379.068.371.371,0,0,0-.269.272.36.36,0,0,0,.062.313,2.506,2.506,0,0,0,1.093.42,3.443,3.443,0,0,1,1.706.756ZM73.4,33.88A7.907,7.907,0,1,0,81.3,41.786,7.915,7.915,0,0,0,73.4,33.88Zm0,13.808a5.9,5.9,0,1,1,5.9-5.9A5.909,5.909,0,0,1,73.4,47.688Z" transform="translate(0 0)"/>
    </g>
  </g>
</svg>
