<svg xmlns="http://www.w3.org/2000/svg" xmlns:xlink="http://www.w3.org/1999/xlink" width="110.186" height="110.186" viewBox="0 0 110.186 110.186">
  <defs>
    <filter id="Trazado_982547" x="0" y="0" width="110.186" height="110.186" filterUnits="userSpaceOnUse">
      <feOffset dy="3" input="SourceAlpha"/>
      <feGaussianBlur stdDeviation="3" result="blur"/>
      <feFlood flood-opacity="0.161"/>
      <feComposite operator="in" in2="blur"/>
      <feComposite in="SourceGraphic"/>
    </filter>
  </defs>
  <g id="Grupo_1200877" data-name="Grupo 1200877" transform="translate(-1165 -5442.825)">
    <g id="Grupo_1184789" data-name="Grupo 1184789" transform="translate(0 2337.835)">
      <g id="Grupo_1183773" data-name="Grupo 1183773" transform="translate(0 -5016.854)">
        <g id="Grupo_1173637" data-name="Grupo 1173637" transform="translate(1174 8127.845)">
          <g id="Grupo_1173556" data-name="Grupo 1173556" transform="translate(0 0)">
            <g id="Grupo_1172017" data-name="Grupo 1172017" transform="translate(0)">
              <g id="Grupo_1167337" data-name="Grupo 1167337" transform="translate(0)">
                <g id="Grupo_1166720" data-name="Grupo 1166720">
                  <g id="Grupo_1164305" data-name="Grupo 1164305">
                    <g id="Grupo_1163948" data-name="Grupo 1163948">
                      <g id="Grupo_1158168" data-name="Grupo 1158168">
                        <g id="Grupo_1152576" data-name="Grupo 1152576">
                          <g id="Grupo_1148633" data-name="Grupo 1148633">
                            <g id="Grupo_1148525" data-name="Grupo 1148525">
                              <g transform="matrix(1, 0, 0, 1, -9, -6)" filter="url(#Trazado_982547)">
                                <g id="Trazado_982547-2" data-name="Trazado 982547" transform="translate(9 6)" fill="#e8edf7">
                                  <path d="M 46.09305953979492 90.68612670898438 C 40.07238006591797 90.68612670898438 34.23257827758789 89.50730133056641 28.73588562011719 87.18239593505859 C 23.42596626281738 84.93648529052734 18.65684700012207 81.72095489501953 14.56100654602051 77.62511444091797 C 10.46517944335938 73.52928924560547 7.249646186828613 68.76016998291016 5.003739356994629 63.45023345947266 C 2.678832769393921 57.95354080200195 1.500006198883057 52.11373901367188 1.500006198883057 46.09305953979492 C 1.500006198883057 40.07238006591797 2.678832769393921 34.23257827758789 5.003739356994629 28.73588562011719 C 7.249646186828613 23.42595291137695 10.46517944335938 18.65684700012207 14.56100654602051 14.56100654602051 C 18.65684700012207 10.46517944335938 23.42595291137695 7.249646186828613 28.73588562011719 5.003739356994629 C 34.23257827758789 2.678832769393921 40.07238006591797 1.500006198883057 46.09305953979492 1.500006198883057 C 52.11373901367188 1.500006198883057 57.95354080200195 2.678832769393921 63.45023345947266 5.003739356994629 C 68.76016998291016 7.249646186828613 73.52928924560547 10.46517944335938 77.62511444091797 14.56100654602051 C 81.72095489501953 18.65684700012207 84.93648529052734 23.42596626281738 87.18239593505859 28.73588562011719 C 89.50730133056641 34.23257827758789 90.68612670898438 40.07238006591797 90.68612670898438 46.09305953979492 C 90.68612670898438 52.11373901367188 89.50730133056641 57.95354080200195 87.18239593505859 63.45023345947266 C 84.93648529052734 68.76016998291016 81.72095489501953 73.52928924560547 77.62511444091797 77.62511444091797 C 73.52928924560547 81.72095489501953 68.76016998291016 84.93648529052734 63.45023345947266 87.18239593505859 C 57.95354080200195 89.50730133056641 52.11373901367188 90.68612670898438 46.09305953979492 90.68612670898438 Z" stroke="none"/>
                                  <path d="M 46.09305953979492 3 C 40.27421569824219 3 34.63101577758789 4.138961791992188 29.32021713256836 6.385231018066406 C 24.1890869140625 8.555519104003906 19.58021545410156 11.66310119628906 15.62165832519531 15.62165832519531 C 11.66310119628906 19.58021545410156 8.555519104003906 24.1890869140625 6.385231018066406 29.32021713256836 C 4.138961791992188 34.63101577758789 3 40.27421569824219 3 46.09305953979492 C 3 51.91190338134766 4.138961791992188 57.55510330200195 6.385231018066406 62.86590194702148 C 8.555519104003906 67.99703216552734 11.66310119628906 72.60588836669922 15.62165832519531 76.56444549560547 C 19.58021545410156 80.52301788330078 24.1890869140625 83.63058471679688 29.32021713256836 85.80088806152344 C 34.63101577758789 88.04715728759766 40.27421569824219 89.18611907958984 46.09305953979492 89.18611907958984 C 51.91190338134766 89.18611907958984 57.55510330200195 88.04715728759766 62.86590194702148 85.80088806152344 C 67.99703216552734 83.63058471679688 72.60588836669922 80.52301788330078 76.56444549560547 76.56444549560547 C 80.52301788330078 72.60588836669922 83.63058471679688 67.99703216552734 85.80088806152344 62.86590194702148 C 88.04715728759766 57.55510330200195 89.18611907958984 51.91190338134766 89.18611907958984 46.09305953979492 C 89.18611907958984 40.27421569824219 88.04715728759766 34.63101577758789 85.80088806152344 29.32021713256836 C 83.63058471679688 24.1890869140625 80.52301788330078 19.58021545410156 76.56444549560547 15.62165832519531 C 72.60588836669922 11.66310119628906 67.99703216552734 8.555519104003906 62.86590194702148 6.385231018066406 C 57.55510330200195 4.138961791992188 51.91190338134766 3 46.09305953979492 3 M 46.09305953979492 0 C 71.54954528808594 0 92.18611907958984 20.63655853271484 92.18611907958984 46.09305953979492 C 92.18611907958984 71.54954528808594 71.54954528808594 92.18611907958984 46.09305953979492 92.18611907958984 C 20.63655853271484 92.18611907958984 0 71.54954528808594 0 46.09305953979492 C 0 20.63655853271484 20.63655853271484 0 46.09305953979492 0 Z" stroke="none" fill="#2e5bb6"/>
                                </g>
                              </g>
                            </g>
                          </g>
                        </g>
                      </g>
                    </g>
                  </g>
                </g>
              </g>
            </g>
          </g>
        </g>
      </g>
    </g>
    <g id="economia-verde" transform="translate(1150.042 5457.542)">
      <g id="Grupo_1200875" data-name="Grupo 1200875" transform="translate(41.745 1.036)">
        <path id="Trazado_1042290" data-name="Trazado 1042290" d="M89.553,161.787l.8-.475,1.473-1.021,3.1-2.525,4.685-5.737,2.951-5.063.382-5.521,1.5-7.811-2.8-7.684-4.656-6.742-2.035-3.994.992-2.684-3.333-.572L87.4,111.27l-1.2.982,3.52,9.28a.464.464,0,0,0,.8.119l1.221-1.585a.465.465,0,0,1,.693-.049,22.062,22.062,0,0,1,6.563,13.111,22.266,22.266,0,1,1-32.726-16.7l.373-.2a2.8,2.8,0,0,0,1.119-3.794l-.406-.746a2.8,2.8,0,0,0-3.794-1.119l-.373.2A28.719,28.719,0,0,0,76.865,164.7a29.176,29.176,0,0,0,3.747-.243A28.771,28.771,0,0,0,89.553,161.787Z" transform="translate(-48.21 -96.024)" fill="#6ce79a"/>
        <g id="Grupo_1200874" data-name="Grupo 1200874" transform="translate(37.592 14.099)">
          <path id="Trazado_1042291" data-name="Trazado 1042291" d="M339.816,131.695a28.61,28.61,0,0,0-9.069-17.473.465.465,0,0,1-.057-.627l1.667-2.163a.464.464,0,0,0-.318-.745l-10.821-1.164a.9.9,0,0,0-.937,1.213l.345.911,8.2.881a.464.464,0,0,1,.318.745l-1.667,2.163a.465.465,0,0,0,.057.627,28.747,28.747,0,0,1-3.559,45.119,28.756,28.756,0,0,0,15.844-29.487Z" transform="translate(-320.222 -109.518)" fill="#00d8a2"/>
        </g>
        <path id="Trazado_1042292" data-name="Trazado 1042292" d="M164.087,216.388l.679-.015,1.632-.177,2.7-.609,3.276-2.508,4.248-3.282,1.7-6.351s-.52-5.213-.489-5.4c-.16-.328-2.314-5.707-2.314-5.707l-5.464-3.726-2.833-.858-2.259-.187h-.868a14.491,14.491,0,0,0,0,28.819Z" transform="translate(-136.911 -162.683)" fill="#ffe270"/>
        <path id="Trazado_1042293" data-name="Trazado 1042293" d="M246.385,186.981a14.673,14.673,0,0,0-1.54.081,14.491,14.491,0,0,1,0,28.819,14.645,14.645,0,0,0,1.54.081,14.491,14.491,0,1,0,0-28.981Z" transform="translate(-217.67 -162.177)" fill="#ffd250"/>
        <path id="Trazado_1042294" data-name="Trazado 1042294" d="M193.916,241.779l.967-.017s2-.32,2.022-.32,2.982-1.305,2.982-1.305l2.7-3.641,1.224-4.358-1.022-4.358-2.975-3.461-3.408-1.394-1.278-.266h-1.207a9.694,9.694,0,0,0,0,19.12Z" transform="translate(-166.812 -192.924)" fill="#ffab56"/>
        <path id="Trazado_1042295" data-name="Trazado 1042295" d="M245.946,221.679a9.748,9.748,0,0,0-1.61.136,9.694,9.694,0,0,1,0,19.12,9.7,9.7,0,1,0,1.61-19.255Z" transform="translate(-217.231 -192.079)" fill="#ff982a"/>
        <path id="Trazado_1042296" data-name="Trazado 1042296" d="M261.1,14.016c.068-.068,2.579-2.4,2.579-2.4V8.63L263.06,7.5h-1.009a6.066,6.066,0,0,0-6.066,6.066v.948l1.4.8S261.032,14.084,261.1,14.016Z" transform="translate(-227.27 -7.5)" fill="#6ce79a"/>
        <path id="Trazado_1042297" data-name="Trazado 1042297" d="M264.185,7.5H263.06v.948a6.066,6.066,0,0,1-6.066,6.066h-1.009V15.7a.822.822,0,0,0,.822.822h2.135a6.066,6.066,0,0,0,6.066-6.066V8.322A.822.822,0,0,0,264.185,7.5Z" transform="translate(-227.27 -7.5)" fill="#00d8a2"/>
        <path id="Trazado_1042298" data-name="Trazado 1042298" d="M202.892,53.539c-.068-.068-2.579-2.4-2.579-2.4v-2.99l.619-1.13h1.009a6.066,6.066,0,0,1,6.066,6.066v.948l-1.4.8S202.96,53.607,202.892,53.539Z" transform="translate(-179.292 -41.561)" fill="#6ce79a"/>
        <path id="Trazado_1042299" data-name="Trazado 1042299" d="M191.523,47.023h1.125v.948a6.066,6.066,0,0,0,6.066,6.066h1.009v1.186a.822.822,0,0,1-.822.822h-2.135A6.066,6.066,0,0,1,190.7,49.98V47.845A.822.822,0,0,1,191.523,47.023Z" transform="translate(-171.009 -41.561)" fill="#00d8a2"/>
      </g>
      <g id="Grupo_1200876" data-name="Grupo 1200876" transform="translate(40.708 0)">
        <path id="Trazado_1042300" data-name="Trazado 1042300" d="M234.929,254.1a2.349,2.349,0,0,1-1.7-.443,1.036,1.036,0,1,0-1.135,1.735,4.127,4.127,0,0,0,1.806.731v.272a1.036,1.036,0,1,0,2.073,0v-.38a3.473,3.473,0,0,0,2.338-2.707,3.069,3.069,0,0,0-2.084-3.474,8.5,8.5,0,0,1-2.146-.994.6.6,0,0,1-.114-.554.857.857,0,0,1,.558-.677,3.694,3.694,0,0,1,2.1,0,1.037,1.037,0,0,0,.728-1.941,5.093,5.093,0,0,0-1.38-.275v-.071a1.036,1.036,0,1,0-2.073,0v.307a2.91,2.91,0,0,0-1.97,2.269,2.61,2.61,0,0,0,.872,2.569,9.939,9.939,0,0,0,2.735,1.317.992.992,0,0,1,.731,1.176A1.348,1.348,0,0,1,234.929,254.1Z" transform="translate(-205.239 -210.524)"/>
        <path id="Trazado_1042301" data-name="Trazado 1042301" d="M183.59,215.767a10.747,10.747,0,0,0-5.118,8.51,1.037,1.037,0,1,0,2.069.127,8.671,8.671,0,1,1,.552,3.607,1.037,1.037,0,0,0-1.936.741,10.81,10.81,0,0,0,.866,1.767,10.662,10.662,0,0,0,6.637,4.839,10.8,10.8,0,0,0,2.542.3,10.734,10.734,0,1,0-5.612-19.9Z" transform="translate(-159.431 -184.594)"/>
        <path id="Trazado_1042302" data-name="Trazado 1042302" d="M156.2,16.557h1.92v8.281a15.527,15.527,0,1,0,2.073,0V11.1h1.92a7.11,7.11,0,0,0,7.1-7.1V1.859A1.861,1.861,0,0,0,167.361,0h-2.134a7.134,7.134,0,0,0-1.66.2,1.037,1.037,0,1,0,.483,2.016,5.06,5.06,0,0,1,1.177-.14h1.92v1.92a5.035,5.035,0,0,1-5.029,5.029H160.2V7.1a4.983,4.983,0,0,1,1.021-3.036,1.036,1.036,0,1,0-1.651-1.253A7.04,7.04,0,0,0,158.125,7.1v.452A7.08,7.08,0,0,0,153.1,5.462h-2.134A1.861,1.861,0,0,0,149.1,7.321V9.455a7.11,7.11,0,0,0,7.1,7.1Zm16.411,23.774a13.454,13.454,0,1,1-13.454-13.454A13.469,13.469,0,0,1,172.615,40.332Zm-21.44-32.8h1.92a5.035,5.035,0,0,1,5.029,5.029v1.92H156.2a5.035,5.035,0,0,1-5.029-5.029Z" transform="translate(-129.409 0)"/>
        <path id="Trazado_1042303" data-name="Trazado 1042303" d="M99.959,125.1a29.648,29.648,0,0,0-9.014-17.748l1.348-1.749a1.5,1.5,0,0,0-1.028-2.408l-10.821-1.164a1.936,1.936,0,0,0-2.017,2.611l1.091,2.877a1.037,1.037,0,1,0,1.938-.735l-1.012-2.668,9.582,1.031L88.985,106.5a1.493,1.493,0,0,0,.178,2.025,27.654,27.654,0,0,1-15.149,47.841,28.27,28.27,0,0,1-3.614.234A27.682,27.682,0,0,1,57.228,104.6l.373-.2a1.761,1.761,0,0,1,2.388.7l.406.746a1.763,1.763,0,0,1-.7,2.389l-.373.2A23.458,23.458,0,0,0,47.35,131.912,23.3,23.3,0,1,0,86.7,112.2a1.5,1.5,0,0,0-2.234.161l-.6.773-.98-2.584a1.037,1.037,0,0,0-1.938.735l1.344,3.542a1.5,1.5,0,0,0,2.591.384l.825-1.07a21.232,21.232,0,1,1-36.3,17.5,21.373,21.373,0,0,1,10.9-21.381l.373-.2a3.838,3.838,0,0,0,1.534-5.2l-.406-.746a3.834,3.834,0,0,0-5.2-1.534l-.373.2A29.755,29.755,0,0,0,70.4,158.67a30.31,30.31,0,0,0,3.881-.251A29.7,29.7,0,0,0,99.959,125.1Z" transform="translate(-40.708 -87.917)"/>
      </g>
    </g>
  </g>
</svg>
