<svg xmlns="http://www.w3.org/2000/svg" xmlns:xlink="http://www.w3.org/1999/xlink" width="108" height="108" viewBox="0 0 108 108">
  <defs>
    <filter id="Trazado_978624" x="0" y="0" width="108" height="108" filterUnits="userSpaceOnUse">
      <feOffset dy="3" input="SourceAlpha"/>
      <feGaussianBlur stdDeviation="3" result="blur"/>
      <feFlood flood-opacity="0.161"/>
      <feComposite operator="in" in2="blur"/>
      <feComposite in="SourceGraphic"/>
    </filter>
  </defs>
  <g id="Grupo_1200879" data-name="Grupo 1200879" transform="translate(-163 -6312.835)">
    <g id="Grupo_1171926" data-name="Grupo 1171926" transform="translate(-11 1511.835)">
      <g id="Grupo_1171925" data-name="Grupo 1171925" transform="translate(-22 -2251)">
        <g id="Grupo_1164524" data-name="Grupo 1164524" transform="translate(205 7058)">
          <g id="Grupo_1144123" data-name="Grupo 1144123">
            <g transform="matrix(1, 0, 0, 1, -9, -6)" filter="url(#Trazado_978624)">
              <g id="Trazado_978624-2" data-name="Trazado 978624" transform="translate(9 6)" fill="#fcf2ec">
                <path d="M 45 88.5 C 39.12687683105469 88.5 33.43022537231445 87.35007476806641 28.06830024719238 85.08217620849609 C 22.88852500915527 82.89131164550781 18.23629951477051 79.75458526611328 14.2408504486084 75.75914764404297 C 10.24541282653809 71.76370239257812 7.108687400817871 67.11147308349609 4.917825222015381 61.93170166015625 C 2.649924993515015 56.56977462768555 1.5 50.87312316894531 1.5 45 C 1.5 39.12687683105469 2.649924993515015 33.43022537231445 4.917825222015381 28.06830024719238 C 7.108687400817871 22.88852500915527 10.24541282653809 18.23629951477051 14.2408504486084 14.2408504486084 C 18.23629951477051 10.24541282653809 22.88852500915527 7.108687400817871 28.06830024719238 4.917825222015381 C 33.43022537231445 2.649924993515015 39.12687683105469 1.5 45 1.5 C 50.87312316894531 1.5 56.56977462768555 2.649924993515015 61.93170166015625 4.917825222015381 C 67.11147308349609 7.108687400817871 71.76370239257812 10.24541282653809 75.75914764404297 14.2408504486084 C 79.75458526611328 18.23629951477051 82.89131164550781 22.88852500915527 85.08217620849609 28.06830024719238 C 87.35007476806641 33.43022537231445 88.5 39.12687683105469 88.5 45 C 88.5 50.87312316894531 87.35007476806641 56.56977462768555 85.08217620849609 61.93170166015625 C 82.89131164550781 67.11147308349609 79.75458526611328 71.76370239257812 75.75914764404297 75.75914764404297 C 71.76370239257812 79.75458526611328 67.11147308349609 82.89131164550781 61.93170166015625 85.08217620849609 C 56.56977462768555 87.35007476806641 50.87312316894531 88.5 45 88.5 Z" stroke="none"/>
                <path d="M 45 3 C 39.32871246337891 3 33.82865524291992 4.110054016113281 28.65262985229492 6.299339294433594 C 23.65165710449219 8.414573669433594 19.15968322753906 11.44334411621094 15.301513671875 15.301513671875 C 11.44334411621094 19.15968322753906 8.414573669433594 23.65165710449219 6.299339294433594 28.65262985229492 C 4.110054016113281 33.82865524291992 3 39.32871246337891 3 45 C 3 50.67128753662109 4.110054016113281 56.17134475708008 6.299339294433594 61.34737396240234 C 8.414573669433594 66.34834289550781 11.44334411621094 70.84031677246094 15.301513671875 74.698486328125 C 19.15968322753906 78.55665588378906 23.65165710449219 81.58542633056641 28.65262985229492 83.70066070556641 C 33.82865524291992 85.88994598388672 39.32871246337891 87 45 87 C 50.67128753662109 87 56.17134475708008 85.88994598388672 61.34737396240234 83.70066070556641 C 66.34834289550781 81.58542633056641 70.84031677246094 78.55665588378906 74.698486328125 74.698486328125 C 78.55665588378906 70.84031677246094 81.58542633056641 66.34834289550781 83.70066070556641 61.34737396240234 C 85.88994598388672 56.17134475708008 87 50.67128753662109 87 45 C 87 39.32871246337891 85.88994598388672 33.82865524291992 83.70066070556641 28.65262985229492 C 81.58542633056641 23.65165710449219 78.55665588378906 19.15968322753906 74.698486328125 15.301513671875 C 70.84031677246094 11.44334411621094 66.34834289550781 8.414573669433594 61.34737396240234 6.299339294433594 C 56.17134475708008 4.110054016113281 50.67128753662109 3 45 3 M 45 0 C 69.85281372070312 0 90 20.14718627929688 90 45 C 90 69.85281372070312 69.85281372070312 90 45 90 C 20.14718627929688 90 0 69.85281372070312 0 45 C 0 20.14718627929688 20.14718627929688 0 45 0 Z" stroke="none" fill="#e8864c"/>
              </g>
            </g>
          </g>
        </g>
      </g>
    </g>
    <g id="economia-circular" transform="translate(179 6325)">
      <g id="Grupo_1200878" data-name="Grupo 1200878" transform="translate(15.34 15.34)">
        <path id="Trazado_1042304" data-name="Trazado 1042304" d="M112.239,94.437a5.129,5.129,0,0,0-3.624,8.751,1.524,1.524,0,0,1,0,2.153l-3.274,3.274a1.524,1.524,0,0,1-2.153,0,5.129,5.129,0,0,0-8.751,3.624,1.519,1.519,0,0,1-1.521,1.521H88.285a1.519,1.519,0,0,1-1.521-1.521,5.127,5.127,0,0,0-8.751-3.624,1.521,1.521,0,0,1-2.15,0l-3.277-3.274a1.524,1.524,0,0,1,0-2.153,5.128,5.128,0,0,0-3.624-8.751,1.521,1.521,0,0,1-1.521-1.521V88.285a1.521,1.521,0,0,1,1.521-1.521,5.128,5.128,0,0,0,3.624-8.751,1.521,1.521,0,0,1,0-2.15l3.277-3.277a1.521,1.521,0,0,1,2.15,0,5.128,5.128,0,0,0,8.751-3.624,1.521,1.521,0,0,1,1.521-1.521h4.631a1.521,1.521,0,0,1,1.521,1.521,5.128,5.128,0,0,0,8.751,3.624,1.524,1.524,0,0,1,2.153,0l3.274,3.277a1.521,1.521,0,0,1,0,2.15,5.129,5.129,0,0,0,3.624,8.751,1.519,1.519,0,0,1,1.521,1.521v4.631a1.519,1.519,0,0,1-1.521,1.521Z" transform="translate(-67.44 -67.44)" fill="#cad0d7" fill-rule="evenodd"/>
        <path id="Trazado_1042305" data-name="Trazado 1042305" d="M155.953,142.007A13.953,13.953,0,1,1,142,155.96,13.954,13.954,0,0,1,155.953,142.007Z" transform="translate(-132.793 -132.799)" fill="#f5b945" fill-rule="evenodd"/>
        <path id="Trazado_1042306" data-name="Trazado 1042306" d="M177.731,166.85a10.885,10.885,0,1,1-10.886,10.886A10.886,10.886,0,0,1,177.731,166.85Z" transform="translate(-154.57 -154.575)" fill="#fdcd56" fill-rule="evenodd"/>
      </g>
      <path id="Trazado_1042307" data-name="Trazado 1042307" d="M60.139,43.2a4.264,4.264,0,0,0-3.013,7.275,2.389,2.389,0,0,1,0,3.375l-3.274,3.274a2.389,2.389,0,0,1-3.375,0A4.264,4.264,0,0,0,43.2,60.139a2.383,2.383,0,0,1-2.385,2.385H36.184A2.383,2.383,0,0,1,33.8,60.139a4.262,4.262,0,0,0-7.275-3.013,2.385,2.385,0,0,1-3.372,0l-3.277-3.275a2.389,2.389,0,0,1,0-3.375A4.264,4.264,0,0,0,16.861,43.2a2.386,2.386,0,0,1-2.385-2.385V36.184A2.386,2.386,0,0,1,16.861,33.8a4.264,4.264,0,0,0,3.013-7.275,2.385,2.385,0,0,1,0-3.373l3.277-3.277a2.385,2.385,0,0,1,3.373,0A4.264,4.264,0,0,0,33.8,16.861a2.386,2.386,0,0,1,2.385-2.385h4.631A2.386,2.386,0,0,1,43.2,16.861a4.264,4.264,0,0,0,7.275,3.013,2.389,2.389,0,0,1,3.375,0l3.274,3.277a2.385,2.385,0,0,1,0,3.373A4.264,4.264,0,0,0,60.139,33.8a2.383,2.383,0,0,1,2.385,2.385v4.631A2.383,2.383,0,0,1,60.139,43.2Zm0-1.729a.656.656,0,0,0,.657-.657V36.184a.656.656,0,0,0-.657-.657A5.994,5.994,0,0,1,55.9,25.3a.656.656,0,0,0,0-.928L52.629,21.1a.659.659,0,0,0-.93,0,5.993,5.993,0,0,1-10.226-4.236.657.657,0,0,0-.657-.657H36.184a.657.657,0,0,0-.657.657A5.993,5.993,0,0,1,25.3,21.1a.656.656,0,0,0-.928,0L21.1,24.374a.656.656,0,0,0,0,.928,5.993,5.993,0,0,1-4.236,10.226.657.657,0,0,0-.657.657v4.631a.657.657,0,0,0,.657.657A5.993,5.993,0,0,1,21.1,51.7a.659.659,0,0,0,0,.93L24.374,55.9a.656.656,0,0,0,.928,0,5.991,5.991,0,0,1,10.226,4.236.656.656,0,0,0,.657.657h4.631a.656.656,0,0,0,.657-.657A5.994,5.994,0,0,1,51.7,55.9a.659.659,0,0,0,.931,0L55.9,52.629a.659.659,0,0,0,0-.931,5.994,5.994,0,0,1,4.236-10.226ZM38.5,23.683A14.817,14.817,0,1,1,23.682,38.5,14.818,14.818,0,0,1,38.5,23.683Zm0,1.729A13.088,13.088,0,1,0,51.589,38.5,13.089,13.089,0,0,0,38.5,25.412Zm0,1.339A11.749,11.749,0,1,1,26.75,38.5,11.75,11.75,0,0,1,38.5,26.751Zm0,1.729A10.021,10.021,0,1,0,48.521,38.5,10.022,10.022,0,0,0,38.5,28.479ZM37.62,33l-.017-.689a.864.864,0,0,1,1.728-.042l.018.753a5.244,5.244,0,0,1,1.124.431,3.076,3.076,0,0,1,1.122.939.864.864,0,1,1-1.444.95,1.321,1.321,0,0,0-.485-.36,2.845,2.845,0,0,0-1.167-.354,1.548,1.548,0,1,0,0,3.051,3.409,3.409,0,0,1,3.541,3.254,3.326,3.326,0,0,1-2.66,3.153l.015.6a.864.864,0,0,1-1.728.042l-.015-.622a4.015,4.015,0,0,1-1.985-1.182.864.864,0,0,1,1.185-1.258,2.176,2.176,0,0,0,1.647.792,1.548,1.548,0,1,0,0-3.051,3.409,3.409,0,0,1-3.541-3.254A3.325,3.325,0,0,1,37.62,33ZM65.2,53.239l1.313-.758a.864.864,0,1,1,.864,1.5l-4.347,2.51a.864.864,0,0,1-1.3-.749V50.72a.864.864,0,0,1,1.729,0V52.8q.247-.43.48-.869l.115-.22A28.585,28.585,0,0,0,65.555,48.3q.049-.135.1-.271.039-.112.078-.224a28.548,28.548,0,0,0,.978-3.616q.028-.14.055-.28t.052-.282a28.839,28.839,0,0,0,.45-4.476q0-.148.005-.3,0-.179,0-.358A28.745,28.745,0,0,0,38.5,9.729q-.3,0-.59.006l-.3.008a.864.864,0,0,1-.052-1.728l.314-.008Q38.187,8,38.5,8A30.474,30.474,0,0,1,69,38.5q0,.19,0,.379,0,.157-.005.314a30.566,30.566,0,0,1-.477,4.744q-.027.15-.056.3t-.058.3a30.275,30.275,0,0,1-1.037,3.835q-.041.119-.082.238-.051.144-.1.288A30.324,30.324,0,0,1,65.6,52.506l-.122.233q-.133.251-.27.5ZM11.8,23.761l-1.313.758a.864.864,0,0,1-.864-1.5l4.347-2.51a.864.864,0,0,1,1.3.749V26.28a.864.864,0,0,1-1.729,0V24.2q-.283.492-.546,1l-.1.2a28.615,28.615,0,0,0-1.393,3.174q-.095.257-.184.516-.043.125-.085.25a28.515,28.515,0,0,0-.9,3.329q-.026.125-.051.251-.061.308-.115.618a28.835,28.835,0,0,0-.415,4.112q0,.163-.008.327,0,.263,0,.527A28.745,28.745,0,0,0,38.5,67.271q.381,0,.759-.01l.327-.01a.864.864,0,1,1,.064,1.728l-.346.011q-.4.01-.8.01A30.474,30.474,0,0,1,8,38.5q0-.28.005-.558,0-.173.008-.346a30.559,30.559,0,0,1,.44-4.359q.057-.329.122-.656.026-.133.054-.266a30.259,30.259,0,0,1,.954-3.531q.045-.133.09-.265.1-.275.2-.547a30.363,30.363,0,0,1,1.477-3.366l.109-.211q.167-.319.341-.634ZM28.748,11.426A.864.864,0,1,1,28.162,9.8l.237-.084a30.245,30.245,0,0,1,3.827-1.068l.3-.061a.864.864,0,1,1,.337,1.7l-.279.057a28.523,28.523,0,0,0-3.608,1.007ZM48.133,65.617a.864.864,0,0,1,.579,1.629l-.264.093a30.258,30.258,0,0,1-3.523.983l-.266.056a.864.864,0,0,1-.348-1.693l.251-.053a28.514,28.514,0,0,0,3.321-.927l.249-.087Zm7.29-3.853a.864.864,0,1,1,1.018,1.4l-.168.122a30.524,30.524,0,0,1-3.451,2.148l-.21.111a.864.864,0,0,1-.8-1.532l.2-.1a28.819,28.819,0,0,0,3.256-2.026l.158-.115ZM21.577,15.236a.864.864,0,1,1-1.018-1.4l.048-.035a30.557,30.557,0,0,1,3.437-2.162l.232-.124a.864.864,0,1,1,.808,1.528l-.219.117a28.832,28.832,0,0,0-3.242,2.04Z" fill-rule="evenodd"/>
    </g>
  </g>
</svg>
