<svg xmlns="http://www.w3.org/2000/svg" xmlns:xlink="http://www.w3.org/1999/xlink" width="93.934" height="93.934" viewBox="0 0 93.934 93.934">
  <defs>
    <filter id="Trazado_982547" x="0" y="0" width="93.934" height="93.934" filterUnits="userSpaceOnUse">
      <feOffset dy="3" input="SourceAlpha"/>
      <feGaussianBlur stdDeviation="3" result="blur"/>
      <feFlood flood-opacity="0.161"/>
      <feComposite operator="in" in2="blur"/>
      <feComposite in="SourceGraphic"/>
    </filter>
  </defs>
  <g id="Grupo_1201719" data-name="Grupo 1201719" transform="translate(-189 -812.473)">
    <g id="Grupo_1184774" data-name="Grupo 1184774" transform="translate(0 77.473)">
      <g id="Grupo_1175133" data-name="Grupo 1175133" transform="translate(-0.033 -1251)">
        <g id="Grupo_1167337" data-name="Grupo 1167337" transform="translate(198.033 1992)">
          <g id="Grupo_1166720" data-name="Grupo 1166720">
            <g id="Grupo_1164305" data-name="Grupo 1164305">
              <g id="Grupo_1163948" data-name="Grupo 1163948">
                <g id="Grupo_1158168" data-name="Grupo 1158168">
                  <g id="Grupo_1152576" data-name="Grupo 1152576">
                    <g id="Grupo_1148633" data-name="Grupo 1148633">
                      <g id="Grupo_1148525" data-name="Grupo 1148525">
                        <g transform="matrix(1, 0, 0, 1, -9, -6)" filter="url(#Trazado_982547)">
                          <g id="Trazado_982547-2" data-name="Trazado 982547" transform="translate(9 6)" fill="#e8edf7">
                            <path d="M 37.966796875 74.43359375 C 33.04315185546875 74.43359375 28.26757431030273 73.46962738037109 23.77274131774902 71.56847381591797 C 19.43047523498535 69.73184967041016 15.53040790557861 67.10224914550781 12.18087482452393 63.75271987915039 C 8.831341743469238 60.4031867980957 6.201741218566895 56.50312042236328 4.365118980407715 52.16086196899414 C 2.463963508605957 47.66601943969727 1.499996900558472 42.89044189453125 1.499996900558472 37.966796875 C 1.499996900558472 33.04315185546875 2.463963508605957 28.26757431030273 4.365118980407715 23.77274131774902 C 6.201741218566895 19.43047523498535 8.831341743469238 15.53040790557861 12.18087482452393 12.18087482452393 C 15.53040790557861 8.831341743469238 19.43047523498535 6.201741218566895 23.77274131774902 4.365118980407715 C 28.26757431030273 2.463963508605957 33.04315185546875 1.499996900558472 37.966796875 1.499996900558472 C 42.89044189453125 1.499996900558472 47.66601943969727 2.463963508605957 52.16086196899414 4.365118980407715 C 56.50312042236328 6.201741218566895 60.4031867980957 8.831341743469238 63.75271987915039 12.18087482452393 C 67.10224914550781 15.53040790557861 69.73184967041016 19.43047523498535 71.56847381591797 23.77274131774902 C 73.46962738037109 28.26757431030273 74.43359375 33.04315185546875 74.43359375 37.966796875 C 74.43359375 42.89044189453125 73.46962738037109 47.66601943969727 71.56847381591797 52.16086196899414 C 69.73184967041016 56.50313186645508 67.10224914550781 60.4031867980957 63.75271987915039 63.75271987915039 C 60.4031867980957 67.10224914550781 56.50313186645508 69.73184967041016 52.16086196899414 71.56847381591797 C 47.66601943969727 73.46962738037109 42.89044189453125 74.43359375 37.966796875 74.43359375 Z" stroke="none"/>
                            <path d="M 37.966796875 3 C 33.2449836730957 3 28.66600799560547 3.924095153808594 24.35705947875977 5.746635437011719 C 20.19359588623047 7.507637023925781 16.45379638671875 10.02928161621094 13.24153518676758 13.24153518676758 C 10.02927398681641 16.45379638671875 7.507621765136719 20.19359588623047 5.746635437011719 24.35705947875977 C 3.924095153808594 28.66600799560547 3 33.2449836730957 3 37.966796875 C 3 42.6886100769043 3.924095153808594 47.26758575439453 5.746635437011719 51.57653427124023 C 7.507621765136719 55.73999786376953 10.02927398681641 59.47979736328125 13.24153518676758 62.69205856323242 C 16.45379638671875 65.90431976318359 20.19359588623047 68.42597198486328 24.35705947875977 70.18695831298828 C 28.66600799560547 72.00949859619141 33.2449836730957 72.93359375 37.966796875 72.93359375 C 42.6886100769043 72.93359375 47.26758575439453 72.00949859619141 51.57653427124023 70.18695831298828 C 55.73999786376953 68.42597198486328 59.47979736328125 65.90431976318359 62.69205856323242 62.69205856323242 C 65.90431976318359 59.47979736328125 68.42597198486328 55.73999786376953 70.18695831298828 51.57653427124023 C 72.00949859619141 47.26758575439453 72.93359375 42.6886100769043 72.93359375 37.966796875 C 72.93359375 33.2449836730957 72.00949859619141 28.66600799560547 70.18695831298828 24.35705947875977 C 68.42597198486328 20.19359588623047 65.90431976318359 16.45379638671875 62.69205856323242 13.24153518676758 C 59.47979736328125 10.02928161621094 55.73999786376953 7.507637023925781 51.57653427124023 5.746635437011719 C 47.26758575439453 3.924095153808594 42.6886100769043 3 37.966796875 3 M 37.966796875 0 C 58.93528366088867 0 75.93359375 16.99832153320312 75.93359375 37.966796875 C 75.93359375 58.93528366088867 58.93528366088867 75.93359375 37.966796875 75.93359375 C 16.99831008911133 75.93359375 0 58.93528366088867 0 37.966796875 C 0 16.99832153320312 16.99831008911133 0 37.966796875 0 Z" stroke="none" fill="#2e5bb6"/>
                          </g>
                        </g>
                      </g>
                    </g>
                  </g>
                </g>
              </g>
            </g>
          </g>
        </g>
      </g>
    </g>
    <g id="gestion-de-productos" transform="translate(203.151 803)">
      <g id="Grupo_1200654" data-name="Grupo 1200654" transform="translate(8.829 31.913)">
        <g id="Grupo_1200651" data-name="Grupo 1200651" transform="translate(13.72 0)">
          <path id="Trazado_1041928" data-name="Trazado 1041928" d="M150.318,39.091h27.14a1.032,1.032,0,0,1,1.03,1.03V66.343a1.95,1.95,0,0,1-1.947,1.947H151.236a1.95,1.95,0,0,1-1.947-1.947V40.121A1.031,1.031,0,0,1,150.318,39.091Z" transform="translate(-149.289 -39.091)" fill="#e3a76f" fill-rule="evenodd"/>
          <path id="Trazado_1041929" data-name="Trazado 1041929" d="M404.915,39.091h1.03a1.032,1.032,0,0,1,1.03,1.03V66.343a1.95,1.95,0,0,1-1.947,1.947H404a1.95,1.95,0,0,0,1.947-1.947V40.121A1.032,1.032,0,0,0,404.915,39.091Z" transform="translate(-377.775 -39.091)" fill="#c48958" fill-rule="evenodd"/>
          <path id="Trazado_1041930" data-name="Trazado 1041930" d="M243.616,39.091h9.777V51h-9.777Z" transform="translate(-233.905 -39.091)" fill="#f2d1a5" fill-rule="evenodd"/>
          <path id="Trazado_1041931" data-name="Trazado 1041931" d="M328.577,39.091h1.03V51h-1.03Z" transform="translate(-310.119 -39.091)" fill="#ecba78" fill-rule="evenodd"/>
        </g>
        <g id="Grupo_1200652" data-name="Grupo 1200652" transform="translate(0.063 23.779)">
          <path id="Trazado_1041932" data-name="Trazado 1041932" d="M49.429,277.031l9.64-5.585c1.809-1.048,3.649-1.791,5.637-1.146a67.785,67.785,0,0,0,9.529,2.929,2.678,2.678,0,0,1,1.852,3.208,2.592,2.592,0,0,1-3.208,1.852l1.291.207a6.009,6.009,0,0,0,4.132-.72l9.268-5.4c7.2-4.2,8.262,2.259,5.867,3.734L76.618,286.468a6.167,6.167,0,0,1-4.994.7l-12.2-3.269-4.518,2.608a1.825,1.825,0,0,1-2.488-.667l-3.653-6.328a1.824,1.824,0,0,1,.664-2.486Z" transform="translate(-45.239 -270.059)" fill="#f6dccd" fill-rule="evenodd"/>
          <path id="Trazado_1041933" data-name="Trazado 1041933" d="M229.425,317.558a2.645,2.645,0,0,1-2.988,1.275c-2-.528-3.994-1.07-5.991-1.605a1,1,0,0,1,.519-1.937Z" transform="translate(-198.796 -310.604)" fill="#f1cbbc" fill-rule="evenodd"/>
          <path id="Trazado_1041934" data-name="Trazado 1041934" d="M49.429,277.03l9.64-5.585c1.809-1.048,3.649-1.791,5.637-1.146,1.186.385,2.774,1.005,4.56,1.6L50.592,282.681l-1.827-3.165A1.825,1.825,0,0,1,49.429,277.03Z" transform="translate(-45.239 -270.058)" fill="#f1cbbc" fill-rule="evenodd"/>
          <path id="Trazado_1041935" data-name="Trazado 1041935" d="M21.786,302.208l7.645,13.508a1.368,1.368,0,0,1-.515,1.86l-2.6,1.472a1.368,1.368,0,0,1-1.86-.515l-7.645-13.508a1.369,1.369,0,0,1,.515-1.86l2.6-1.472a1.369,1.369,0,0,1,1.86.515Z" transform="translate(-16.635 -298.278)" fill="#d1d1d6" fill-rule="evenodd"/>
          <path id="Trazado_1041936" data-name="Trazado 1041936" d="M56.845,311.489,58.2,313.88l1.338,2.364a1.369,1.369,0,0,1-.511,1.857l.929-.526a1.369,1.369,0,0,0,.515-1.86l-1.343-2.372-2.7-4.763-2.7-4.769-.908-1.6a1.37,1.37,0,0,0-1.589-.632l1.571,2.777,2.7,4.763,1.343,2.372Z" transform="translate(-47.673 -298.278)" fill="#b1b1b5" fill-rule="evenodd"/>
        </g>
        <g id="Grupo_1200653" data-name="Grupo 1200653" transform="translate(0 0.948)">
          <path id="Trazado_1041937" data-name="Trazado 1041937" d="M27.377,49.867a8.08,8.08,0,0,1,2.366.981l1.538-.683,1.812,1.812-.683,1.537a8.081,8.081,0,0,1,.981,2.367l1.569.6v2.563l-1.569.6a8.081,8.081,0,0,1-.981,2.366l.683,1.538L31.28,65.368l-1.537-.683a8.078,8.078,0,0,1-2.367.981l-.6,1.569H24.21l-.6-1.569a8.08,8.08,0,0,1-2.366-.981l-1.538.683L17.89,63.556l.683-1.537a8.082,8.082,0,0,1-.981-2.367l-1.569-.6V56.485l1.569-.6a8.081,8.081,0,0,1,.981-2.366l-.683-1.537L19.7,50.165l1.538.683a8.082,8.082,0,0,1,2.366-.981l.6-1.569h2.563Z" transform="translate(-16.023 -48.298)" fill="#ffe177" fill-rule="evenodd"/>
          <path id="Trazado_1041938" data-name="Trazado 1041938" d="M51.235,64.685l-1.538.683-.237-.237,1.442-.64Q51.067,64.592,51.235,64.685Zm6.137-14.818a8.08,8.08,0,0,1,2.366.981l-.437.194a10.663,10.663,0,0,0-2.7-1.175L56,48.3h.77Zm2.367,14.818a8.078,8.078,0,0,1-2.367.981l-.6,1.569H56l.6-1.569a10.651,10.651,0,0,0,2.7-1.175ZM49.461,50.4l.237-.237,1.538.683q-.168.093-.333.194Zm11.282,0,.533-.237,1.812,1.812-.683,1.537a8.081,8.081,0,0,1,.981,2.367l1.569.6v2.563l-1.569.6a8.08,8.08,0,0,1-.981,2.366l.683,1.538-1.812,1.812-.533-.237,1.575-1.575-.683-1.538a8.08,8.08,0,0,0,.981-2.366l1.569-.6V56.485l-1.569-.6a8.083,8.083,0,0,0-.981-2.367l.683-1.537Z" transform="translate(-46.018 -48.298)" fill="#ffd064" fill-rule="evenodd"/>
          <circle id="Elipse_12545" data-name="Elipse 12545" cx="4.469" cy="4.469" r="4.469" transform="translate(4.234 5.926) rotate(-10.894)" fill="#eceff1"/>
          <path id="Trazado_1041939" data-name="Trazado 1041939" d="M69.05,96.857a4.469,4.469,0,1,0,0,8.938q.179,0,.355-.014a4.469,4.469,0,0,1,0-8.91Q69.23,96.857,69.05,96.857Z" transform="translate(-59.582 -91.858)" fill="#d1d1d6" fill-rule="evenodd"/>
        </g>
      </g>
      <path id="Trazado_1041940" data-name="Trazado 1041940" d="M18.295,45.975a3.646,3.646,0,1,1,3.646-3.646A3.65,3.65,0,0,1,18.295,45.975Zm0-8.938a5.293,5.293,0,1,0,5.294,5.293A5.3,5.3,0,0,0,18.295,37.037Zm-4.957,25.39a.929.929,0,1,1-1.053-.784A.928.928,0,0,1,13.338,62.427ZM56.66,61.044,39.836,71.4a5.356,5.356,0,0,1-4.351.609l-12.2-3.269a.822.822,0,0,0-.625.082L20.8,69.9l-4.586-8.1,6.91-4c1.546-.895,3.218-1.645,4.972-1.076.563.182,1.213.417,1.965.69a47.991,47.991,0,0,0,7.615,2.256,1.842,1.842,0,0,1,1.263,2.2,1.76,1.76,0,0,1-2.14,1.271c-1.366-.28-2.663-.65-4.037-1.043-.651-.185-1.324-.378-2.016-.563a.824.824,0,1,0-.426,1.591c.678.182,1.346.373,1.99.557,1.414.4,2.752.786,4.191,1.08l.016,0,.017,0,1.152.188a6.815,6.815,0,0,0,4.678-.821l9.27-5.4c2.669-1.553,4.722-1.712,5.495-.423a2.167,2.167,0,0,1-.472,2.745Zm-35.9,13.229a.549.549,0,0,0,.2-.738L13.321,60.023h0A.539.539,0,0,0,13,59.769a.556.556,0,0,0-.148-.02.526.526,0,0,0-.263.069l-2.6,1.472a.547.547,0,0,0-.2.737L17.426,75.54a.548.548,0,0,0,.737.2ZM19.99,49.428a7.258,7.258,0,0,0,2.126-.881.826.826,0,0,1,.766-.051l1.02.453,1.013-1.012-.454-1.021a.826.826,0,0,1,.051-.766,7.272,7.272,0,0,0,.881-2.125.822.822,0,0,1,.505-.578l1.041-.4V41.614l-1.041-.4a.821.821,0,0,1-.505-.578,7.216,7.216,0,0,0-.881-2.126.826.826,0,0,1-.051-.766l.454-1.02L23.9,35.711l-1.02.453a.823.823,0,0,1-.767-.051,7.26,7.26,0,0,0-2.125-.881.822.822,0,0,1-.578-.505l-.4-1.041H17.58l-.4,1.041a.822.822,0,0,1-.579.505,7.273,7.273,0,0,0-2.125.881.82.82,0,0,1-.766.051l-1.021-.453-1.012,1.012.453,1.02a.823.823,0,0,1-.051.767,7.23,7.23,0,0,0-.88,2.125.824.824,0,0,1-.506.578l-1.042.4v1.431l1.041.4a.82.82,0,0,1,.505.578,7.286,7.286,0,0,0,.881,2.126.82.82,0,0,1,.051.766l-.453,1.02,1.012,1.012L13.71,48.5a.822.822,0,0,1,.766.051,7.284,7.284,0,0,0,2.125.881.823.823,0,0,1,.579.505l.4,1.041h1.432l.4-1.041a.827.827,0,0,1,.578-.505ZM40.533,62.284a3.621,3.621,0,0,1-.423.991,5.108,5.108,0,0,0,1.428-.575l1.31-.763H40.606A3.124,3.124,0,0,1,40.533,62.284Zm-9.1-29.547v11.09a.824.824,0,0,0,.823.824h9.777a.824.824,0,0,0,.824-.824V32.737h8.064v24.5l-.114.065-5.132,2.99H40.447a3.622,3.622,0,0,0-2.308-2.209.747.747,0,0,0-.108-.028,46.5,46.5,0,0,1-7.408-2.195c-.734-.266-1.427-.516-2.016-.707a6.809,6.809,0,0,0-5.236.642V50.515l.38.169a.824.824,0,0,0,.916-.171L26.48,48.7a.827.827,0,0,0,.17-.917l-.513-1.153a8.867,8.867,0,0,0,.746-1.8l1.177-.453a.821.821,0,0,0,.527-.768V41.048a.822.822,0,0,0-.527-.768l-1.177-.453a8.839,8.839,0,0,0-.745-1.8l.512-1.153a.825.825,0,0,0-.171-.916l-1.812-1.812a.824.824,0,0,0-.916-.171l-.38.169V32.737Zm1.647,0V43h8.129V32.737ZM58.544,57.453c-.426-.712-2.02-2.659-5.974-1.035V31.913a.825.825,0,0,0-.824-.824h-29.2a.824.824,0,0,0-.824.824v2.155a8.855,8.855,0,0,0-.926-.327l-.452-1.176a.824.824,0,0,0-.769-.528H17.014a.825.825,0,0,0-.769.528l-.453,1.176a8.917,8.917,0,0,0-1.8.747l-1.153-.513a.825.825,0,0,0-.917.171l-1.812,1.812a.823.823,0,0,0-.17.916l.512,1.153a8.921,8.921,0,0,0-.747,1.8l-1.176.453A.824.824,0,0,0,8,41.048v2.563a.823.823,0,0,0,.528.768l1.176.453a8.9,8.9,0,0,0,.747,1.8l-.512,1.152a.824.824,0,0,0,.17.917l1.812,1.812a.825.825,0,0,0,.917.171l1.153-.513a8.915,8.915,0,0,0,1.8.746l.453,1.176a.824.824,0,0,0,.769.528h2.562a.824.824,0,0,0,.769-.528l.452-1.176a8.846,8.846,0,0,0,.926-.325V56.7L15.4,60.36l-.649-1.148a2.193,2.193,0,0,0-2.983-.826l-2.6,1.471a2.192,2.192,0,0,0-.827,2.982l7.648,13.512a2.19,2.19,0,0,0,1.908,1.11,2.167,2.167,0,0,0,1.074-.283l2.6-1.472a2.191,2.191,0,0,0,.827-2.983l-.788-1.392,1.571-.907,11.873,3.181a7.629,7.629,0,0,0,1.974.27A6.9,6.9,0,0,0,40.7,72.806L57.524,62.447A3.786,3.786,0,0,0,58.544,57.453Z" fill="#242222" fill-rule="evenodd"/>
    </g>
  </g>
</svg>
