<svg xmlns="http://www.w3.org/2000/svg" xmlns:xlink="http://www.w3.org/1999/xlink" width="113" height="113" viewBox="0 0 113 113">
  <defs>
    <filter id="Trazado_982547" x="0" y="0" width="113" height="113" filterUnits="userSpaceOnUse">
      <feOffset dy="3" input="SourceAlpha"/>
      <feGaussianBlur stdDeviation="3" result="blur"/>
      <feFlood flood-opacity="0.161"/>
      <feComposite operator="in" in2="blur"/>
      <feComposite in="SourceGraphic"/>
    </filter>
  </defs>
  <g id="Grupo_1200572" data-name="Grupo 1200572" transform="translate(-611 -543)">
    <g id="Grupo_1184772" data-name="Grupo 1184772" transform="translate(420.762 128)">
      <g id="Grupo_1183774" data-name="Grupo 1183774" transform="translate(-2.762 -669.432)">
        <g id="Grupo_1173793" data-name="Grupo 1173793" transform="translate(202 1090.432)">
          <g id="Grupo_1167519" data-name="Grupo 1167519">
            <g id="Grupo_1166845" data-name="Grupo 1166845">
              <g id="Grupo_1166720" data-name="Grupo 1166720">
                <g id="Grupo_1164305" data-name="Grupo 1164305">
                  <g id="Grupo_1163948" data-name="Grupo 1163948">
                    <g id="Grupo_1158168" data-name="Grupo 1158168">
                      <g id="Grupo_1152576" data-name="Grupo 1152576">
                        <g id="Grupo_1148633" data-name="Grupo 1148633">
                          <g id="Grupo_1148525" data-name="Grupo 1148525">
                            <g transform="matrix(1, 0, 0, 1, -9, -6)" filter="url(#Trazado_982547)">
                              <g id="Trazado_982547-2" data-name="Trazado 982547" transform="translate(9 6)" fill="#fcf2ec">
                                <path d="M 47.5 93.5 C 41.28937149047852 93.5 35.26533508300781 92.28397369384766 29.59518623352051 89.88570404052734 C 24.11771965026855 87.56893157958984 19.19813346862793 84.25196075439453 14.97309303283691 80.02691650390625 C 10.74804019927979 75.80186462402344 7.431066513061523 70.88229370117188 5.114293098449707 65.40481567382812 C 2.716026782989502 59.73468017578125 1.5 53.71062850952148 1.5 47.5 C 1.5 41.28937149047852 2.716026782989502 35.26533508300781 5.114293098449707 29.59518623352051 C 7.431066513061523 24.11771965026855 10.74804019927979 19.19813346862793 14.97309303283691 14.97309303283691 C 19.19813346862793 10.74804019927979 24.11771965026855 7.431066513061523 29.59518623352051 5.114293098449707 C 35.26533508300781 2.716026782989502 41.28937149047852 1.5 47.5 1.5 C 53.71062850952148 1.5 59.73468017578125 2.716026782989502 65.40481567382812 5.114293098449707 C 70.88229370117188 7.431066513061523 75.80186462402344 10.74804019927979 80.02691650390625 14.97309303283691 C 84.25196075439453 19.19813346862793 87.56893157958984 24.11771965026855 89.88570404052734 29.59518623352051 C 92.28397369384766 35.26533508300781 93.5 41.28937149047852 93.5 47.5 C 93.5 53.71062850952148 92.28397369384766 59.73468017578125 89.88570404052734 65.40481567382812 C 87.56893157958984 70.88229370117188 84.25196075439453 75.80186462402344 80.02691650390625 80.02691650390625 C 75.80186462402344 84.25196075439453 70.88229370117188 87.56893157958984 65.40481567382812 89.88570404052734 C 59.73468017578125 92.28397369384766 53.71062850952148 93.5 47.5 93.5 Z" stroke="none"/>
                                <path d="M 47.5 3 C 41.49121475219727 3 35.66376876831055 4.176155090332031 30.17950439453125 6.495796203613281 C 24.88084411621094 8.736953735351562 20.12152099609375 11.94598388671875 16.03375244140625 16.03375244140625 C 11.94598388671875 20.12152099609375 8.736953735351562 24.88084411621094 6.495796203613281 30.17950439453125 C 4.176155090332031 35.66376876831055 3 41.49121475219727 3 47.5 C 3 53.50878524780273 4.176155090332031 59.33623123168945 6.495796203613281 64.82049560546875 C 8.736953735351562 70.11915588378906 11.94598388671875 74.87847900390625 16.03375244140625 78.96624755859375 C 20.12152099609375 83.05401611328125 24.88084411621094 86.26304626464844 30.17950439453125 88.50419616699219 C 35.66376876831055 90.82384490966797 41.49121475219727 92 47.5 92 C 53.50878524780273 92 59.33623123168945 90.82384490966797 64.82049560546875 88.50419616699219 C 70.11915588378906 86.26304626464844 74.87847900390625 83.05401611328125 78.96624755859375 78.96624755859375 C 83.05401611328125 74.87847900390625 86.26304626464844 70.11915588378906 88.50419616699219 64.82049560546875 C 90.82384490966797 59.33623123168945 92 53.50878524780273 92 47.5 C 92 41.49121475219727 90.82384490966797 35.66376876831055 88.50419616699219 30.17950439453125 C 86.26304626464844 24.88084411621094 83.05401611328125 20.12152099609375 78.96624755859375 16.03375244140625 C 74.87847900390625 11.94598388671875 70.11915588378906 8.736953735351562 64.82049560546875 6.495796203613281 C 59.33623123168945 4.176155090332031 53.50878524780273 3 47.5 3 M 47.5 0 C 73.7335205078125 0 95 21.2664794921875 95 47.5 C 95 73.7335205078125 73.7335205078125 95 47.5 95 C 21.2664794921875 95 0 73.7335205078125 0 47.5 C 0 21.2664794921875 21.2664794921875 0 47.5 0 Z" stroke="none" fill="#e8864c"/>
                              </g>
                            </g>
                          </g>
                        </g>
                      </g>
                    </g>
                  </g>
                </g>
              </g>
            </g>
          </g>
        </g>
      </g>
    </g>
    <g id="economico_1_" data-name="economico (1)" transform="translate(623 552)">
      <path id="Trazado_1041810" data-name="Trazado 1041810" d="M92.324,46.147a22.162,22.162,0,0,1-44.324,0q0-.974.083-1.927a22.162,22.162,0,0,1,44.241,1.927Z" transform="translate(-28.146 -7.022)" fill="#9ce6ed"/>
      <path id="Trazado_1041811" data-name="Trazado 1041811" d="M247.125,86.885A22.147,22.147,0,0,1,236.6,105.752l-4.888-5.377V92.667h-3.854L224,86.885l3.854-2.891h4.818l2.891-3.854-1.927-4.818,6.028-5.023A22.11,22.11,0,0,1,247.125,86.885Z" transform="translate(-182.947 -47.76)" fill="#02c26a"/>
      <rect id="Rectángulo_415974" data-name="Rectángulo 415974" width="7.789" height="10.125" transform="translate(49.491 61.952)" fill="#4367e0"/>
      <rect id="Rectángulo_415975" data-name="Rectángulo 415975" width="7.789" height="17.914" transform="translate(57.279 54.164)" fill="#4976f2"/>
      <rect id="Rectángulo_415976" data-name="Rectángulo 415976" width="7.789" height="27.26" transform="translate(65.068 44.818)" fill="#548aff"/>
      <path id="Trazado_1041812" data-name="Trazado 1041812" d="M116.762,25.8,109.9,32.663v5.781L104.12,42.3l-3.854-3.854H95.448V34.59L90.99,31.915A22.181,22.181,0,0,1,116.762,25.8Z" transform="translate(-65.958 -7.028)" fill="#02c26a"/>
      <path id="Trazado_1041813" data-name="Trazado 1041813" d="M67.271,200.672l-3.854,2.891v11.481A22.171,22.171,0,0,1,48,193.927q0-.974.083-1.927h5.7l2.891,3.854h7.709Z" transform="translate(-28.146 -154.802)" fill="#02c26a"/>
      <path id="Trazado_1041814" data-name="Trazado 1041814" d="M33.636,257.927c0-1.064-2.157-1.927-4.818-1.927S24,256.863,24,257.927v24.089c0,1.064,2.157,1.927,4.818,1.927s4.818-.863,4.818-1.927Z" transform="translate(-7.036 -211.093)" fill="#ffc431"/>
      <ellipse id="Elipse_12538" data-name="Elipse 12538" cx="5.063" cy="1.947" rx="5.063" ry="1.947" transform="translate(16.779 44.818)" fill="#ffd873"/>
      <path id="Trazado_1041815" data-name="Trazado 1041815" d="M113.636,337.927c0-1.064-2.157-1.927-4.818-1.927s-4.818.863-4.818,1.927v14.453c0,1.064,2.157,1.927,4.818,1.927s4.818-.863,4.818-1.927Z" transform="translate(-77.401 -281.458)" fill="#ffc431"/>
      <ellipse id="Elipse_12539" data-name="Elipse 12539" cx="4.673" cy="1.947" rx="4.673" ry="1.947" transform="translate(26.904 54.164)" fill="#ffd873"/>
      <path id="Trazado_1041816" data-name="Trazado 1041816" d="M193.636,377.927c0-1.064-2.157-1.927-4.818-1.927s-4.818.863-4.818,1.927v9.636c0,1.064,2.157,1.927,4.818,1.927s4.818-.863,4.818-1.927Z" transform="translate(-147.765 -316.64)" fill="#ffc431"/>
      <ellipse id="Elipse_12540" data-name="Elipse 12540" cx="4.673" cy="1.947" rx="4.673" ry="1.947" transform="translate(36.25 59.616)" fill="#ffd873"/>
      <path id="Trazado_1041817" data-name="Trazado 1041817" d="M72.85,248H65.142a.964.964,0,0,0-.964.964v8.672H57.433a.964.964,0,0,0-.964.964v6.745H49.725a.964.964,0,0,0-.964.964v8.672H46.834v-9.636c0-.542-.262-1.555-2.017-2.257a11.5,11.5,0,0,0-7.529,0l-.09.037v-2.6c0-.542-.262-1.555-2.017-2.257a10.455,10.455,0,0,0-3.765-.633,10.455,10.455,0,0,0-3.765.633l-.09.037v-7.416c0-.542-.262-1.555-2.017-2.257A10.455,10.455,0,0,0,21.781,248a10.455,10.455,0,0,0-3.765.633c-1.755.7-2.017,1.715-2.017,2.257V274.98c0,.542.262,1.555,2.017,2.257a10.455,10.455,0,0,0,3.765.633,10.455,10.455,0,0,0,3.765-.633,4.643,4.643,0,0,0,1.053-.571,4.643,4.643,0,0,0,1.053.571,10.455,10.455,0,0,0,3.765.633,10.455,10.455,0,0,0,3.765-.633,4.643,4.643,0,0,0,1.053-.571,4.644,4.644,0,0,0,1.053.571,11.5,11.5,0,0,0,7.529,0,5.247,5.247,0,0,0,.685-.33H72.85a.964.964,0,0,0,.964-.964v-26.98A.964.964,0,0,0,72.85,248ZM17.927,267.564l.09.037a10.455,10.455,0,0,0,3.765.633,10.455,10.455,0,0,0,3.765-.633l.09-.037v2.561c-.167.3-1.5,1-3.854,1s-3.687-.7-3.854-1Zm0-4.818.09.037a10.455,10.455,0,0,0,3.765.633,10.456,10.456,0,0,0,3.765-.633l.09-.037v2.561c-.167.3-1.5,1-3.854,1s-3.687-.7-3.854-1Zm0-4.818.09.037a10.454,10.454,0,0,0,3.765.633,10.456,10.456,0,0,0,3.765-.633l.09-.037v2.561c-.167.3-1.5,1-3.854,1s-3.687-.7-3.854-1Zm0-4.818.09.037a10.455,10.455,0,0,0,3.765.633,10.455,10.455,0,0,0,3.765-.633l.09-.037v2.561c-.167.3-1.5,1-3.854,1s-3.687-.7-3.854-1Zm13.49,13.2c-2.354,0-3.687-.7-3.854-1v-2.561l.09.037a10.454,10.454,0,0,0,3.765.633,10.456,10.456,0,0,0,3.765-.633l.09-.037v2.561C35.1,265.606,33.771,266.308,31.417,266.308Zm-3.854,1.256.09.037a10.455,10.455,0,0,0,3.765.633,10.455,10.455,0,0,0,3.765-.633l.09-.037v2.561c-.167.3-1.5,1-3.854,1s-3.687-.7-3.854-1Zm9.636,0,.09.037a11.5,11.5,0,0,0,7.529,0l.09-.037v2.561c-.167.3-1.5,1-3.854,1s-3.687-.7-3.854-1Zm3.854-3.184c2.267,0,3.585.65,3.829.965-.251.316-1.57.962-3.829.962s-3.578-.646-3.829-.962C37.467,265.031,38.785,264.381,41.053,264.381Zm-9.636-4.818c2.267,0,3.585.65,3.829.965-.251.316-1.57.962-3.829.962s-3.582-.648-3.83-.964C27.835,260.211,29.155,259.563,31.417,259.563Zm-9.636-9.636c2.267,0,3.585.65,3.829.965-.251.316-1.57.962-3.829.962s-3.578-.646-3.829-.962C18.2,250.578,19.514,249.927,21.781,249.927Zm0,26.016c-2.35,0-3.683-.7-3.854-1v-2.563l.09.037a10.455,10.455,0,0,0,3.765.633,10.456,10.456,0,0,0,3.765-.633l.09-.037v2.563C25.464,275.244,24.131,275.943,21.781,275.943Zm9.636,0c-2.354,0-3.687-.7-3.854-1v-2.561l.09.037a10.455,10.455,0,0,0,3.765.633,10.455,10.455,0,0,0,3.765-.633l.09-.037v2.563C35.1,275.244,33.767,275.943,31.417,275.943Zm9.636,0c-2.35,0-3.683-.7-3.854-1v-2.563l.09.037a11.5,11.5,0,0,0,7.529,0l.09-.037v2.563C44.736,275.244,43.4,275.943,41.053,275.943Zm9.636-8.672H56.47v7.708H50.688Zm7.708-7.709h5.781V274.98H58.4Zm7.708,15.417V249.927h5.781V274.98Z" transform="translate(0 -204.057)"/>
      <rect id="Rectángulo_415977" data-name="Rectángulo 415977" width="2.337" height="2.337" transform="translate(40.923 54.164)"/>
      <path id="Trazado_1041818" data-name="Trazado 1041818" d="M256,181.2v1.927h4.818a.964.964,0,0,0,.681-.282l19.553-19.553v1.528h1.927v-3.854a.964.964,0,0,0-.964-.964h-3.854v1.927h1.528L260.419,181.2Z" transform="translate(-211.093 -126.656)"/>
      <path id="Trazado_1041819" data-name="Trazado 1041819" d="M78.8,22.121a23.126,23.126,0,0,0-38.8,17,23.424,23.424,0,0,0,.195,3.015l1.911-.249a21.49,21.49,0,0,1-.179-2.766c0-.323.008-.644.023-.964h4.313l2.6,3.469a.963.963,0,0,0,.771.385H56.8l2.163,3.6L55.8,47.99a.964.964,0,0,0-.385.771v2.891h1.927V49.243l3.469-2.6a.964.964,0,0,0,.248-1.267L58.17,40.557a.964.964,0,0,0-.826-.468H50.117l-2.6-3.469a.963.963,0,0,0-.771-.385h-4.62a21.1,21.1,0,0,1,4.248-10.084l3.262,1.957v3.309a.964.964,0,0,0,.964.964h4.419l3.572,3.572a.964.964,0,0,0,1.216.12l5.781-3.854a.963.963,0,0,0,.429-.8V26.035l6.107-6.107a21.15,21.15,0,0,1,4.2,2.609l-5.143,4.286a.963.963,0,0,0-.278,1.1l1.726,4.315-2.277,3.036H66.016a.964.964,0,0,0-.578.193l-3.854,2.891a.964.964,0,0,0-.224,1.305l3.854,5.781a.963.963,0,0,0,.8.429h2.891v5.781h1.927V44.907a.964.964,0,0,0-.964-.964H66.532l-3.063-4.594L66.337,37.2h4.5a.964.964,0,0,0,.771-.385L74.5,32.959a.963.963,0,0,0,.124-.936l-1.667-4.168,4.84-4.034a21.12,21.12,0,0,1,6.452,13.46l1.92-.165A23.05,23.05,0,0,0,78.8,22.121ZM64.371,24.954a.964.964,0,0,0-.282.681V30.9l-4.7,3.13-3.3-3.3a.964.964,0,0,0-.681-.282H51.563V27.563a.964.964,0,0,0-.468-.826l-3.454-2.072A21.189,21.189,0,0,1,70.19,19.135Z" transform="translate(-21.109)"/>
    </g>
  </g>
</svg>
