<svg xmlns="http://www.w3.org/2000/svg" xmlns:xlink="http://www.w3.org/1999/xlink" width="108" height="108" viewBox="0 0 108 108">
  <defs>
    <filter id="Trazado_904820" x="0" y="0" width="108" height="108" filterUnits="userSpaceOnUse">
      <feOffset dy="3" input="SourceAlpha"/>
      <feGaussianBlur stdDeviation="3" result="blur"/>
      <feFlood flood-opacity="0.161"/>
      <feComposite operator="in" in2="blur"/>
      <feComposite in="SourceGraphic"/>
    </filter>
  </defs>
  <g id="Grupo_1201157" data-name="Grupo 1201157" transform="translate(-620.24 -5429.873)">
    <g id="Grupo_1176538" data-name="Grupo 1176538" transform="translate(629.24 5435.873)">
      <g id="Grupo_1173585" data-name="Grupo 1173585" transform="translate(0 0)">
        <g id="Grupo_1173428" data-name="Grupo 1173428">
          <g id="Grupo_1171958" data-name="Grupo 1171958">
            <g id="Grupo_1167341" data-name="Grupo 1167341">
              <g id="Grupo_1166792" data-name="Grupo 1166792">
                <g transform="matrix(1, 0, 0, 1, -9, -6)" filter="url(#Trazado_904820)">
                  <g id="Trazado_904820-2" data-name="Trazado 904820" transform="translate(9 6)" fill="#e4f2f4">
                    <path d="M 44.99999618530273 88.49999237060547 C 39.12687301635742 88.49999237060547 33.43022155761719 87.35006713867188 28.06829643249512 85.08216857910156 C 22.88852119445801 82.89130401611328 18.23629570007324 79.75457763671875 14.24084663391113 75.75914001464844 C 10.24540901184082 71.76369476318359 7.108683586120605 67.11146545410156 4.917821407318115 61.93169403076172 C 2.649921178817749 56.56976699829102 1.499996185302734 50.87311553955078 1.499996185302734 44.99999237060547 C 1.499996185302734 39.12686920166016 2.649921178817749 33.43021774291992 4.917821407318115 28.06829261779785 C 7.108683586120605 22.88851737976074 10.24540901184082 18.23630523681641 14.24084663391113 14.24085521697998 C 18.23629570007324 10.24540519714355 22.88852119445801 7.108692169189453 28.06829643249512 4.917829990386963 C 33.43022155761719 2.649929761886597 39.12687301635742 1.500004887580872 44.99999618530273 1.500004887580872 C 50.87311935424805 1.500004887580872 56.56977081298828 2.649929761886597 61.93169784545898 4.917829990386963 C 67.11147308349609 7.108692169189453 71.76369476318359 10.24540519714355 75.75914764404297 14.24085521697998 C 79.75458526611328 18.23630523681641 82.89131164550781 22.88851737976074 85.08216857910156 28.06829261779785 C 87.35007476806641 33.43021774291992 88.5 39.12686920166016 88.5 44.99999237060547 C 88.5 50.87311553955078 87.35007476806641 56.56976699829102 85.08216857910156 61.93169403076172 C 82.89131164550781 67.11146545410156 79.75458526611328 71.76369476318359 75.75914764404297 75.75914001464844 C 71.76369476318359 79.75457763671875 67.11147308349609 82.89130401611328 61.93169784545898 85.08216857910156 C 56.56977081298828 87.35006713867188 50.87311935424805 88.49999237060547 44.99999618530273 88.49999237060547 Z" stroke="none"/>
                    <path d="M 44.99999618530273 2.999992370605469 C 39.32870864868164 2.999992370605469 33.82865142822266 4.11004638671875 28.65262603759766 6.299331665039062 C 23.65165710449219 8.414566040039062 19.15968322753906 11.44333648681641 15.301513671875 15.30150604248047 C 11.44333648681641 19.15967559814453 8.414566040039062 23.65164947509766 6.299339294433594 28.65262222290039 C 4.110054016113281 33.82864761352539 2.999992370605469 39.32870483398438 2.999992370605469 44.99999237060547 C 2.999992370605469 50.67127990722656 4.110054016113281 56.17132186889648 6.299339294433594 61.34736633300781 C 8.414566040039062 66.34833526611328 11.44333648681641 70.84029388427734 15.301513671875 74.69846343994141 C 19.15968322753906 78.55663299560547 23.65165710449219 81.58540344238281 28.65262603759766 83.70063781738281 C 33.82865142822266 85.88992309570312 39.32870864868164 86.99997711181641 44.99999618530273 86.99997711181641 C 50.67128372192383 86.99997711181641 56.17134094238281 85.88992309570312 61.34736633300781 83.70063781738281 C 66.34834289550781 81.58540344238281 70.84030914306641 78.55663299560547 74.69847869873047 74.69846343994141 C 78.55665588378906 70.84029388427734 81.58542633056641 66.34833526611328 83.70065307617188 61.34736633300781 C 85.88993835449219 56.17132186889648 87 50.67127990722656 87 44.99999237060547 C 87 39.32870483398438 85.88993835449219 33.82864761352539 83.70065307617188 28.65262222290039 C 81.58542633056641 23.65164947509766 78.55665588378906 19.15967559814453 74.69847869873047 15.30150604248047 C 70.84030914306641 11.44333648681641 66.34834289550781 8.414566040039062 61.34736633300781 6.299331665039062 C 56.17134094238281 4.11004638671875 50.67128372192383 2.999992370605469 44.99999618530273 2.999992370605469 M 44.99999618530273 -7.62939453125e-06 C 69.85281372070312 -7.62939453125e-06 90 20.14717864990234 90 44.99999237060547 C 90 69.85279083251953 69.85281372070312 89.99997711181641 44.99999618530273 89.99997711181641 C 20.14717864990234 89.99997711181641 -7.62939453125e-06 69.85279083251953 -7.62939453125e-06 44.99999237060547 C -7.62939453125e-06 20.14717864990234 20.14717864990234 -7.62939453125e-06 44.99999618530273 -7.62939453125e-06 Z" stroke="none" fill="#01899b"/>
                  </g>
                </g>
              </g>
            </g>
          </g>
        </g>
      </g>
    </g>
    <g id="Layer_9" data-name="Layer 9" transform="translate(646.81 5454.443)">
      <path id="Trazado_1042741" data-name="Trazado 1042741" d="M22,2H54.813V51.22H22Z" transform="translate(-3.773 -0.18)" fill="#e2e7f6"/>
      <path id="Trazado_1042742" data-name="Trazado 1042742" d="M22,2H51.532V47.938H22Z" transform="translate(-3.773 -0.18)" fill="#f2f2f2"/>
      <path id="Trazado_1042743" data-name="Trazado 1042743" d="M32,46h4.922v9.844H32Z" transform="translate(-5.57 -8.085)" fill="#5e87ca"/>
      <path id="Trazado_1042744" data-name="Trazado 1042744" d="M34.461,52.563V46H32v7.383h1.641A.82.82,0,0,0,34.461,52.563Z" transform="translate(-5.57 -8.085)" fill="#78a0d4"/>
      <path id="Trazado_1042745" data-name="Trazado 1042745" d="M52,34h4.922V53.688H52Z" transform="translate(-9.163 -5.929)" fill="#3b5892"/>
      <path id="Trazado_1042746" data-name="Trazado 1042746" d="M54.461,50.407V34H52V51.227h1.641A.82.82,0,0,0,54.461,50.407Z" transform="translate(-9.163 -5.929)" fill="#4c6cb5"/>
      <path id="Trazado_1042747" data-name="Trazado 1042747" d="M42,42h4.922V55.125H42Z" transform="translate(-7.367 -7.367)" fill="#4c6cb5"/>
      <path id="Trazado_1042748" data-name="Trazado 1042748" d="M44.461,51.844V42H42V52.664h1.641A.82.82,0,0,0,44.461,51.844Z" transform="translate(-7.367 -7.367)" fill="#5e87ca"/>
      <path id="Trazado_1042749" data-name="Trazado 1042749" d="M19.766,23.844,24.009,19.6a7.921,7.921,0,0,0,2.32-5.6H5a7.921,7.921,0,0,0,2.32,5.6l4.243,4.243Z" transform="translate(-0.719 -2.336)" fill="#f6b940"/>
      <path id="Trazado_1042750" data-name="Trazado 1042750" d="M19.227,26h-8.2L7.076,29.947A17.332,17.332,0,0,0,5.65,52.842a6.968,6.968,0,0,0,5.5,2.689H19.1a6.968,6.968,0,0,0,5.5-2.689,17.328,17.328,0,0,0-1.423-22.9Z" transform="translate(-0.18 -4.492)" fill="#f4a93c"/>
      <circle id="Elipse_12582" data-name="Elipse 12582" cx="9" cy="9" r="9" transform="translate(6 28.86)" fill="#f9d266"/>
      <path id="Trazado_1042751" data-name="Trazado 1042751" d="M23.406,43.2a9.008,9.008,0,0,0-4.19-7.611A9.015,9.015,0,0,0,11.19,51.635,9,9,0,0,0,23.406,43.2Z" transform="translate(-1.078 -6.109)" fill="#fce797"/>
      <path id="Trazado_1042752" data-name="Trazado 1042752" d="M20.563,42.922V42.1A2.461,2.461,0,0,0,18.1,39.641V38H16.461v1.641A2.461,2.461,0,0,0,14,42.1v.82a2.461,2.461,0,0,0,2.461,2.461v2.461a.82.82,0,0,1-.82-.82V46.2H14v.82a2.461,2.461,0,0,0,2.461,2.461v1.641H18.1V49.485a2.461,2.461,0,0,0,2.461-2.461V46.2A2.461,2.461,0,0,0,18.1,43.742V41.281a.82.82,0,0,1,.82.82v.82ZM18.922,46.2v.82a.82.82,0,0,1-.82.82V45.383A.82.82,0,0,1,18.922,46.2Zm-2.461-2.461a.82.82,0,0,1-.82-.82V42.1a.82.82,0,0,1,.82-.82Z" transform="translate(-2.336 -6.648)" fill="#f4a93c"/>
      <path id="Trazado_1042753" data-name="Trazado 1042753" d="M32,26.485l8.2-8.2,3.281,3.281,4.922-4.922L46.766,15h6.563v6.563l-1.641-1.641L44.3,27.3l-3.281-3.281-5.742,5.742Z" transform="translate(-5.57 -2.515)" fill="#6bc13b"/>
      <g id="Grupo_1201156" data-name="Grupo 1201156" transform="translate(20.688 4.281)">
        <path id="Trazado_1042754" data-name="Trazado 1042754" d="M25,5h9.844V6.641H25Z" transform="translate(-25 -5)" fill="#c8cded"/>
        <path id="Trazado_1042755" data-name="Trazado 1042755" d="M39,5h1.641V6.641H39Z" transform="translate(-27.515 -5)" fill="#c8cded"/>
        <path id="Trazado_1042756" data-name="Trazado 1042756" d="M25,9h9.844v1.641H25Z" transform="translate(-25 -5.719)" fill="#c8cded"/>
        <path id="Trazado_1042757" data-name="Trazado 1042757" d="M39,9h1.641v1.641H39Z" transform="translate(-27.515 -5.719)" fill="#c8cded"/>
      </g>
      <path id="Trazado_1042758" data-name="Trazado 1042758" d="M16.022,23.849A13.131,13.131,0,0,1,14.641,18H13a14.8,14.8,0,0,0,1.545,6.563h1.833Z" transform="translate(-2.156 -3.054)" fill="#f9d266"/>
      <path id="Trazado_1042759" data-name="Trazado 1042759" d="M18.882,24.563h1.833A14.8,14.8,0,0,0,22.26,18H20.619a13.131,13.131,0,0,1-1.381,5.849Z" transform="translate(-3.213 -3.054)" fill="#f9d266"/>
      <path id="Trazado_1042760" data-name="Trazado 1042760" d="M25.688,43.844a9.844,9.844,0,1,0-9.844,9.844,9.844,9.844,0,0,0,9.844-9.844Zm-9.844,8.2a8.2,8.2,0,1,1,8.2-8.2,8.2,8.2,0,0,1-8.2,8.2Z" transform="translate(-0.898 -5.929)"/>
      <path id="Trazado_1042761" data-name="Trazado 1042761" d="M18.1,39.641V38H16.461v1.641A2.461,2.461,0,0,0,14,42.1v.82a2.461,2.461,0,0,0,2.461,2.461v2.461a.82.82,0,0,1-.82-.82V46.2H14v.82a2.461,2.461,0,0,0,2.461,2.461v1.641H18.1V49.485a2.461,2.461,0,0,0,2.461-2.461V46.2A2.461,2.461,0,0,0,18.1,43.742V41.281a.82.82,0,0,1,.82.82v.82h1.641V42.1A2.461,2.461,0,0,0,18.1,39.641Zm.82,6.563v.82a.82.82,0,0,1-.82.82V45.383A.82.82,0,0,1,18.922,46.2Zm-2.461-2.461a.82.82,0,0,1-.82-.82V42.1a.82.82,0,0,1,.82-.82Z" transform="translate(-2.336 -6.648)"/>
      <path id="Trazado_1042762" data-name="Trazado 1042762" d="M51.04,1H18.227a.82.82,0,0,0-.82.82v9.024H4.281a.82.82,0,0,0-.82.82,8.682,8.682,0,0,0,2.561,6.182l3.662,3.662L6.317,24.876A18.033,18.033,0,0,0,1,37.711,18.236,18.236,0,0,0,4.824,48.854a7.733,7.733,0,0,0,6.146,3.006H51.04a.82.82,0,0,0,.82-.82V1.82A.82.82,0,0,0,51.04,1ZM7.182,16.686a7.049,7.049,0,0,1-2.034-4.2H24.743a7.049,7.049,0,0,1-2.034,4.2l-4,4h-.829a14.8,14.8,0,0,0,1.169-5.742H17.407a13.148,13.148,0,0,1-1.335,5.742H13.82a13.133,13.133,0,0,1-1.335-5.742H10.844a14.8,14.8,0,0,0,1.169,5.742h-.829ZM18.227,50.22H10.969a6.1,6.1,0,0,1-4.851-2.372A16.59,16.59,0,0,1,2.641,37.711a16.407,16.407,0,0,1,4.84-11.675l3.7-3.707h7.524l3.707,3.707A16.407,16.407,0,0,1,27.25,37.711a16.59,16.59,0,0,1-3.478,10.137,6.1,6.1,0,0,1-4.851,2.372ZM28.848,38.735h1.683v8.2H27.25V45.221a18.253,18.253,0,0,0,1.6-6.486ZM50.22,50.22H23.7a7.824,7.824,0,0,0,1.371-1.366c.211-.27.4-.553.595-.834a.813.813,0,0,0,.768.559h4.922a.82.82,0,0,0,.82-.82V37.915a.82.82,0,0,0-.82-.82H28.861a18.009,18.009,0,0,0-5.286-12.219l-3.367-3.367,3.662-3.662a8.682,8.682,0,0,0,2.561-6.182.82.82,0,0,0-.82-.82H19.047v-8.2H50.22Z" transform="translate(0)"/>
      <path id="Trazado_1042763" data-name="Trazado 1042763" d="M56.742,33H51.82a.82.82,0,0,0-.82.82V53.508a.82.82,0,0,0,.82.82h4.922a.82.82,0,0,0,.82-.82V33.82A.82.82,0,0,0,56.742,33Zm-.82,19.688H52.641V34.641h3.281Z" transform="translate(-8.984 -5.749)"/>
      <path id="Trazado_1042764" data-name="Trazado 1042764" d="M46.742,41H41.82a.82.82,0,0,0-.82.82V54.946a.82.82,0,0,0,.82.82h4.922a.82.82,0,0,0,.82-.82V41.82A.82.82,0,0,0,46.742,41Zm-.82,13.125H42.641V42.641h3.281Z" transform="translate(-7.187 -7.187)"/>
      <path id="Trazado_1042765" data-name="Trazado 1042765" d="M31.24,26.885l3.281,3.281a.82.82,0,0,0,1.16,0L40.844,25l2.7,2.7a.82.82,0,0,0,1.16,0l6.8-6.8,1.061,1.061a.82.82,0,0,0,1.4-.58V14.82a.82.82,0,0,0-.82-.82H46.586a.82.82,0,0,0-.58,1.4l1.061,1.061L43.3,20.223l-2.7-2.7a.82.82,0,0,0-1.16,0l-8.2,8.2a.82.82,0,0,0,0,1.16Zm8.783-7.623,2.7,2.7a.82.82,0,0,0,1.16,0l4.922-4.922a.82.82,0,0,0,0-1.16l-.24-.24h3.762V19.4l-.24-.24a.82.82,0,0,0-1.16,0l-6.8,6.8-2.7-2.7a.82.82,0,0,0-1.16,0L35.1,28.426,32.98,26.3Z" transform="translate(-5.39 -2.336)"/>
      <path id="Trazado_1042766" data-name="Trazado 1042766" d="M25,5h9.844V6.641H25Z" transform="translate(-4.312 -0.719)"/>
      <path id="Trazado_1042767" data-name="Trazado 1042767" d="M39,5h1.641V6.641H39Z" transform="translate(-6.828 -0.719)"/>
      <path id="Trazado_1042768" data-name="Trazado 1042768" d="M25,9h9.844v1.641H25Z" transform="translate(-4.312 -1.437)"/>
      <path id="Trazado_1042769" data-name="Trazado 1042769" d="M39,9h1.641v1.641H39Z" transform="translate(-6.828 -1.437)"/>
    </g>
  </g>
</svg>
