<svg xmlns="http://www.w3.org/2000/svg" xmlns:xlink="http://www.w3.org/1999/xlink" width="295" height="171" viewBox="0 0 295 171">
  <defs>
    <clipPath id="clip-path">
      <rect id="Rectángulo_416211" data-name="Rectángulo 416211" width="295" height="171" transform="translate(0 4)" fill="#fff" stroke="#707070" stroke-width="1"/>
    </clipPath>
  </defs>
  <g id="Enmascarar_grupo_1098875" data-name="Enmascarar grupo 1098875" transform="translate(0 -4)" clip-path="url(#clip-path)">
    <g id="caja" transform="translate(53.894 11.957)">
      <path id="Trazado_1042472" data-name="Trazado 1042472" d="M123.438,0C68.948,0,29.832,30.1,29.832,109.357s42.689,106.214,97.18,106.214,90.033-44.681,90.033-123.942S177.929,0,123.438,0Z" transform="translate(-29.832 0)" fill="#98cfd6"/>
      <path id="Trazado_1042473" data-name="Trazado 1042473" d="M188.931,271.313a58.541,58.541,0,0,1,11.552.84h20.156l.024.049c.4.778.826,1.52,1.257,2.235,2.87,4.763,6.214,8.023,8.543,8.389v7.6a27.279,27.279,0,0,1-15.441,4.769c-.581,0-1.151-.043-1.723-.078a27.413,27.413,0,0,1-22.093-13.742c-.685.033-1.38.058-2.086.071-10.452.2-18.968-1.915-19.02-4.715s8.379-5.227,18.831-5.422Z" transform="translate(-109.92 -161.809)" fill="#9e3b0a"/>
      <path id="Trazado_1042474" data-name="Trazado 1042474" d="M294.409,125.711H251.415v70.871h42.994Z" transform="translate(-212.516 -85.419)" fill="#f8b372"/>
      <path id="Trazado_1042475" data-name="Trazado 1042475" d="M173.179,125.711H102.308v70.871h70.871Z" transform="translate(-20.414 -85.419)" fill="#f8b372"/>
      <path id="Trazado_1042476" data-name="Trazado 1042476" d="M176.117,200.265H161.786V235.7h14.331Z" transform="translate(-51.623 -124.537)" fill="#facfb0"/>
      <path id="Trazado_1042477" data-name="Trazado 1042477" d="M288.786,263.225c1.839-.2,3.718-.391,5.622-.6v5.794H251.414v-4.288A218.42,218.42,0,0,0,288.786,263.225Z" transform="translate(-212.515 -157.259)" fill="#db8e53"/>
      <path id="Trazado_1042478" data-name="Trazado 1042478" d="M142.376,179.714c12.764-8.521,20.47-23.152,24.174-37.715a86.474,86.474,0,0,0,2.422-16.287h4.207v70.871H102.308V190.79C116,189.318,131.017,187.3,142.376,179.714Z" transform="translate(-20.414 -85.42)" fill="#db8e53"/>
      <path id="Trazado_1042479" data-name="Trazado 1042479" d="M166.581,210.405a43.834,43.834,0,0,1-4.8,2.449V200.266h14.331v1.74A36.038,36.038,0,0,1,166.581,210.405Z" transform="translate(-51.622 -124.538)" fill="#facfb0"/>
      <path id="Trazado_1042480" data-name="Trazado 1042480" d="M173.584,237.309c.869-.58,1.71-1.194,2.533-1.829v18.7H161.785V243A51.291,51.291,0,0,0,173.584,237.309Z" transform="translate(-51.622 -143.014)" fill="#f2b78f"/>
      <path id="Trazado_1042481" data-name="Trazado 1042481" d="M251.372,125.277v70.871a.408.408,0,0,1-.815,0V125.277a.408.408,0,0,1,.815,0Z" transform="translate(-169.071 -84.985)" fill="#010735"/>
      <path id="Trazado_1042482" data-name="Trazado 1042482" d="M300.155,87.273a.973.973,0,0,1,.83.89c.25,3.572.989,6.162,1.863,6.162s1.614-2.59,1.863-6.162a.975.975,0,0,1,.83-.89c2.078-.316,3.513-.984,3.513-1.759s-1.435-1.444-3.513-1.759a.974.974,0,0,1-.83-.89c-.25-3.572-.989-6.162-1.863-6.162s-1.614,2.59-1.863,6.162a.972.972,0,0,1-.83.89c-2.079.316-3.513.984-3.513,1.759s1.435,1.444,3.513,1.759Z" transform="translate(-248.659 -59.705)" fill="#fff"/>
      <path id="Trazado_1042483" data-name="Trazado 1042483" d="M324.22,122.373a1.566,1.566,0,0,1,1.336,1.432c.4,5.749,1.592,9.92,3,9.92s2.6-4.17,3-9.92a1.566,1.566,0,0,1,1.336-1.432c3.347-.508,5.657-1.585,5.657-2.832s-2.31-2.324-5.657-2.832a1.566,1.566,0,0,1-1.336-1.432c-.4-5.75-1.592-9.92-3-9.92s-2.6,4.17-3,9.92a1.565,1.565,0,0,1-1.336,1.432c-3.346.508-5.657,1.585-5.657,2.832S320.873,121.864,324.22,122.373Z" transform="translate(-288.569 -74.739)" fill="#fff"/>
      <path id="Trazado_1042484" data-name="Trazado 1042484" d="M103.944,284.624v-7.6a2.154,2.154,0,0,0,1.349-.164c2.484-1.291,1.521-8.068-2.153-15.136-.264-.509-.538-1-.814-1.484h0l41.219,62.687a76.869,76.869,0,0,1-48.508,28.2l-5.005-34.838L86.78,289.315c.572.036,1.142.078,1.723.078A27.279,27.279,0,0,0,103.944,284.624Z" transform="translate(16.599 -156.004)" fill="#9e3b0a"/>
      <path id="Trazado_1042485" data-name="Trazado 1042485" d="M165.738,241.119c2.305-1.2,6.769,2.753,10.335,8.976.277.483.549.975.814,1.484,3.673,7.068,4.637,13.845,2.153,15.136a2.158,2.158,0,0,1-1.349.164c-2.329-.366-5.673-3.627-8.543-8.389-.431-.715-.853-1.458-1.257-2.235l-.024-.049c-3.652-7.051-4.607-13.8-2.128-15.087Z" transform="translate(-57.148 -145.861)" fill="#9e3b0a"/>
      <path id="Trazado_1042486" data-name="Trazado 1042486" d="M186.185,245.794a21.551,21.551,0,0,1-3.454.956c-.416-2.8-.062-4.984,1.2-5.639,1.439-.748,3.651.439,6.028,3,0,0-2.219,1.114-3.771,1.681Z" transform="translate(-75.338 -145.853)" fill="#c1571d"/>
      <g id="Grupo_1200950" data-name="Grupo 1200950" transform="translate(60.38 98.455)">
        <path id="Trazado_1042487" data-name="Trazado 1042487" d="M189.753,248.473a3.647,3.647,0,0,1-1.263,2.964,3.7,3.7,0,0,1-3.235.744c-.509-.125-.294-.911.216-.786a2.834,2.834,0,0,0,2.49-.575,2.877,2.877,0,0,0,.978-2.348c-.03-.524.785-.522.815,0Z" transform="translate(-136.661 -248.082)" fill="#010735"/>
        <path id="Trazado_1042488" data-name="Trazado 1042488" d="M289.4,284.078a4.119,4.119,0,0,0-4.612-1.61.408.408,0,0,1-.217-.786,4.953,4.953,0,0,1,5.532,1.985c.295.435-.411.844-.7.411Z" transform="translate(-284.289 -265.601)" fill="#010735"/>
      </g>
    </g>
  </g>
</svg>
