<svg xmlns="http://www.w3.org/2000/svg" xmlns:xlink="http://www.w3.org/1999/xlink" width="93.934" height="93.934" viewBox="0 0 93.934 93.934">
  <defs>
    <filter id="Trazado_982547" x="0" y="0" width="93.934" height="93.934" filterUnits="userSpaceOnUse">
      <feOffset dy="3" input="SourceAlpha"/>
      <feGaussianBlur stdDeviation="3" result="blur"/>
      <feFlood flood-opacity="0.161"/>
      <feComposite operator="in" in2="blur"/>
      <feComposite in="SourceGraphic"/>
    </filter>
  </defs>
  <g id="Grupo_1200953" data-name="Grupo 1200953" transform="translate(-189 -968.966)">
    <g id="Grupo_1184797" data-name="Grupo 1184797" transform="translate(0 233.966)">
      <g id="Grupo_1175133" data-name="Grupo 1175133" transform="translate(-0.033 -1251)">
        <g id="Grupo_1167337" data-name="Grupo 1167337" transform="translate(198.033 1992)">
          <g id="Grupo_1166720" data-name="Grupo 1166720">
            <g id="Grupo_1164305" data-name="Grupo 1164305">
              <g id="Grupo_1163948" data-name="Grupo 1163948">
                <g id="Grupo_1158168" data-name="Grupo 1158168">
                  <g id="Grupo_1152576" data-name="Grupo 1152576">
                    <g id="Grupo_1148633" data-name="Grupo 1148633">
                      <g id="Grupo_1148525" data-name="Grupo 1148525">
                        <g transform="matrix(1, 0, 0, 1, -9, -6)" filter="url(#Trazado_982547)">
                          <g id="Trazado_982547-2" data-name="Trazado 982547" transform="translate(9 6)" fill="#e8edf7">
                            <path d="M 37.966796875 74.43359375 C 33.04315185546875 74.43359375 28.26757431030273 73.46962738037109 23.77274131774902 71.56847381591797 C 19.43047523498535 69.73184967041016 15.53040790557861 67.10224914550781 12.18087482452393 63.75271987915039 C 8.831341743469238 60.4031867980957 6.201741218566895 56.50312042236328 4.365118980407715 52.16086196899414 C 2.463963508605957 47.66601943969727 1.499996900558472 42.89044189453125 1.499996900558472 37.966796875 C 1.499996900558472 33.04315185546875 2.463963508605957 28.26757431030273 4.365118980407715 23.77274131774902 C 6.201741218566895 19.43047523498535 8.831341743469238 15.53040790557861 12.18087482452393 12.18087482452393 C 15.53040790557861 8.831341743469238 19.43047523498535 6.201741218566895 23.77274131774902 4.365118980407715 C 28.26757431030273 2.463963508605957 33.04315185546875 1.499996900558472 37.966796875 1.499996900558472 C 42.89044189453125 1.499996900558472 47.66601943969727 2.463963508605957 52.16086196899414 4.365118980407715 C 56.50312042236328 6.201741218566895 60.4031867980957 8.831341743469238 63.75271987915039 12.18087482452393 C 67.10224914550781 15.53040790557861 69.73184967041016 19.43047523498535 71.56847381591797 23.77274131774902 C 73.46962738037109 28.26757431030273 74.43359375 33.04315185546875 74.43359375 37.966796875 C 74.43359375 42.89044189453125 73.46962738037109 47.66601943969727 71.56847381591797 52.16086196899414 C 69.73184967041016 56.50313186645508 67.10224914550781 60.4031867980957 63.75271987915039 63.75271987915039 C 60.4031867980957 67.10224914550781 56.50313186645508 69.73184967041016 52.16086196899414 71.56847381591797 C 47.66601943969727 73.46962738037109 42.89044189453125 74.43359375 37.966796875 74.43359375 Z" stroke="none"/>
                            <path d="M 37.966796875 3 C 33.2449836730957 3 28.66600799560547 3.924095153808594 24.35705947875977 5.746635437011719 C 20.19359588623047 7.507637023925781 16.45379638671875 10.02928161621094 13.24153518676758 13.24153518676758 C 10.02927398681641 16.45379638671875 7.507621765136719 20.19359588623047 5.746635437011719 24.35705947875977 C 3.924095153808594 28.66600799560547 3 33.2449836730957 3 37.966796875 C 3 42.6886100769043 3.924095153808594 47.26758575439453 5.746635437011719 51.57653427124023 C 7.507621765136719 55.73999786376953 10.02927398681641 59.47979736328125 13.24153518676758 62.69205856323242 C 16.45379638671875 65.90431976318359 20.19359588623047 68.42597198486328 24.35705947875977 70.18695831298828 C 28.66600799560547 72.00949859619141 33.2449836730957 72.93359375 37.966796875 72.93359375 C 42.6886100769043 72.93359375 47.26758575439453 72.00949859619141 51.57653427124023 70.18695831298828 C 55.73999786376953 68.42597198486328 59.47979736328125 65.90431976318359 62.69205856323242 62.69205856323242 C 65.90431976318359 59.47979736328125 68.42597198486328 55.73999786376953 70.18695831298828 51.57653427124023 C 72.00949859619141 47.26758575439453 72.93359375 42.6886100769043 72.93359375 37.966796875 C 72.93359375 33.2449836730957 72.00949859619141 28.66600799560547 70.18695831298828 24.35705947875977 C 68.42597198486328 20.19359588623047 65.90431976318359 16.45379638671875 62.69205856323242 13.24153518676758 C 59.47979736328125 10.02928161621094 55.73999786376953 7.507637023925781 51.57653427124023 5.746635437011719 C 47.26758575439453 3.924095153808594 42.6886100769043 3 37.966796875 3 M 37.966796875 0 C 58.93528366088867 0 75.93359375 16.99832153320312 75.93359375 37.966796875 C 75.93359375 58.93528366088867 58.93528366088867 75.93359375 37.966796875 75.93359375 C 16.99831008911133 75.93359375 0 58.93528366088867 0 37.966796875 C 0 16.99832153320312 16.99831008911133 0 37.966796875 0 Z" stroke="none" fill="#2e5bb6"/>
                          </g>
                        </g>
                      </g>
                    </g>
                  </g>
                </g>
              </g>
            </g>
          </g>
        </g>
      </g>
    </g>
    <g id="FilledOutline" transform="translate(197.979 989.846)">
      <path id="Trazado_1042489" data-name="Trazado 1042489" d="M106.335,238.057v-3.194l-2.86-1.017-.963-2.325,1.3-2.742-2.259-2.259-2.742,1.3-2.325-.963L95.473,224H92.279l-1.017,2.86-2.325.963-2.742-1.3-2.258,2.259,1.3,2.742-.963,2.325-2.86,1.017v3.194l2.86,1.017.963,2.325-1.3,2.743,2.259,2.259,2.742-1.3,2.325.963,1.018,2.86h3.194l1.017-2.86,2.325-.963,2.742,1.3,2.259-2.259-1.3-2.742.963-2.325Zm-12.46,4.266a5.863,5.863,0,1,1,5.863-5.863A5.863,5.863,0,0,1,93.876,242.323Z" transform="translate(-59.423 -203.478)" fill="#ef5249"/>
      <path id="Trazado_1042490" data-name="Trazado 1042490" d="M240.919,46.057V42.863l-2.86-1.017-.963-2.325,1.3-2.742-2.259-2.259-2.742,1.3-2.325-.963L230.057,32h-3.194l-1.017,2.86-2.325.963-2.742-1.3-2.259,2.259,1.3,2.742-.963,2.325-1.282.941c0,1.6-1.578,1.675-1.578,3.271l2.86,1.017.963,2.325-1.3,2.742,2.259,2.259,2.742-1.3,2.325.963,1.017,2.86h3.194l1.017-2.86L233.4,53.1l2.742,1.3,2.259-2.259L237.1,49.4l.963-2.325Zm-12.46,4.266a5.863,5.863,0,1,1,5.863-5.863A5.863,5.863,0,0,1,228.46,50.323Z" transform="translate(-181.677 -29.068)" fill="#88bf40"/>
      <path id="Trazado_1042491" data-name="Trazado 1042491" d="M48.919,22.057V18.863l-2.86-1.017L45.1,15.521l1.3-2.742L44.141,10.52l-2.742,1.3-2.325-.963L38.057,8H34.863l-1.017,2.86-2.325.963-2.742-1.3L26.52,12.779l1.3,2.742-.963,2.325L24,18.863v3.194l2.86,1.017.963,2.325-1.3,2.742L28.779,30.4l2.742-1.3,2.325.963,1.017,2.86h3.194l1.017-2.86L41.4,29.1l2.742,1.3L46.4,28.141,45.1,25.4l.963-2.325ZM36.46,26.323a5.863,5.863,0,1,1,5.863-5.863A5.863,5.863,0,0,1,36.46,26.323Z" transform="translate(-7.267 -7.267)" fill="#ffc119"/>
      <path id="Trazado_1042492" data-name="Trazado 1042492" d="M332.4,274.323v-4.4l-3.942-3.942a1.555,1.555,0,0,1,2.2-2.2l1.743,1.743v-8.062a1.466,1.466,0,1,1,2.932,0v3.665h3.183a4.146,4.146,0,0,1,2.932,7.078l-1.717,1.717v4.4Z" transform="translate(-283.416 -232.546)" fill="#f5be9a"/>
      <path id="Trazado_1042493" data-name="Trazado 1042493" d="M360,432h10.261v6.6H360Z" transform="translate(-312.484 -392.422)" fill="#0093ba"/>
      <path id="Trazado_1042494" data-name="Trazado 1042494" d="M21.827,23.794l2.448-1.164L26,23.345l.908,2.554a.733.733,0,0,0,.69.487H30.79a.733.733,0,0,0,.69-.487l.908-2.554,1.723-.714,2.448,1.164a.733.733,0,0,0,.833-.144l2.259-2.258a.733.733,0,0,0,.144-.833l-1.164-2.448.714-1.723,2.554-.908a.733.733,0,0,0,.487-.691V11.6a.733.733,0,0,0-.487-.69L39.345,10l-.714-1.723,1.164-2.448a.733.733,0,0,0-.144-.833L37.392,2.735a.733.733,0,0,0-.833-.144L34.112,3.755l-1.723-.714L31.48.487A.733.733,0,0,0,30.79,0H27.6a.733.733,0,0,0-.69.487L26,3.041l-1.723.714L21.827,2.591a.733.733,0,0,0-.834.144L18.735,4.993a.733.733,0,0,0-.144.834l1.164,2.448L19.041,10l-2.554.908A.733.733,0,0,0,16,11.6V14.79a.733.733,0,0,0,.487.69l2.554.908.714,1.723-1.164,2.448a.733.733,0,0,0,.144.833l2.258,2.258a.733.733,0,0,0,.834.144Zm-.593-5.943-.963-2.325a.732.732,0,0,0-.432-.41l-2.373-.844v-2.16l2.373-.844a.732.732,0,0,0,.432-.41l.963-2.325a.733.733,0,0,0-.015-.6L20.137,5.664l1.527-1.527,2.275,1.081a.732.732,0,0,0,.6.015l2.325-.963a.732.732,0,0,0,.41-.431l.844-2.373h2.16l.844,2.373a.732.732,0,0,0,.41.432l2.325.963a.732.732,0,0,0,.6-.015l2.275-1.081,1.527,1.527L37.168,7.939a.733.733,0,0,0-.015.6l.963,2.325a.732.732,0,0,0,.431.409l2.373.844v2.16l-2.373.844a.732.732,0,0,0-.432.41l-.963,2.325a.733.733,0,0,0,.015.6l1.081,2.275-1.527,1.527-2.275-1.081a.732.732,0,0,0-.6-.015l-2.325.963a.732.732,0,0,0-.409.431l-.844,2.373h-2.16l-.844-2.373a.732.732,0,0,0-.41-.432l-2.325-.963a.732.732,0,0,0-.6.015l-2.275,1.081-1.527-1.527,1.081-2.275a.733.733,0,0,0,.015-.6Z"/>
      <path id="Trazado_1042495" data-name="Trazado 1042495" d="M94.6,85.193A6.6,6.6,0,1,0,88,78.6,6.6,6.6,0,0,0,94.6,85.193Zm0-11.727a5.13,5.13,0,1,1-5.13,5.13A5.13,5.13,0,0,1,94.6,73.466Z" transform="translate(-65.404 -65.404)"/>
      <path id="Trazado_1042496" data-name="Trazado 1042496" d="M95.534,283.052l-.963,2.325a.733.733,0,0,0,.015.6l1.081,2.275-1.527,1.527-2.275-1.081a.733.733,0,0,0-.6-.015l-2.324.962a.733.733,0,0,0-.41.432l-.844,2.373H85.532l-.844-2.373a.732.732,0,0,0-.41-.432l-2.325-.963a.732.732,0,0,0-.6.015l-2.275,1.081-1.527-1.527,1.081-2.275a.733.733,0,0,0,.015-.6l-.963-2.325a.733.733,0,0,0-.431-.409l-2.373-.844v-2.16l2.373-.844a.733.733,0,0,0,.432-.41l.963-2.325a.733.733,0,0,0-.015-.6l-1.3-2.742-1.324.63,1.164,2.448-.714,1.723-2.554.908a.733.733,0,0,0-.487.691v3.194a.733.733,0,0,0,.487.691l2.553.908.714,1.723-1.164,2.448a.733.733,0,0,0,.144.833l2.258,2.258a.733.733,0,0,0,.833.144l2.448-1.164,1.722.714.908,2.553a.733.733,0,0,0,.691.487h3.194a.733.733,0,0,0,.691-.487l.908-2.553,1.723-.714,2.448,1.164a.733.733,0,0,0,.833-.144l2.259-2.258a.733.733,0,0,0,.144-.833l-1.164-2.448.838-2.024Z" transform="translate(-52.159 -247.736)"/>
      <path id="Trazado_1042497" data-name="Trazado 1042497" d="M273.726,245.979l-2.259-2.258a.733.733,0,0,0-.833-.144l-2.742,1.3.629,1.324,2.275-1.081,1.527,1.527-1.081,2.275a.733.733,0,0,0-.015.6l.832,2.007,1.354-.561-.707-1.706,1.164-2.448A.733.733,0,0,0,273.726,245.979Z" transform="translate(-228.816 -221.197)"/>
      <path id="Trazado_1042498" data-name="Trazado 1042498" d="M152.012,301.193a6.6,6.6,0,1,0-6.6-6.6A6.6,6.6,0,0,0,152.012,301.193Zm0-11.727a5.13,5.13,0,1,1-5.13,5.13A5.13,5.13,0,0,1,152.012,289.466Z" transform="translate(-117.559 -261.615)"/>
      <path id="Trazado_1042499" data-name="Trazado 1042499" d="M312.952,34.905,310.4,34l-.714-1.723,1.164-2.448a.733.733,0,0,0-.144-.833l-2.258-2.258a.733.733,0,0,0-.833-.144l-2.448,1.164-1.723-.714-.908-2.554a.733.733,0,0,0-.691-.487h-3.194a.733.733,0,0,0-.691.487l-.908,2.553-2.024.838.561,1.354,2.325-.963a.733.733,0,0,0,.41-.432l.844-2.373h2.16l.844,2.373a.732.732,0,0,0,.41.432l2.325.963a.733.733,0,0,0,.6-.015l2.275-1.081,1.527,1.527-1.081,2.275a.733.733,0,0,0-.015.6l.963,2.325a.733.733,0,0,0,.431.409l2.373.844v2.16l-2.373.844a.733.733,0,0,0-.432.41l-.963,2.325a.733.733,0,0,0,.015.6l1.081,2.275-1.893,1.893,1.037,1.036,2.258-2.258a.733.733,0,0,0,.144-.833l-1.164-2.448.714-1.723,2.554-.908a.733.733,0,0,0,.487-.691V35.6a.733.733,0,0,0-.487-.69Z" transform="translate(-253.464 -21.801)"/>
      <path id="Trazado_1042500" data-name="Trazado 1042500" d="M291.353,107.724a5.111,5.111,0,0,1-4.758-3.207l-1.359.55a6.6,6.6,0,1,0,2.818-8.187l.734,1.269a5.13,5.13,0,1,1,2.565,9.575Z" transform="translate(-244.57 -87.202)"/>
      <path id="Trazado_1042501" data-name="Trazado 1042501" d="M331.244,253.13h-2.45V250.2a2.2,2.2,0,1,0-4.4,0v6.293L323.9,256a2.288,2.288,0,1,0-3.235,3.235l3.728,3.727v1.162h-.733a.733.733,0,0,0-.733.733v6.6H324.4V265.59h8.8v5.863h1.466v-6.6a.733.733,0,0,0-.733-.733h-.733v-1.162l1.5-1.5a4.879,4.879,0,0,0-3.45-8.329Zm2.413,7.293-1.717,1.717a.733.733,0,0,0-.215.518v1.466h-5.863v-1.466a.733.733,0,0,0-.215-.518l-3.942-3.942a.822.822,0,1,1,1.162-1.162l1.743,1.743a.733.733,0,0,0,1.251-.518V250.2a.733.733,0,1,1,1.466,0v3.665a.733.733,0,0,0,.733.733h3.183a3.413,3.413,0,0,1,2.413,5.827Z" transform="translate(-276.148 -225.279)"/>
      <path id="Trazado_1042502" data-name="Trazado 1042502" d="M432,456h1.466v1.466H432Z" transform="translate(-377.888 -414.223)"/>
    </g>
  </g>
</svg>
