<svg xmlns="http://www.w3.org/2000/svg" xmlns:xlink="http://www.w3.org/1999/xlink" width="295" height="262" viewBox="0 0 295 262">
  <defs>
    <clipPath id="clip-path">
      <rect id="Rectángulo_416210" data-name="Rectángulo 416210" width="295" height="262" transform="translate(180.24 251)" fill="#fff" stroke="#707070" stroke-width="1" opacity="0.78"/>
    </clipPath>
  </defs>
  <g id="Enmascarar_grupo_1098874" data-name="Enmascarar grupo 1098874" transform="translate(-180.24 -251)" clip-path="url(#clip-path)">
    <g id="_33941732_girl_idea" data-name="33941732_girl_idea" transform="translate(183 259.843)">
      <g id="Grupo_1200944" data-name="Grupo 1200944" transform="translate(0 37.324)">
        <path id="Trazado_1042418" data-name="Trazado 1042418" d="M608.979,794.034c15.495,82.812,153.744,91.345,205,43.257,12.5-11.724,27.775-28.013,25.488-46.167-2.479-19.676-4.415-50.1,3.366-75.021,5.064-16.22,21.094-23.611,25.007-37.03,4.276-14.663-4.451-34.876-16.041-44.614-46.184-38.8-141.35-44.337-188.683-23.482C600.03,638.774,595.515,722.077,608.979,794.034Z" transform="translate(-591.015 -598.933)" fill="#e4f2f4" opacity="0.27"/>
        <g id="Grupo_1200943" data-name="Grupo 1200943" transform="translate(0 0)">
          <g id="Grupo_1200942" data-name="Grupo 1200942">
            <g id="Grupo_1200941" data-name="Grupo 1200941">
              <path id="Trazado_1042419" data-name="Trazado 1042419" d="M538.065,813.556c-107.955-124.683-1.942-240.8,53.188-210.487,63.447,34.883,119.764-22.093,157.766,12.137,45.186,40.7,37.273,113,2.533,161.554C715.009,827.828,589.834,873.346,538.065,813.556Z" transform="translate(-491.461 -598.197)" fill="none" stroke="#e4f2f4" stroke-linecap="round" stroke-miterlimit="10" stroke-width="1" stroke-dasharray="20 20"/>
              <path id="Trazado_1042420" data-name="Trazado 1042420" d="M3201.068,2305.28q.142.467.286.936" transform="translate(-3171.919 -2141.857)" fill="none" stroke="#c7dbe5" stroke-linecap="round" stroke-miterlimit="10" stroke-width="1"/>
            </g>
          </g>
        </g>
      </g>
      <g id="Grupo_1200947" data-name="Grupo 1200947" transform="translate(30.48 28.44)">
        <path id="Trazado_1042421" data-name="Trazado 1042421" d="M1511.09,1714.484s2.365,15.587-15.308,26.228c0,0-2.863-6.161,0-17.237S1511.09,1714.484,1511.09,1714.484Z" transform="translate(-1348.868 -1598.594)" fill="#847321"/>
        <path id="Trazado_1042422" data-name="Trazado 1042422" d="M1561.33,2889.742c1.873,10.522,3.472,17.924,3.472,17.924h43.747l3.557-55.088,5.4,55.088h39.08c4.152-40.144,2.19-71.711-.075-90.672a196.858,196.858,0,0,0-3.213-19.925s-83.263-7.654-87.183-4.108-9.138,18.456-10.455,40.511C1554.75,2848.784,1558.378,2873.145,1561.33,2889.742Z" transform="translate(-1502.53 -2573.12)" fill="#454560"/>
        <path id="Trazado_1042423" data-name="Trazado 1042423" d="M1587.473,2889.737c.343.44.528.67.528.67s-3.767-51.9,20.129-65.714c26.1-15.09,74.527-7.705,74.527-7.705a196.889,196.889,0,0,0-3.213-19.925s-83.262-7.654-87.183-4.107-9.138,18.456-10.455,40.511C1580.893,2848.779,1584.521,2873.14,1587.473,2889.737Z" transform="translate(-1528.674 -2573.115)" fill="#564339" opacity="0.2"/>
        <path id="Trazado_1042424" data-name="Trazado 1042424" d="M1064.389,969.779s.195-5.522,0-8.09c-.28-3.692-.3-10.571-1.836-10.869-1.327-.258-3.68,2.033-3.2,13.2.065,1.536.093,4.388.093,4.388Z" transform="translate(-860.484 -908.161)" fill="#fdc39d"/>
        <path id="Trazado_1042425" data-name="Trazado 1042425" d="M1042.779,1131.729s.875-9.7-1.459-11.135-11.077-3.174-12.85-1.214-6.161,7.188-3.08,8.774S1042.779,1131.729,1042.779,1131.729Z" transform="translate(-835.6 -1059.811)" fill="#fdc39d"/>
        <path id="Trazado_1042426" data-name="Trazado 1042426" d="M1674.225,509.3c1.172-1.011,18.836-.086,21.031,20.26,2.158,20.008.5,22.688,6.729,32.253s20.875,31.769,3.348,53.58-77.568,18.667-91.2,9.419-12.011-26.628-12.011-26.628-12.958-7.372,3.593-28.539,17.236-12.448,22.274-32.2C1635.768,506.938,1660.287,499.844,1674.225,509.3Z" transform="translate(-1561.165 -505.396)" fill="#ba4708"/>
        <path id="Trazado_1042427" data-name="Trazado 1042427" d="M1043.519,1237.143s-12.772-21.7-18.707-25.223-15.8,14.427-12.177,20.758,23.23,35.455,29.764,37.508,12.695,6.161,17.362-4.854,4.48-62.354,4.107-64.407-.963-10.455.172-11.575,12.336-11.948,9.536-20.722-5.414-12.695-9.708-12.695-9.894,4.667-10.455,8.774-5.227,17.14-3.92,21.265.56,23.167-1.12,32.315S1043.333,1235.837,1043.519,1237.143Z" transform="translate(-865.491 -1093.657)" fill="#fdc39d"/>
        <path id="Trazado_1042428" data-name="Trazado 1042428" d="M1784.155,885.427s-.282,14.456,7.224,24.768c7.59,10.428,11.682,29.343-3.585,38.268s-43.975,5.121-58.114-5.181c-5.072-3.7-28.026-24.9,7.143-51.676S1784.155,885.427,1784.155,885.427Z" transform="translate(-1657.192 -842.205)" fill="#ba4708" opacity="0.3"/>
        <path id="Trazado_1042429" data-name="Trazado 1042429" d="M1495.613,1501.624s18.918,8.2,19.665,25.463l7.716-4.644a108.727,108.727,0,0,1,10.722,22.758c2.253,6.964,3.668,14.587,2.6,21.425a165.963,165.963,0,0,1-10.083,35.5s56.382,18.568,94.839,1.8c0,0-1.821-5.186-4.1-12.432-4.029-12.808-9.489-32.053-8.849-40.458,1-13.16,3.989-21.375,2.495-33.323l2.116,1.805s-.747-14.06,15.309-26.228c0,0-14.021-23.3-39.743-20.968s-43.818-2.606-43.818-2.606-16.005,3.576-23.224,8.113S1495.613,1501.624,1495.613,1501.624Z" transform="translate(-1465.815 -1377.401)" fill="#a09032"/>
        <path id="Trazado_1042430" data-name="Trazado 1042430" d="M1917.2,1269.527c-17.827,7.416-35.264-9.42-36.066-32.67a21.353,21.353,0,0,0,13.308-13.6,30.835,30.835,0,0,0,1.523-11.054l20.282,5.01A29.767,29.767,0,0,0,1915.1,1229c.659,4.664,3.121,9.217,9.852,10.467C1924.955,1239.464,1935.029,1262.112,1917.2,1269.527Z" transform="translate(-1802.477 -1144.541)" fill="#fdc39d"/>
        <path id="Trazado_1042431" data-name="Trazado 1042431" d="M2022.347,1229c-7.764,2.475-16.839-1.9-20.659-5.738a30.837,30.837,0,0,0,1.523-11.054l20.282,5.01A29.761,29.761,0,0,0,2022.347,1229Z" transform="translate(-1909.72 -1144.545)" fill="#fdc39d" opacity="0.3"/>
        <path id="Trazado_1042432" data-name="Trazado 1042432" d="M1853.632,671.027c1.4,9.609,11.714,24.74,25.9,24.74,4.739,0,12.951-6.173,16.539-13.18a33.178,33.178,0,0,0,2.8-7.519c.162-.7.292-1.389.389-2.061,2.038-13.275,4.848-39.76-19.52-42.51C1865.008,630.822,1850.1,641.087,1853.632,671.027Z" transform="translate(-1772.546 -618.52)" fill="#fdc39d"/>
        <path id="Trazado_1042433" data-name="Trazado 1042433" d="M2019.874,966.671s1.955,9.4,1.689,10.209-5.375.981-5.375.981" transform="translate(-1909.203 -922.512)" fill="none" stroke="#d17c5a" stroke-linecap="round" stroke-miterlimit="10" stroke-width="1"/>
        <g id="Grupo_1200945" data-name="Grupo 1200945" transform="translate(89.28 36.553)">
          <path id="Trazado_1042434" data-name="Trazado 1042434" d="M2184.037,890.369c.989-2.132,3.682-3.857,6.019-2.844a3.075,3.075,0,0,1,.678.41c.066.057.134.11.2.169a.365.365,0,0,1,.017.516c-.155.174-.383.1-.576.07-.133-.029-.282-.043-.415-.065a4.476,4.476,0,0,0-1.721.137,11.569,11.569,0,0,0-3.269,1.79c-.116.08-.29.206-.409.276a.365.365,0,0,1-.521-.457Z" transform="translate(-2184.006 -887.227)" fill="#834219"/>
        </g>
        <g id="Grupo_1200946" data-name="Grupo 1200946" transform="translate(116.972 35.501)">
          <path id="Trazado_1042435" data-name="Trazado 1042435" d="M1912.526,876.508a4.016,4.016,0,0,1,3.332.2,2.82,2.82,0,0,1,1.753,2.949.382.382,0,0,1-.707.063,4.739,4.739,0,0,0-.825-.9,6.333,6.333,0,0,0-2.135-1.248,11.235,11.235,0,0,0-1.35-.359.372.372,0,0,1-.068-.7Z" transform="translate(-1912.309 -876.234)" fill="#834219"/>
        </g>
        <path id="Trazado_1042436" data-name="Trazado 1042436" d="M2186.381,978.744c1.727-.074,1.831,4.121.178,4.191S2184.653,978.818,2186.381,978.744Z" transform="translate(-2091.533 -933.429)"/>
        <path id="Trazado_1042437" data-name="Trazado 1042437" d="M1939.721,968.233c1.727-.074,1.831,4.121.179,4.191S1937.994,968.307,1939.721,968.233Z" transform="translate(-1821.26 -923.924)"/>
        <path id="Trazado_1042438" data-name="Trazado 1042438" d="M2331.439,959.875c-3.079-3.981-7.2-4.107-8.419.158s2.212,9.535,8.88,10.655Z" transform="translate(-2248.865 -913.643)" fill="#fdc39d"/>
        <path id="Trazado_1042439" data-name="Trazado 1042439" d="M1846.221,628.5s18.015-15.065,31.164-24.8c0,0,11.733,10.994,16.98,20.749,0,0,2.935-27.165-18.246-31.378S1838.5,613.311,1846.221,628.5Z" transform="translate(-1765.661 -584.238)" fill="#ba4708"/>
        <path id="Trazado_1042440" data-name="Trazado 1042440" d="M2005.4,565.533c1.467.3.241,12.576-1.2,12.336S2003.576,565.159,2005.4,565.533Z" transform="translate(-1892.456 -559.769)" fill="#ba4708" opacity="0.3"/>
        <path id="Trazado_1042441" data-name="Trazado 1042441" d="M1844.308,708.628s3.35,10.428,17.115,17.893" transform="translate(-1732.583 -689.172)" fill="none" stroke="#ba4708" stroke-linecap="round" stroke-miterlimit="10" stroke-width="1"/>
        <path id="Trazado_1042442" data-name="Trazado 1042442" d="M2190.684,1098.3c-.814,3.918-9.55,2.327-9.05-2.975S2191.813,1092.866,2190.684,1098.3Z" transform="translate(-2094.227 -1036.298)" fill="#f87230" opacity="0.3"/>
        <path id="Trazado_1042443" data-name="Trazado 1042443" d="M1870.716,1098.3c.381,1.836,2.5,2.463,4.6,2.063a33.191,33.191,0,0,0,2.8-7.519C1875.259,1091.53,1869.856,1094.165,1870.716,1098.3Z" transform="translate(-1751.788 -1036.3)" fill="#f87230" opacity="0.3"/>
        <path id="Trazado_1042444" data-name="Trazado 1042444" d="M1591.832,952.4c1.769,8.044,24.192,30.785,16.155,43.423" transform="translate(-1456.71 -909.609)" fill="none" stroke="#ba4708" stroke-linecap="round" stroke-miterlimit="10" stroke-width="1"/>
        <path id="Trazado_1042445" data-name="Trazado 1042445" d="M2340.891,1017.035s-4.434-1.749-5.261-5.008" transform="translate(-2259.086 -963.526)" fill="none" stroke="#d17c5a" stroke-linecap="round" stroke-miterlimit="10" stroke-width="1"/>
        <path id="Trazado_1042446" data-name="Trazado 1042446" d="M2004.344,1141.64a43.472,43.472,0,0,1-12.754,0,6.4,6.4,0,0,0,6.377,4.477A6.93,6.93,0,0,0,2004.344,1141.64Z" transform="translate(-1889.604 -1080.731)" fill="#fff"/>
        <path id="Trazado_1042447" data-name="Trazado 1042447" d="M1337.3,2019.18s-1.287,7.405-.478,11.2" transform="translate(-1159.857 -1874.263)" fill="none" stroke="#d17c5a" stroke-linecap="round" stroke-miterlimit="10" stroke-width="1"/>
        <path id="Trazado_1042448" data-name="Trazado 1042448" d="M1090.726,1244.24c.84-2.717,6.721-4.751,9.428-6.244a3.521,3.521,0,0,0,1.493-4.432s-.861-2.009-1.909-.951-1.794,5.663-4.159,4.6c-1.079-.483-.465-2.027-.093-4.729.344-2.5,4.761-6.347,4.761-6.347" transform="translate(-900.937 -1157.143)" fill="none" stroke="#d17c5a" stroke-linecap="round" stroke-miterlimit="10" stroke-width="1"/>
        <path id="Trazado_1042449" data-name="Trazado 1042449" d="M1142.424,1209.537s-1.865,2.365-2.985,0a22.424,22.424,0,0,1,.249-5.169c.467-2.427,4.792-5.534,4.792-5.534" transform="translate(-948.156 -1132.45)" fill="none" stroke="#d17c5a" stroke-linecap="round" stroke-miterlimit="10" stroke-width="1"/>
        <path id="Trazado_1042450" data-name="Trazado 1042450" d="M2685.287,1828.473s-15.806-8.7-19.664-25.463c0,0,12.446.034,17.424,9.244S2685.287,1828.473,2685.287,1828.473Z" transform="translate(-2635.825 -1678.787)" fill="#847321"/>
        <path id="Trazado_1042451" data-name="Trazado 1042451" d="M1685.417,1714.33s5.725,15.992,5.849,22.464" transform="translate(-1547.216 -1598.596)" fill="none" stroke="#a09032" stroke-linecap="round" stroke-miterlimit="10" stroke-width="1" opacity="0.3"/>
        <path id="Trazado_1042452" data-name="Trazado 1042452" d="M1568.413,2315.128s56.381,18.568,94.839,1.8c0,0-1.821-5.187-4.1-12.432,0,0-30.869,18.077-55.142-2.093-24.1-20.022-26.027-38.826-28.109-44.2,2.253,6.963,3.668,14.587,2.6,21.425A165.978,165.978,0,0,1,1568.413,2315.128Z" transform="translate(-1508 -2090.405)" fill="#a09032" opacity="0.3"/>
        <path id="Trazado_1042453" data-name="Trazado 1042453" d="M2054.128,2006.18s-1.494,11.45-8.588,16.055" transform="translate(-1944.552 -1862.507)" fill="none" stroke="#a09032" stroke-linecap="round" stroke-miterlimit="10" stroke-width="1" opacity="0.3"/>
        <path id="Trazado_1042454" data-name="Trazado 1042454" d="M2242.941,1790.581s-36.778,38.743-34.35,45.09,51.712,52.459,59.927,48.539,7.717-9.77,12.135-9.832c3.979-.056,10.079,2.109,11.979-.279a.844.844,0,0,0-.339-1.3,64.213,64.213,0,0,0-11.017-3.582c5.634-1.51,14.79,1.37,17.859-1.982a.806.806,0,0,0-.2-1.247l-1.111-.629s3.219-.422,4.395-2.137a1.319,1.319,0,0,0-.756-2.021l-5.069-1.318a6.752,6.752,0,0,0,2.92-1.662.978.978,0,0,0-.416-1.488c-2.219-.923-9.468-3.7-14.266-2.7-9.4,1.95-11.077,13.753-16.615,14.375a114.212,114.212,0,0,1-22.278-18.358,132.98,132.98,0,0,0-15.495-14.282s22.4-16.611,28-31.268S2242.941,1790.581,2242.941,1790.581Z" transform="translate(-2208.476 -1667.542)" fill="#fdc39d"/>
        <path id="Trazado_1042455" data-name="Trazado 1042455" d="M2977.367,2222.64c.56.187,4.667,3.174,4.667,3.174" transform="translate(-2961.665 -2058.245)" fill="none" stroke="#d17c5a" stroke-linecap="round" stroke-miterlimit="10" stroke-width="1"/>
        <path id="Trazado_1042456" data-name="Trazado 1042456" d="M2275.7,2552.365s-9.978-2.448-12.135-1.991-6.762,1.991-6.762,1.991" transform="translate(-2186.346 -2354.552)" fill="none" stroke="#d17c5a" stroke-linecap="round" stroke-miterlimit="10" stroke-width="1"/>
        <path id="Trazado_1042457" data-name="Trazado 1042457" d="M2288.676,2498.89s-5.974-2.074-9-1.576-7.924,3.028-7.924,3.028" transform="translate(-2200.756 -2306.553)" fill="none" stroke="#d17c5a" stroke-linecap="round" stroke-miterlimit="10" stroke-width="1"/>
        <path id="Trazado_1042458" data-name="Trazado 1042458" d="M2554.466,1578.258s18.918,8.2,19.664,25.463l7.717-4.644s9.334-24.507-1.742-44.612C2572.885,1559,2554.466,1578.258,2554.466,1578.258Z" transform="translate(-2524.668 -1454.035)" fill="#a09032"/>
        <path id="Trazado_1042459" data-name="Trazado 1042459" d="M2544.123,1617.673c9.583-19.913-1.363-40.512-1.363-40.512" transform="translate(-2486.08 -1474.559)" fill="none" stroke="#a09032" stroke-linecap="round" stroke-miterlimit="10" stroke-width="1" opacity="0.3"/>
        <path id="Trazado_1042460" data-name="Trazado 1042460" d="M1062.022,968.032s-.131-4.264-.22-6.036c-.162-3.217.256-10.969-2.13-11.262-3.236-.4-2.64,16.053-2.64,16.053" transform="translate(-857.811 -908.095)" fill="none" stroke="#d17c5a" stroke-linecap="round" stroke-miterlimit="10" stroke-width="1"/>
        <path id="Trazado_1042461" data-name="Trazado 1042461" d="M1043.009,1133.177s.689-9.594-1.459-11.135c-.886-.635-5.667-1.479-7.634-1.825-6.119-1.079-9.016,6.08-9.016,6.08" transform="translate(-835.83 -1061.258)" fill="none" stroke="#d17c5a" stroke-linecap="round" stroke-miterlimit="10" stroke-width="1"/>
        <path id="Trazado_1042462" data-name="Trazado 1042462" d="M1032.063,1171.251a22.938,22.938,0,0,0-2.659-9.439s-2.154-5.843-6.551-6.654c-6.721-1.24-9.928,5.321-9.928,5.321-2.5,5.428.759,5.614.759,5.614" transform="translate(-823.542 -1092.813)" fill="none" stroke="#d17c5a" stroke-linecap="round" stroke-miterlimit="10" stroke-width="1"/>
        <path id="Trazado_1042463" data-name="Trazado 1042463" d="M1911.63,3424.561l5.4,55.088h7.415Z" transform="translate(-1802.054 -3145.103)" fill="#564339" opacity="0.2"/>
        <line id="Línea_898" data-name="Línea 898" y2="35.6" transform="translate(109.576 241.125)" fill="none" stroke="#454560" stroke-linecap="round" stroke-miterlimit="10" stroke-width="1" opacity="0.3"/>
        <path id="Trazado_1042464" data-name="Trazado 1042464" d="M1712.632,2929.615s-55.636,12.322-89.612-2.987" transform="translate(-1562.607 -2694.838)" fill="none" stroke="#454560" stroke-linecap="round" stroke-miterlimit="10" stroke-width="1" opacity="0.3"/>
        <path id="Trazado_1042465" data-name="Trazado 1042465" d="M2350.813,3047.54s-3.734,25.016-25.763,22.963" transform="translate(-2267.996 -2804.176)" fill="none" stroke="#454560" stroke-linecap="round" stroke-miterlimit="10" stroke-width="1" opacity="0.3"/>
        <path id="Trazado_1042466" data-name="Trazado 1042466" d="M1581.662,3006.8s.192,20.328,7.621,24.622" transform="translate(-1435.299 -2767.336)" fill="none" stroke="#454560" stroke-linecap="round" stroke-miterlimit="10" stroke-width="1" opacity="0.3"/>
      </g>
      <g id="Grupo_1200949" data-name="Grupo 1200949" transform="translate(197.671 -11.948)">
        <g id="Grupo_1200948" data-name="Grupo 1200948" transform="translate(0)">
          <path id="Trazado_1042467" data-name="Trazado 1042467" d="M964.15,359.213h0a17.48,17.48,0,0,1,17.48,17.48h0a17.4,17.4,0,0,1-3.285,10.2,26.364,26.364,0,0,0-5.053,15.391v.01H955.008v-.01a26.363,26.363,0,0,0-5.054-15.391,17.4,17.4,0,0,1-3.285-10.2h0A17.481,17.481,0,0,1,964.15,359.213Z" transform="translate(-927.868 -341.234)" fill="#ffd039"/>
          <line id="Línea_899" data-name="Línea 899" x1="9.211" transform="translate(63.984 34.565)" fill="none" stroke="#ffd039" stroke-linecap="round" stroke-miterlimit="10" stroke-width="1"/>
          <line id="Línea_900" data-name="Línea 900" x1="9.211" transform="translate(0 34.565)" fill="none" stroke="#ffd039" stroke-linecap="round" stroke-miterlimit="10" stroke-width="1"/>
          <line id="Línea_901" data-name="Línea 901" x1="6.513" y1="6.513" transform="translate(8.069 9.975)" fill="none" stroke="#ffd039" stroke-linecap="round" stroke-miterlimit="10" stroke-width="1"/>
          <line id="Línea_902" data-name="Línea 902" y1="6.513" x2="6.513" transform="translate(56.944 9.525)" fill="none" stroke="#ffd039" stroke-linecap="round" stroke-miterlimit="10" stroke-width="1"/>
          <line id="Línea_903" data-name="Línea 903" y1="9.211" transform="translate(36.282)" fill="none" stroke="#ffd039" stroke-linecap="round" stroke-miterlimit="10" stroke-width="1"/>
        </g>
        <path id="Trazado_1042468" data-name="Trazado 1042468" d="M1038.622,528.382V504.309a1.956,1.956,0,0,1,1.956-1.955h.7a1.955,1.955,0,0,1,1.955,1.955h0a1.955,1.955,0,0,1-1.955,1.955h-12.043a1.955,1.955,0,0,1-1.956-1.955h0a1.956,1.956,0,0,1,1.956-1.955h.847a1.956,1.956,0,0,1,1.955,1.955v24.073" transform="translate(-999.076 -467.32)" fill="none" stroke="#72708d" stroke-miterlimit="10" stroke-width="1"/>
        <path id="Trazado_1042469" data-name="Trazado 1042469" d="M1034.934,720.724V727.8a6.308,6.308,0,0,1-6.308,6.308h-5.668a6.308,6.308,0,0,1-6.308-6.308v-7.066Z" transform="translate(-989.51 -659.672)" fill="#a5b6b7"/>
        <path id="Trazado_1042470" data-name="Trazado 1042470" d="M1048.052,814.167h6.925a2.2,2.2,0,0,0,2.2-2.2h0a2.2,2.2,0,0,0-2.2-2.2h-6.925a2.2,2.2,0,0,0-2.2,2.2h0A2.2,2.2,0,0,0,1048.052,814.167Z" transform="translate(-1015.232 -738.104)" fill="#a5b6b7"/>
        <line id="Línea_904" data-name="Línea 904" y1="3.092" x2="18.284" transform="translate(27.14 63.366)" fill="none" stroke="#72708d" stroke-linecap="round" stroke-miterlimit="10" stroke-width="1"/>
        <line id="Línea_905" data-name="Línea 905" y1="3.03" x2="17.921" transform="translate(27.503 67.214)" fill="none" stroke="#72708d" stroke-linecap="round" stroke-miterlimit="10" stroke-width="1"/>
        <path id="Trazado_1042471" data-name="Trazado 1042471" d="M1038.176,807.422l-3.616.611-10.284,1.74-.056.01" transform="translate(-993.654 -736.04)" fill="none" stroke="#72708d" stroke-linecap="round" stroke-miterlimit="10" stroke-width="1"/>
      </g>
    </g>
  </g>
</svg>
