<svg xmlns="http://www.w3.org/2000/svg" xmlns:xlink="http://www.w3.org/1999/xlink" width="110.186" height="110.186" viewBox="0 0 110.186 110.186">
  <defs>
    <filter id="Trazado_982547" x="0" y="0" width="110.186" height="110.186" filterUnits="userSpaceOnUse">
      <feOffset dy="3" input="SourceAlpha"/>
      <feGaussianBlur stdDeviation="3" result="blur"/>
      <feFlood flood-opacity="0.161"/>
      <feComposite operator="in" in2="blur"/>
      <feComposite in="SourceGraphic"/>
    </filter>
  </defs>
  <g id="Grupo_1200860" data-name="Grupo 1200860" transform="translate(-325 -5442.835)">
    <g id="Grupo_1200859" data-name="Grupo 1200859">
      <g id="Grupo_1184787" data-name="Grupo 1184787" transform="translate(-0.239 2337.835)">
        <g id="Grupo_1183771" data-name="Grupo 1183771" transform="translate(0.239 -5016.557)">
          <g id="Grupo_1173635" data-name="Grupo 1173635" transform="translate(334 8127.557)">
            <g id="Grupo_1173554" data-name="Grupo 1173554">
              <g id="Grupo_1172017" data-name="Grupo 1172017" transform="translate(0)">
                <g id="Grupo_1167337" data-name="Grupo 1167337" transform="translate(0)">
                  <g id="Grupo_1166720" data-name="Grupo 1166720">
                    <g id="Grupo_1164305" data-name="Grupo 1164305">
                      <g id="Grupo_1163948" data-name="Grupo 1163948">
                        <g id="Grupo_1158168" data-name="Grupo 1158168">
                          <g id="Grupo_1152576" data-name="Grupo 1152576">
                            <g id="Grupo_1148633" data-name="Grupo 1148633">
                              <g id="Grupo_1148525" data-name="Grupo 1148525">
                                <g transform="matrix(1, 0, 0, 1, -9, -6)" filter="url(#Trazado_982547)">
                                  <g id="Trazado_982547-2" data-name="Trazado 982547" transform="translate(9 6)" fill="#e8edf7">
                                    <path d="M 46.09305953979492 90.68612670898438 C 40.07238006591797 90.68612670898438 34.23257827758789 89.50730133056641 28.73588562011719 87.18239593505859 C 23.42596626281738 84.93648529052734 18.65684700012207 81.72095489501953 14.56100654602051 77.62511444091797 C 10.46517944335938 73.52928924560547 7.249646186828613 68.76016998291016 5.003739356994629 63.45023345947266 C 2.678832769393921 57.95354080200195 1.500006198883057 52.11373901367188 1.500006198883057 46.09305953979492 C 1.500006198883057 40.07238006591797 2.678832769393921 34.23257827758789 5.003739356994629 28.73588562011719 C 7.249646186828613 23.42595291137695 10.46517944335938 18.65684700012207 14.56100654602051 14.56100654602051 C 18.65684700012207 10.46517944335938 23.42595291137695 7.249646186828613 28.73588562011719 5.003739356994629 C 34.23257827758789 2.678832769393921 40.07238006591797 1.500006198883057 46.09305953979492 1.500006198883057 C 52.11373901367188 1.500006198883057 57.95354080200195 2.678832769393921 63.45023345947266 5.003739356994629 C 68.76016998291016 7.249646186828613 73.52928924560547 10.46517944335938 77.62511444091797 14.56100654602051 C 81.72095489501953 18.65684700012207 84.93648529052734 23.42596626281738 87.18239593505859 28.73588562011719 C 89.50730133056641 34.23257827758789 90.68612670898438 40.07238006591797 90.68612670898438 46.09305953979492 C 90.68612670898438 52.11373901367188 89.50730133056641 57.95354080200195 87.18239593505859 63.45023345947266 C 84.93648529052734 68.76016998291016 81.72095489501953 73.52928924560547 77.62511444091797 77.62511444091797 C 73.52928924560547 81.72095489501953 68.76016998291016 84.93648529052734 63.45023345947266 87.18239593505859 C 57.95354080200195 89.50730133056641 52.11373901367188 90.68612670898438 46.09305953979492 90.68612670898438 Z" stroke="none"/>
                                    <path d="M 46.09305953979492 3 C 40.27421569824219 3 34.63101577758789 4.138961791992188 29.32021713256836 6.385231018066406 C 24.1890869140625 8.555519104003906 19.58021545410156 11.66310119628906 15.62165832519531 15.62165832519531 C 11.66310119628906 19.58021545410156 8.555519104003906 24.1890869140625 6.385231018066406 29.32021713256836 C 4.138961791992188 34.63101577758789 3 40.27421569824219 3 46.09305953979492 C 3 51.91190338134766 4.138961791992188 57.55510330200195 6.385231018066406 62.86590194702148 C 8.555519104003906 67.99703216552734 11.66310119628906 72.60588836669922 15.62165832519531 76.56444549560547 C 19.58021545410156 80.52301788330078 24.1890869140625 83.63058471679688 29.32021713256836 85.80088806152344 C 34.63101577758789 88.04715728759766 40.27421569824219 89.18611907958984 46.09305953979492 89.18611907958984 C 51.91190338134766 89.18611907958984 57.55510330200195 88.04715728759766 62.86590194702148 85.80088806152344 C 67.99703216552734 83.63058471679688 72.60588836669922 80.52301788330078 76.56444549560547 76.56444549560547 C 80.52301788330078 72.60588836669922 83.63058471679688 67.99703216552734 85.80088806152344 62.86590194702148 C 88.04715728759766 57.55510330200195 89.18611907958984 51.91190338134766 89.18611907958984 46.09305953979492 C 89.18611907958984 40.27421569824219 88.04715728759766 34.63101577758789 85.80088806152344 29.32021713256836 C 83.63058471679688 24.1890869140625 80.52301788330078 19.58021545410156 76.56444549560547 15.62165832519531 C 72.60588836669922 11.66310119628906 67.99703216552734 8.555519104003906 62.86590194702148 6.385231018066406 C 57.55510330200195 4.138961791992188 51.91190338134766 3 46.09305953979492 3 M 46.09305953979492 0 C 71.54954528808594 0 92.18611907958984 20.63655853271484 92.18611907958984 46.09305953979492 C 92.18611907958984 71.54954528808594 71.54954528808594 92.18611907958984 46.09305953979492 92.18611907958984 C 20.63655853271484 92.18611907958984 0 71.54954528808594 0 46.09305953979492 C 0 20.63655853271484 20.63655853271484 0 46.09305953979492 0 Z" stroke="none" fill="#2e5bb6"/>
                                  </g>
                                </g>
                              </g>
                            </g>
                          </g>
                        </g>
                      </g>
                    </g>
                  </g>
                </g>
              </g>
            </g>
          </g>
        </g>
      </g>
      <g id="economia_2_" data-name="economia (2)" transform="translate(302.725 5461.291)">
        <g id="Grupo_1200858" data-name="Grupo 1200858" transform="translate(52.175 2.024)">
          <g id="Grupo_1200856" data-name="Grupo 1200856">
            <circle id="Elipse_12568" data-name="Elipse 12568" cx="25.193" cy="25.193" r="25.193" fill="#64b5f6"/>
            <path id="Trazado_1042266" data-name="Trazado 1042266" d="M144.395,58.67A25.192,25.192,0,1,1,108.83,94.235,25.192,25.192,0,0,0,144.395,58.67Z" transform="translate(-102.473 -52.313)" fill="#42a5f5" fill-rule="evenodd"/>
            <path id="Trazado_1042267" data-name="Trazado 1042267" d="M106.826,34.044c-14.082-1.6-15.369,2.725-12.425,6.822,2.772,3.859,5.471,2.923,6.938,6.383,1.979,4.665-9.427,6.082,3.5,18.287a25.2,25.2,0,0,0,1.986-31.491ZM83.393,35.8a9.7,9.7,0,0,1-9.178,3.182c-2.662-.338-5.151,1.18-3.552,3.751,1.718,2.763,2.759,3.116,4.892,2.291,3.928-1.52,3.459,1.174,7.78,1.587,2.049.2,2.8,2.384,4.256,4.373,4.856,6.616-3.27,1.565-3.238,8.622-.91,4.116-2.076,2.523-2.729,5.8-.267,1.067-1.692,1.971-2.561,1.012-1.908-1.861-.078-4.444-3.375-8.395-2.287-2.96.376-5.1-2.813-6.941-6.212-3.591-5.154-7.1-11.565-6.26A25.225,25.225,0,0,1,76.124,25.47c4.666.207,11.212,5.517,7.268,10.334Z" transform="translate(-61.035 -23.362)" fill="#3cbe52" fill-rule="evenodd"/>
            <path id="Trazado_1042268" data-name="Trazado 1042268" d="M389.1,91.867c-.279-.032-.552-.06-.822-.087a25.2,25.2,0,0,1-3.265,29.464c.616.667,1.312,1.371,2.1,2.114A25.2,25.2,0,0,0,389.1,91.867Z" transform="translate(-343.306 -81.185)" fill="#30aa44" fill-rule="evenodd"/>
          </g>
          <g id="Grupo_1200857" data-name="Grupo 1200857" transform="translate(10.229 27.886)">
            <path id="Trazado_1042269" data-name="Trazado 1042269" d="M215.93,385.577l-2.05-2.191,4.144-4.145,2.2,2.045Z" transform="translate(-204.307 -359.74)" fill="#b4d2d7" fill-rule="evenodd"/>
            <path id="Trazado_1042270" data-name="Trazado 1042270" d="M215.93,393.372l-2.05-2.191.022-.023,1.148,1.226,4.2-4.2.968.9Z" transform="translate(-204.307 -367.536)" fill="#9bb9c3" fill-rule="evenodd"/>
            <path id="Trazado_1042271" data-name="Trazado 1042271" d="M148.851,399.567l3.41,3.41a.243.243,0,0,1,0,.343l-8.651,8.651a2.653,2.653,0,0,1-3.751-3.751l8.651-8.651A.24.24,0,0,1,148.851,399.567Z" transform="translate(-139.085 -377.404)" fill="#8d9ca8" fill-rule="evenodd"/>
            <path id="Trazado_1042272" data-name="Trazado 1042272" d="M154.884,421.67l.642.643a.243.243,0,0,1,0,.343l-8.651,8.651a2.66,2.66,0,0,1-3.751,0,2.7,2.7,0,0,1-.294-.349,2.662,2.662,0,0,0,3.4-.294l8.651-8.652A.243.243,0,0,0,154.884,421.67Z" transform="translate(-142.351 -396.74)" fill="#7a8c98" fill-rule="evenodd"/>
            <path id="Trazado_1042273" data-name="Trazado 1042273" d="M201.176,402.984a.243.243,0,0,1,0,.343l-2.245,2.245-3.751-3.751,2.245-2.245a.243.243,0,0,1,.343,0Z" transform="translate(-188.001 -377.411)" fill="#7a8c98" fill-rule="evenodd"/>
            <path id="Trazado_1042274" data-name="Trazado 1042274" d="M222.349,422.312a.243.243,0,0,1,0,.343L220.1,424.9l-.644-.644,2.245-2.246a.242.242,0,0,0,0-.34Z" transform="translate(-209.173 -396.74)" fill="#596c76" fill-rule="evenodd"/>
            <circle id="Elipse_12569" data-name="Elipse 12569" cx="12.563" cy="12.563" r="12.563" transform="translate(10.213)" fill="#ffda2d"/>
            <path id="Trazado_1042275" data-name="Trazado 1042275" d="M262.99,246.06A12.563,12.563,0,1,1,246.5,264.9a12.562,12.562,0,0,0,16.49-18.842Z" transform="translate(-232.752 -243.605)" fill="#ffc700" fill-rule="evenodd"/>
            <circle id="Elipse_12570" data-name="Elipse 12570" cx="9.481" cy="9.481" r="9.481" transform="translate(13.295 3.082)" fill="#fdb800"/>
            <path id="Trazado_1042276" data-name="Trazado 1042276" d="M252.45,250.96a9.461,9.461,0,0,1,7.282,3.41,9.481,9.481,0,0,0-13.353,13.353,9.481,9.481,0,0,1,6.07-16.762Z" transform="translate(-229.674 -247.878)" fill="#f4a40e" fill-rule="evenodd"/>
          </g>
        </g>
        <path id="Trazado_1042277" data-name="Trazado 1042277" d="M88.508,44.547a3.1,3.1,0,0,1-2.306,3v.438a1.023,1.023,0,1,1-2.046,0v-.4a3.1,3.1,0,0,1-1.907-1.227,1.024,1.024,0,0,1,1.66-1.2,1.048,1.048,0,0,0,.851.44h.651a1.051,1.051,0,1,0,0-2.1h-.465a3.1,3.1,0,0,1-.791-6.095v-.438a1.023,1.023,0,1,1,2.046,0v.4a3.128,3.128,0,0,1,1.913,1.227,1.029,1.029,0,0,1-.235,1.43,1.017,1.017,0,0,1-1.424-.229,1.06,1.06,0,0,0-.858-.44h-.651a1.051,1.051,0,1,0,0,2.1h.465A3.1,3.1,0,0,1,88.508,44.547Zm-3.326,6.16a8.235,8.235,0,1,0-8.24-8.235A8.243,8.243,0,0,0,85.181,50.707Zm0-18.517a10.282,10.282,0,1,0,10.28,10.282A10.295,10.295,0,0,0,85.181,32.19Zm0,21.82A11.539,11.539,0,1,0,73.64,42.471,11.55,11.55,0,0,0,85.181,54.01ZM74.939,53.39l-.676-.673.984-.984c.218.232.44.457.676.673Zm-1.606,3.23-2.3-2.3L72,53.347l2.306,2.3ZM66.2,63.75l5.68-5.683-2.3-2.3L63.9,61.446a1.63,1.63,0,0,0,2.306,2.3Zm-13-36.532a24.9,24.9,0,0,1,.157-2.8c2.813-.228,3.64.625,5.167,2.2A20.867,20.867,0,0,0,63.5,30.635c1.225.708,1.225,1.258,1.238,2.464a6.319,6.319,0,0,0,1.28,4.217c.006.01.018.02.024.031a8.4,8.4,0,0,1,2.047,4.968A5.34,5.34,0,0,0,69.47,45.8a2.173,2.173,0,0,0,1.611.718,2.353,2.353,0,0,0,.489-.052,2.629,2.629,0,0,0,.562-.193,13.452,13.452,0,0,0,1.829,3.855l-.887.882A24.031,24.031,0,0,1,53.2,27.218ZM67.466,5.171c2.711.233,5.886,2.331,6.9,4.6a3.645,3.645,0,0,1-.6,4.019,8.8,8.8,0,0,1-8.1,2.873c-.084-.015-.138-.026-.175-.029a4.857,4.857,0,0,0-4.762,1.7,3.212,3.212,0,0,0,.211,3.609,6.73,6.73,0,0,0,2.74,2.886,4.285,4.285,0,0,0,3.387-.18c1.762-.682,2.222-.4,3.224.22A8.593,8.593,0,0,0,74.378,26.3c1,.095,1.569.939,2.5,2.424.314.5.64,1.015,1.02,1.536.133.18.26.353.374.518a13.6,13.6,0,0,0-6.682,11.7,13.216,13.216,0,0,0,.091,1.551.951.951,0,0,1-.543.436.155.155,0,0,1-.182-.063c-.012-.015-.031-.031-.042-.045a3.458,3.458,0,0,1-.8-2.3,10.461,10.461,0,0,0-2.493-6.005,4.262,4.262,0,0,1-.845-2.968,4.162,4.162,0,0,0-2.258-4.22A18.8,18.8,0,0,1,60,25.2c-1.595-1.648-2.892-2.987-6.308-2.846A24.255,24.255,0,0,1,67.466,5.171Zm28.22,6.293A24.163,24.163,0,0,0,70.779,3.959a10.715,10.715,0,0,1,5.457,4.974,5.7,5.7,0,0,1-.911,6.18c-.018.019-.031.037-.049.055a10.8,10.8,0,0,1-9.984,3.507l-.078-.014a2.958,2.958,0,0,0-2.764.774c-.224.347-.151.826.224,1.422,1.569,2.524,2.16,2.453,3.651,1.878,2.711-1.049,3.893-.319,5.04.388a6.512,6.512,0,0,0,3.2,1.135c2.047.2,3.06,1.81,4.044,3.371.3.468.6.955.942,1.416.211.291.4.562.573.815a13.566,13.566,0,0,1,10.124.009c.109-.16.218-.319.32-.474.918-1.353,1.376-2.105.966-3.086a5.012,5.012,0,0,0-2.669-2.619,11.5,11.5,0,0,1-4.16-3.566c-1.558-2.163-1.9-4.229-.971-5.813,1.387-2.368,5.4-3.323,11.945-2.848Zm2.68,27.729a24.174,24.174,0,0,0-.991-25.523c-9.235-.98-11.378.838-11.867,1.677-.671,1.139.253,2.734.863,3.582a9.48,9.48,0,0,0,3.507,2.977,6.943,6.943,0,0,1,3.544,3.6c.869,2.053-.2,3.637-1.153,5.036-.054.079-.109.16-.163.241A13.637,13.637,0,0,1,98.365,39.194Zm5.222-11.976A26.214,26.214,0,1,0,70.056,52.4l-7.6,7.6a3.676,3.676,0,0,0,5.2,5.2l8.662-8.662a1.255,1.255,0,0,0,.067-1.7l1.147-1.148A13.577,13.577,0,0,0,98.765,42.473v-.1A26,26,0,0,0,103.587,27.218Z" transform="translate(0 0)" fill-rule="evenodd"/>
      </g>
    </g>
  </g>
</svg>
