<svg xmlns="http://www.w3.org/2000/svg" xmlns:xlink="http://www.w3.org/1999/xlink" width="93.934" height="93.934" viewBox="0 0 93.934 93.934">
  <defs>
    <filter id="Trazado_982547" x="0" y="0" width="93.934" height="93.934" filterUnits="userSpaceOnUse">
      <feOffset dy="3" input="SourceAlpha"/>
      <feGaussianBlur stdDeviation="3" result="blur"/>
      <feFlood flood-opacity="0.161"/>
      <feComposite operator="in" in2="blur"/>
      <feComposite in="SourceGraphic"/>
    </filter>
  </defs>
  <g id="Grupo_1201149" data-name="Grupo 1201149" transform="translate(-189 -5076.667)">
    <g id="Grupo_1184833" data-name="Grupo 1184833" transform="translate(0 4341.667)">
      <g id="Grupo_1175133" data-name="Grupo 1175133" transform="translate(-0.033 -1251)">
        <g id="Grupo_1167337" data-name="Grupo 1167337" transform="translate(198.033 1992)">
          <g id="Grupo_1166720" data-name="Grupo 1166720">
            <g id="Grupo_1164305" data-name="Grupo 1164305">
              <g id="Grupo_1163948" data-name="Grupo 1163948">
                <g id="Grupo_1158168" data-name="Grupo 1158168">
                  <g id="Grupo_1152576" data-name="Grupo 1152576">
                    <g id="Grupo_1148633" data-name="Grupo 1148633">
                      <g id="Grupo_1148525" data-name="Grupo 1148525">
                        <g transform="matrix(1, 0, 0, 1, -9, -6)" filter="url(#Trazado_982547)">
                          <g id="Trazado_982547-2" data-name="Trazado 982547" transform="translate(9 6)" fill="#e8edf7">
                            <path d="M 37.966796875 74.43359375 C 33.04315185546875 74.43359375 28.26757431030273 73.46962738037109 23.77274131774902 71.56847381591797 C 19.43047523498535 69.73184967041016 15.53040790557861 67.10224914550781 12.18087482452393 63.75271987915039 C 8.831341743469238 60.4031867980957 6.201741218566895 56.50312042236328 4.365118980407715 52.16086196899414 C 2.463963508605957 47.66601943969727 1.499996900558472 42.89044189453125 1.499996900558472 37.966796875 C 1.499996900558472 33.04315185546875 2.463963508605957 28.26757431030273 4.365118980407715 23.77274131774902 C 6.201741218566895 19.43047523498535 8.831341743469238 15.53040790557861 12.18087482452393 12.18087482452393 C 15.53040790557861 8.831341743469238 19.43047523498535 6.201741218566895 23.77274131774902 4.365118980407715 C 28.26757431030273 2.463963508605957 33.04315185546875 1.499996900558472 37.966796875 1.499996900558472 C 42.89044189453125 1.499996900558472 47.66601943969727 2.463963508605957 52.16086196899414 4.365118980407715 C 56.50312042236328 6.201741218566895 60.4031867980957 8.831341743469238 63.75271987915039 12.18087482452393 C 67.10224914550781 15.53040790557861 69.73184967041016 19.43047523498535 71.56847381591797 23.77274131774902 C 73.46962738037109 28.26757431030273 74.43359375 33.04315185546875 74.43359375 37.966796875 C 74.43359375 42.89044189453125 73.46962738037109 47.66601943969727 71.56847381591797 52.16086196899414 C 69.73184967041016 56.50313186645508 67.10224914550781 60.4031867980957 63.75271987915039 63.75271987915039 C 60.4031867980957 67.10224914550781 56.50313186645508 69.73184967041016 52.16086196899414 71.56847381591797 C 47.66601943969727 73.46962738037109 42.89044189453125 74.43359375 37.966796875 74.43359375 Z" stroke="none"/>
                            <path d="M 37.966796875 3 C 33.2449836730957 3 28.66600799560547 3.924095153808594 24.35705947875977 5.746635437011719 C 20.19359588623047 7.507637023925781 16.45379638671875 10.02928161621094 13.24153518676758 13.24153518676758 C 10.02927398681641 16.45379638671875 7.507621765136719 20.19359588623047 5.746635437011719 24.35705947875977 C 3.924095153808594 28.66600799560547 3 33.2449836730957 3 37.966796875 C 3 42.6886100769043 3.924095153808594 47.26758575439453 5.746635437011719 51.57653427124023 C 7.507621765136719 55.73999786376953 10.02927398681641 59.47979736328125 13.24153518676758 62.69205856323242 C 16.45379638671875 65.90431976318359 20.19359588623047 68.42597198486328 24.35705947875977 70.18695831298828 C 28.66600799560547 72.00949859619141 33.2449836730957 72.93359375 37.966796875 72.93359375 C 42.6886100769043 72.93359375 47.26758575439453 72.00949859619141 51.57653427124023 70.18695831298828 C 55.73999786376953 68.42597198486328 59.47979736328125 65.90431976318359 62.69205856323242 62.69205856323242 C 65.90431976318359 59.47979736328125 68.42597198486328 55.73999786376953 70.18695831298828 51.57653427124023 C 72.00949859619141 47.26758575439453 72.93359375 42.6886100769043 72.93359375 37.966796875 C 72.93359375 33.2449836730957 72.00949859619141 28.66600799560547 70.18695831298828 24.35705947875977 C 68.42597198486328 20.19359588623047 65.90431976318359 16.45379638671875 62.69205856323242 13.24153518676758 C 59.47979736328125 10.02928161621094 55.73999786376953 7.507637023925781 51.57653427124023 5.746635437011719 C 47.26758575439453 3.924095153808594 42.6886100769043 3 37.966796875 3 M 37.966796875 0 C 58.93528366088867 0 75.93359375 16.99832153320312 75.93359375 37.966796875 C 75.93359375 58.93528366088867 58.93528366088867 75.93359375 37.966796875 75.93359375 C 16.99831008911133 75.93359375 0 58.93528366088867 0 37.966796875 C 0 16.99832153320312 16.99831008911133 0 37.966796875 0 Z" stroke="none" fill="#2e5bb6"/>
                          </g>
                        </g>
                      </g>
                    </g>
                  </g>
                </g>
              </g>
            </g>
          </g>
        </g>
      </g>
    </g>
    <g id="XMLID_1_" transform="translate(208.823 5065.271)">
      <g id="XMLID_4238_" transform="translate(0.536 32.106)">
        <path id="XMLID_1924_" d="M0,0H19.076V31.794H0Z" transform="translate(29.886 0) rotate(70.007)" fill="#399349"/>
        <path id="XMLID_1923_" d="M66.791,74.4l2.9,7.97a3.178,3.178,0,0,0-1.9,4.08L47.884,93.7a3.178,3.178,0,0,0-4.08-1.9l-2.9-7.97a3.178,3.178,0,0,0,1.9-4.08L62.71,72.5A3.187,3.187,0,0,0,66.791,74.4Z" transform="translate(-37.087 -68.689)" fill="#47b85c"/>
        <path id="XMLID_1927_" d="M0,0H19.076V31.794H0Z" transform="matrix(0.174, 0.985, -0.985, 0.174, 33.975, 6.623)" fill="#2b6e38"/>
        <path id="XMLID_1926_" d="M85.441,129.975l1.473,8.351a3.178,3.178,0,0,0-2.575,3.688l-20.878,3.677a3.178,3.178,0,0,0-3.688-2.575L58.3,134.766a3.178,3.178,0,0,0,2.575-3.688L81.753,127.4a3.2,3.2,0,0,0,3.688,2.575Z" transform="translate(-52.643 -117.771)" fill="#47b85c"/>
        <path id="XMLID_1929_" d="M55,168.3H86.794v19.076H55Z" transform="translate(-49.693 -154.336)" fill="#399349"/>
        <path id="XMLID_1928_" d="M102.554,191.479v8.478a3.175,3.175,0,0,0-3.179,3.179h-21.2A3.175,3.175,0,0,0,75,199.958v-8.478a3.175,3.175,0,0,0,3.179-3.179h21.2a3.175,3.175,0,0,0,3.179,3.179Z" transform="translate(-67.573 -172.217)" fill="#47b85c"/>
        <g id="Grupo_1201148" data-name="Grupo 1201148" transform="translate(10.606 19.263)">
          <circle id="XMLID_1921_" cx="4.239" cy="4.239" r="4.239" transform="translate(6.359)" fill="#399349"/>
          <circle id="XMLID_1920_" cx="2.12" cy="2.12" r="2.12" transform="translate(16.957 2.12)" fill="#399349"/>
          <circle id="XMLID_1919_" cx="2.12" cy="2.12" r="2.12" transform="translate(0 2.12)" fill="#399349"/>
        </g>
        <path id="XMLID_1917_" d="M116.554,136.538s3.126,20.38-14,25.647C85.789,167.335,75,159.514,75,159.514c38.894,4.917,33.818-22.976,33.818-22.976h-4.144L112.728,127l8.054,9.538Z" transform="translate(-67.573 -117.413)" fill="#db3529"/>
      </g>
      <g id="XMLID_3589_" transform="translate(0.016 31.58)">
        <g id="XMLID_158_" transform="translate(5.297 13.96)">
          <path id="XMLID_3495_" d="M82.323,183.436H50.53a.525.525,0,0,1-.53-.53V163.83a.525.525,0,0,1,.53-.53H82.323a.525.525,0,0,1,.53.53v19.076A.525.525,0,0,1,82.323,183.436Zm-31.264-1.06H81.794V164.36H51.06Z" transform="translate(-50 -163.3)" fill="#272526"/>
        </g>
        <g id="XMLID_157_" transform="translate(7.417 16.079)">
          <path id="XMLID_3492_" d="M94.9,199.2h-21.2a.525.525,0,0,1-.53-.53,2.65,2.65,0,0,0-2.649-2.649.525.525,0,0,1-.53-.53v-8.478a.525.525,0,0,1,.53-.53,2.65,2.65,0,0,0,2.649-2.649.525.525,0,0,1,.53-.53H94.9a.525.525,0,0,1,.53.53,2.65,2.65,0,0,0,2.649,2.649.525.525,0,0,1,.53.53v8.478a.525.525,0,0,1-.53.53,2.65,2.65,0,0,0-2.649,2.649A.525.525,0,0,1,94.9,199.2ZM74.2,198.137h20.21A3.71,3.71,0,0,1,97.544,195v-7.493a3.71,3.71,0,0,1-3.137-3.137H74.2a3.71,3.71,0,0,1-3.137,3.137V195A3.71,3.71,0,0,1,74.2,198.137Z" transform="translate(-70 -183.3)" fill="#272526"/>
        </g>
        <g id="XMLID_178_" transform="translate(2.652 6.609)">
          <path id="XMLID_3491_" d="M27.727,115.311l-2.681-15.229a.532.532,0,0,1,.424-.615l31.317-5.521a.555.555,0,0,1,.392.085.584.584,0,0,1,.223.339l1.293,7.355-1.039.18L56.447,95.08,26.18,100.421l2.6,14.71Z" transform="translate(-25.039 -93.939)" fill="#272526"/>
        </g>
        <g id="XMLID_179_" transform="translate(8.237 9.629)">
          <path id="XMLID_3490_" d="M102.608,127.395l-.223-1.282a3.713,3.713,0,0,1-3.635-2.543l-19.9,3.508v.244l-1.06-.032a2.418,2.418,0,0,0-.042-.551.555.555,0,0,1,.085-.392.568.568,0,0,1,.339-.223l20.878-3.677a.532.532,0,0,1,.615.424,2.655,2.655,0,0,0,3.073,2.151.528.528,0,0,1,.615.435l.307,1.759Z" transform="translate(-77.739 -122.439)" fill="#272526"/>
        </g>
        <g id="XMLID_181_" transform="translate(0 0)">
          <path id="XMLID_3489_" d="M4.751,56.095.046,43.165a.531.531,0,0,1,.318-.678L30.239,31.614a.487.487,0,0,1,.4.021.578.578,0,0,1,.276.3l2.024,5.553-1,.36L30.1,32.79,1.222,43.3,5.747,55.745Z" transform="translate(-0.016 -31.58)" fill="#272526"/>
        </g>
        <g id="XMLID_177_" transform="translate(5.702 3.798)">
          <path id="XMLID_3488_" d="M53.962,75.807a3.3,3.3,0,0,0-.117-.435.531.531,0,0,1,.318-.678l19.913-7.249a.531.531,0,0,1,.678.318,2.635,2.635,0,0,0,3.391,1.579.531.531,0,0,1,.678.318l.572,1.558-1,.36L78,70.487a3.72,3.72,0,0,1-4.027-1.876L54.99,75.532c.011.032.011.064.021.1Z" transform="translate(-53.816 -67.416)" fill="#272526"/>
        </g>
        <g id="XMLID_156_" transform="translate(16.955 19.258)">
          <path id="XMLID_3485_" d="M164.769,222.838a4.769,4.769,0,1,1,4.769-4.769A4.776,4.776,0,0,1,164.769,222.838Zm0-8.478a3.709,3.709,0,1,0,3.709,3.709A3.713,3.713,0,0,0,164.769,214.36Z" transform="translate(-160 -213.3)" fill="#272526"/>
        </g>
        <g id="XMLID_155_" transform="translate(27.553 21.378)">
          <path id="XMLID_3482_" d="M262.649,238.6a2.649,2.649,0,1,1,2.649-2.649A2.65,2.65,0,0,1,262.649,238.6Zm0-4.239a1.59,1.59,0,1,0,1.59,1.59A1.588,1.588,0,0,0,262.649,234.36Z" transform="translate(-260 -233.3)" fill="#272526"/>
        </g>
        <g id="XMLID_176_" transform="translate(10.596 21.378)">
          <path id="XMLID_3479_" d="M102.649,238.6a2.649,2.649,0,1,1,2.649-2.649A2.65,2.65,0,0,1,102.649,238.6Zm0-4.239a1.59,1.59,0,1,0,1.59,1.59A1.588,1.588,0,0,0,102.649,234.36Z" transform="translate(-100 -233.3)" fill="#272526"/>
        </g>
        <g id="XMLID_182_" transform="translate(7.409 9.572)">
          <path id="XMLID_3478_" d="M86.734,159.893a34.023,34.023,0,0,1-8.923-1.166,25.4,25.4,0,0,1-7.662-3.349.53.53,0,0,1,.382-.954c13.48,1.706,23.093-.35,28.551-6.1a18.456,18.456,0,0,0,4.737-10.63,22.633,22.633,0,0,0,.011-5.193H102.26v-1.06h2.024a.524.524,0,0,1,.519.435,21.648,21.648,0,0,1,.064,5.9,19.558,19.558,0,0,1-5.023,11.266c-4.419,4.674-11.382,7.016-20.74,7.016q-2.941,0-6.179-.307a27.976,27.976,0,0,0,5.214,1.961,35.29,35.29,0,0,0,19.723-.6c6.91-2.12,11.308-6.973,13.067-14.413a31.5,31.5,0,0,0,.572-10.651.556.556,0,0,1,.117-.424.515.515,0,0,1,.4-.18H115.1l-6.91-8.182-7.652,9.061-.805-.689,8.054-9.538a.541.541,0,0,1,.4-.191.492.492,0,0,1,.4.191l8.054,9.538a.536.536,0,0,1,.074.572.522.522,0,0,1-.477.307h-3.624a32.811,32.811,0,0,1-.657,10.439,22.061,22.061,0,0,1-4.112,8.775,19.268,19.268,0,0,1-9.676,6.4A38.835,38.835,0,0,1,86.734,159.893Z" transform="translate(-69.928 -121.9)" fill="#272526"/>
        </g>
      </g>
    </g>
  </g>
</svg>
