<svg xmlns="http://www.w3.org/2000/svg" xmlns:xlink="http://www.w3.org/1999/xlink" width="93.934" height="93.934" viewBox="0 0 93.934 93.934">
  <defs>
    <filter id="Trazado_982547" x="0" y="0" width="93.934" height="93.934" filterUnits="userSpaceOnUse">
      <feOffset dy="3" input="SourceAlpha"/>
      <feGaussianBlur stdDeviation="3" result="blur"/>
      <feFlood flood-opacity="0.161"/>
      <feComposite operator="in" in2="blur"/>
      <feComposite in="SourceGraphic"/>
    </filter>
  </defs>
  <g id="Grupo_1201150" data-name="Grupo 1201150" transform="translate(-609 -5076.667)">
    <g id="Grupo_1184834" data-name="Grupo 1184834" transform="translate(0 4341.667)">
      <g id="Grupo_1175134" data-name="Grupo 1175134" transform="translate(419.967 -1251)">
        <g id="Grupo_1167337" data-name="Grupo 1167337" transform="translate(198.033 1992)">
          <g id="Grupo_1166720" data-name="Grupo 1166720">
            <g id="Grupo_1164305" data-name="Grupo 1164305">
              <g id="Grupo_1163948" data-name="Grupo 1163948">
                <g id="Grupo_1158168" data-name="Grupo 1158168">
                  <g id="Grupo_1152576" data-name="Grupo 1152576">
                    <g id="Grupo_1148633" data-name="Grupo 1148633">
                      <g id="Grupo_1148525" data-name="Grupo 1148525">
                        <g transform="matrix(1, 0, 0, 1, -9, -6)" filter="url(#Trazado_982547)">
                          <g id="Trazado_982547-2" data-name="Trazado 982547" transform="translate(9 6)" fill="#e8edf7">
                            <path d="M 37.966796875 74.43359375 C 33.04315185546875 74.43359375 28.26757431030273 73.46962738037109 23.77274131774902 71.56847381591797 C 19.43047523498535 69.73184967041016 15.53040790557861 67.10224914550781 12.18087482452393 63.75271987915039 C 8.831341743469238 60.4031867980957 6.201741218566895 56.50312042236328 4.365118980407715 52.16086196899414 C 2.463963508605957 47.66601943969727 1.499996900558472 42.89044189453125 1.499996900558472 37.966796875 C 1.499996900558472 33.04315185546875 2.463963508605957 28.26757431030273 4.365118980407715 23.77274131774902 C 6.201741218566895 19.43047523498535 8.831341743469238 15.53040790557861 12.18087482452393 12.18087482452393 C 15.53040790557861 8.831341743469238 19.43047523498535 6.201741218566895 23.77274131774902 4.365118980407715 C 28.26757431030273 2.463963508605957 33.04315185546875 1.499996900558472 37.966796875 1.499996900558472 C 42.89044189453125 1.499996900558472 47.66601943969727 2.463963508605957 52.16086196899414 4.365118980407715 C 56.50312042236328 6.201741218566895 60.4031867980957 8.831341743469238 63.75271987915039 12.18087482452393 C 67.10224914550781 15.53040790557861 69.73184967041016 19.43047523498535 71.56847381591797 23.77274131774902 C 73.46962738037109 28.26757431030273 74.43359375 33.04315185546875 74.43359375 37.966796875 C 74.43359375 42.89044189453125 73.46962738037109 47.66601943969727 71.56847381591797 52.16086196899414 C 69.73184967041016 56.50313186645508 67.10224914550781 60.4031867980957 63.75271987915039 63.75271987915039 C 60.4031867980957 67.10224914550781 56.50313186645508 69.73184967041016 52.16086196899414 71.56847381591797 C 47.66601943969727 73.46962738037109 42.89044189453125 74.43359375 37.966796875 74.43359375 Z" stroke="none"/>
                            <path d="M 37.966796875 3 C 33.2449836730957 3 28.66600799560547 3.924095153808594 24.35705947875977 5.746635437011719 C 20.19359588623047 7.507637023925781 16.45379638671875 10.02928161621094 13.24153518676758 13.24153518676758 C 10.02927398681641 16.45379638671875 7.507621765136719 20.19359588623047 5.746635437011719 24.35705947875977 C 3.924095153808594 28.66600799560547 3 33.2449836730957 3 37.966796875 C 3 42.6886100769043 3.924095153808594 47.26758575439453 5.746635437011719 51.57653427124023 C 7.507621765136719 55.73999786376953 10.02927398681641 59.47979736328125 13.24153518676758 62.69205856323242 C 16.45379638671875 65.90431976318359 20.19359588623047 68.42597198486328 24.35705947875977 70.18695831298828 C 28.66600799560547 72.00949859619141 33.2449836730957 72.93359375 37.966796875 72.93359375 C 42.6886100769043 72.93359375 47.26758575439453 72.00949859619141 51.57653427124023 70.18695831298828 C 55.73999786376953 68.42597198486328 59.47979736328125 65.90431976318359 62.69205856323242 62.69205856323242 C 65.90431976318359 59.47979736328125 68.42597198486328 55.73999786376953 70.18695831298828 51.57653427124023 C 72.00949859619141 47.26758575439453 72.93359375 42.6886100769043 72.93359375 37.966796875 C 72.93359375 33.2449836730957 72.00949859619141 28.66600799560547 70.18695831298828 24.35705947875977 C 68.42597198486328 20.19359588623047 65.90431976318359 16.45379638671875 62.69205856323242 13.24153518676758 C 59.47979736328125 10.02928161621094 55.73999786376953 7.507637023925781 51.57653427124023 5.746635437011719 C 47.26758575439453 3.924095153808594 42.6886100769043 3 37.966796875 3 M 37.966796875 0 C 58.93528366088867 0 75.93359375 16.99832153320312 75.93359375 37.966796875 C 75.93359375 58.93528366088867 58.93528366088867 75.93359375 37.966796875 75.93359375 C 16.99831008911133 75.93359375 0 58.93528366088867 0 37.966796875 C 0 16.99832153320312 16.99831008911133 0 37.966796875 0 Z" stroke="none" fill="#2e5bb6"/>
                          </g>
                        </g>
                      </g>
                    </g>
                  </g>
                </g>
              </g>
            </g>
          </g>
        </g>
      </g>
    </g>
    <g id="Page-1" transform="translate(632.333 5096.998)">
      <g id="_036---No-Work" data-name="036---No-Work" transform="translate(0 0)">
        <g id="Icons" transform="translate(0.788 0.788)">
          <path id="Shape" d="M17.181,7.09l2.233-3.254a1.576,1.576,0,0,1,1.3-.685h6.194a1.576,1.576,0,0,1,1.3.681L30.453,7.09h5.181V4.727a1.576,1.576,0,0,0-1.576-1.576H32.687a1.576,1.576,0,0,1-1.212-.57L30.041.854A2.363,2.363,0,0,0,28.222,0H19.413a2.363,2.363,0,0,0-1.819.854L16.16,2.582a1.576,1.576,0,0,1-1.212.57H13.576A1.576,1.576,0,0,0,12,4.727V7.09Z" transform="translate(-2.546 0)" fill="#607d8b"/>
          <path id="Shape-2" data-name="Shape" d="M20.617,47.908H3.151A3.151,3.151,0,0,1,0,44.756V29a3.151,3.151,0,0,0,3.151,3.151H16.528a14.681,14.681,0,0,0-.772,4.727A14.917,14.917,0,0,0,20.617,47.908Z" transform="translate(0 -6.153)" fill="sienna"/>
          <path id="Shape-3" data-name="Shape" d="M19.363,37.727A14.681,14.681,0,0,1,20.135,33H17.772A14.681,14.681,0,0,0,17,37.727a14.917,14.917,0,0,0,4.861,11.029h2.363A14.917,14.917,0,0,1,19.363,37.727Z" transform="translate(-3.607 -7.002)" fill="#783e22"/>
          <path id="Shape-4" data-name="Shape" d="M52.3,12.151V15.3H49.5A3.5,3.5,0,0,1,46,11.8V9h3.151A3.151,3.151,0,0,1,52.3,12.151Z" transform="translate(-9.761 -1.91)" fill="#7f8e94"/>
          <path id="Shape-5" data-name="Shape" d="M49.363,9H47a3.151,3.151,0,0,1,3.151,3.151V15.3h2.363V12.151A3.151,3.151,0,0,0,49.363,9Z" transform="translate(-9.973 -1.91)" fill="#545c60"/>
          <path id="Shape-6" data-name="Shape" d="M42.542,15.3v8.154a14.957,14.957,0,0,0-26.014,4.451H3.151A3.151,3.151,0,0,1,0,24.756V15.3H2.8a3.5,3.5,0,0,0,3.5-3.5V9H36.239v2.8a3.5,3.5,0,0,0,3.5,3.5Z" transform="translate(0 -1.91)" fill="sienna"/>
          <path id="Shape-7" data-name="Shape" d="M51,17v5.733a15,15,0,0,1,2.363,2.421V17Z" transform="translate(-10.821 -3.607)" fill="#783e22"/>
          <path id="Shape-8" data-name="Shape" d="M6.3,9v2.8a3.5,3.5,0,0,1-3.5,3.5H0V12.151A3.151,3.151,0,0,1,3.151,9Z" transform="translate(0 -1.91)" fill="#7f8e94"/>
          <path id="Shape-9" data-name="Shape" d="M49.929,34.968a14.983,14.983,0,1,1-3.151-9.178,14.983,14.983,0,0,1,3.151,9.178Z" transform="translate(-4.236 -4.243)" fill="#f44335"/>
          <path id="Shape-10" data-name="Shape" d="M50.49,25.79A14.929,14.929,0,0,0,38.672,20c-.38,0-.752.029-1.125.057a14.957,14.957,0,0,1-.091,29.822c.4.033.806.058,1.216.058A14.961,14.961,0,0,0,50.49,25.79Z" transform="translate(-7.948 -4.244)" fill="#c81e1e"/>
          <path id="Shape-11" data-name="Shape" d="M50.49,25.79A14.929,14.929,0,0,0,38.672,20c-.38,0-.752.029-1.125.057a14.957,14.957,0,0,1-.091,29.822c.4.033.806.058,1.216.058A14.961,14.961,0,0,0,50.49,25.79Z" transform="translate(-7.948 -4.244)" fill="#c81e1e"/>
          <path id="Shape-12" data-name="Shape" d="M44.545,41.474a.729.729,0,0,1,0,1.024L42.5,44.547a.729.729,0,0,1-1.024,0l-4.595-4.6-4.6,4.6a.729.729,0,0,1-1.024,0L29.209,42.5a.729.729,0,0,1,0-1.024l4.6-4.595-4.6-4.6a.729.729,0,0,1,0-1.024l2.048-2.048a.729.729,0,0,1,1.024,0l4.595,4.6,4.6-4.6a.729.729,0,0,1,1.024,0l2.048,2.048a.729.729,0,0,1,0,1.024l-4.6,4.595Z" transform="translate(-6.153 -6.153)" fill="#f5f5f5"/>
        </g>
        <g id="Icons_copy">
          <path id="Shape-13" data-name="Shape" d="M44.118,11.029A3.944,3.944,0,0,0,40.179,7.09H34.664V5.515A2.363,2.363,0,0,0,32.3,3.151H30.929a.788.788,0,0,1-.607-.284L28.888,1.139A3.141,3.141,0,0,0,26.463,0H17.654a3.143,3.143,0,0,0-2.425,1.138L13.8,2.866a.788.788,0,0,1-.607.285H11.817A2.363,2.363,0,0,0,9.454,5.515V7.09H3.939A3.944,3.944,0,0,0,0,11.029V39.391A3.944,3.944,0,0,0,3.939,43.33H21.125A15.729,15.729,0,0,0,44.118,22.1Zm-6.3-2.363h2.363a2.363,2.363,0,0,1,2.363,2.363v2.363H40.528a2.716,2.716,0,0,1-2.713-2.713ZM11.029,5.515a.788.788,0,0,1,.788-.788h1.372a2.359,2.359,0,0,0,1.819-.854l1.434-1.728a1.571,1.571,0,0,1,1.212-.569h8.809a1.569,1.569,0,0,1,1.212.57l1.435,1.728a2.358,2.358,0,0,0,1.818.853H32.3a.788.788,0,0,1,.788.788V7.09H29.109L27.094,4.175a2.363,2.363,0,0,0-1.945-1.024H18.955a2.363,2.363,0,0,0-1.949,1.024l-2,2.915H11.029ZM27.194,7.09H16.918L18.3,5.069a.788.788,0,0,1,.651-.342h6.194a.788.788,0,0,1,.648.34ZM1.576,11.029A2.363,2.363,0,0,1,3.939,8.666H6.3V10.68a2.716,2.716,0,0,1-2.713,2.713H1.576Zm0,3.939H3.589A4.294,4.294,0,0,0,7.878,10.68V8.666H36.239V10.68a4.294,4.294,0,0,0,4.289,4.289h2.014v5.311A15.722,15.722,0,0,0,16.772,26H3.939a2.363,2.363,0,0,1-2.363-2.363ZM3.939,41.754a2.363,2.363,0,0,1-2.363-2.363V26.765a3.9,3.9,0,0,0,2.363.808H16.275a15.562,15.562,0,0,0,3.288,14.181ZM45.693,31.513A14.181,14.181,0,1,1,31.513,17.332,14.181,14.181,0,0,1,45.693,31.513Z" transform="translate(0 0)"/>
          <path id="Shape-14" data-name="Shape" d="M46.332,32.556a1.5,1.5,0,0,0-.443-1.07l-2.044-2.048a1.516,1.516,0,0,0-2.14,0L37.666,33.49l-4.039-4.045a1.515,1.515,0,0,0-2.14,0l-2.044,2.044a1.516,1.516,0,0,0,0,2.141l4.048,4.035L29.446,41.7a1.515,1.515,0,0,0,0,2.14l2.044,2.048a1.514,1.514,0,0,0,2.14,0l4.035-4.052,4.039,4.045a1.516,1.516,0,0,0,2.14,0l2.044-2.044a1.516,1.516,0,0,0,0-2.141l-4.048-4.035,4.045-4.038a1.5,1.5,0,0,0,.446-1.071Zm-6.158,4.551a.788.788,0,0,0,0,1.116l4.558,4.551-1.957,1.957-4.551-4.558a.788.788,0,0,0-1.116,0l-4.551,4.558L30.6,42.774l4.558-4.551a.788.788,0,0,0,0-1.116L30.6,32.556,32.557,30.6l4.551,4.558a.811.811,0,0,0,1.116,0L42.775,30.6l1.957,1.957Z" transform="translate(-6.153 -6.152)"/>
        </g>
      </g>
    </g>
  </g>
</svg>
