<svg xmlns="http://www.w3.org/2000/svg" xmlns:xlink="http://www.w3.org/1999/xlink" width="93.934" height="93.934" viewBox="0 0 93.934 93.934">
  <defs>
    <filter id="Trazado_982547" x="0" y="0" width="93.934" height="93.934" filterUnits="userSpaceOnUse">
      <feOffset dy="3" input="SourceAlpha"/>
      <feGaussianBlur stdDeviation="3" result="blur"/>
      <feFlood flood-opacity="0.161"/>
      <feComposite operator="in" in2="blur"/>
      <feComposite in="SourceGraphic"/>
    </filter>
  </defs>
  <g id="Grupo_1201155" data-name="Grupo 1201155" transform="translate(-1029.033 -5076.667)">
    <g id="Grupo_1184835" data-name="Grupo 1184835" transform="translate(0 4341.194)">
      <g id="Grupo_1175135" data-name="Grupo 1175135" transform="translate(840 -1250.527)">
        <g id="Grupo_1167337" data-name="Grupo 1167337" transform="translate(198.033 1992)">
          <g id="Grupo_1166720" data-name="Grupo 1166720">
            <g id="Grupo_1164305" data-name="Grupo 1164305">
              <g id="Grupo_1163948" data-name="Grupo 1163948">
                <g id="Grupo_1158168" data-name="Grupo 1158168">
                  <g id="Grupo_1152576" data-name="Grupo 1152576">
                    <g id="Grupo_1148633" data-name="Grupo 1148633">
                      <g id="Grupo_1148525" data-name="Grupo 1148525">
                        <g transform="matrix(1, 0, 0, 1, -9, -6)" filter="url(#Trazado_982547)">
                          <g id="Trazado_982547-2" data-name="Trazado 982547" transform="translate(9 6)" fill="#e8edf7">
                            <path d="M 37.966796875 74.43359375 C 33.04315185546875 74.43359375 28.26757431030273 73.46962738037109 23.77274131774902 71.56847381591797 C 19.43047523498535 69.73184967041016 15.53040790557861 67.10224914550781 12.18087482452393 63.75271987915039 C 8.831341743469238 60.4031867980957 6.201741218566895 56.50312042236328 4.365118980407715 52.16086196899414 C 2.463963508605957 47.66601943969727 1.499996900558472 42.89044189453125 1.499996900558472 37.966796875 C 1.499996900558472 33.04315185546875 2.463963508605957 28.26757431030273 4.365118980407715 23.77274131774902 C 6.201741218566895 19.43047523498535 8.831341743469238 15.53040790557861 12.18087482452393 12.18087482452393 C 15.53040790557861 8.831341743469238 19.43047523498535 6.201741218566895 23.77274131774902 4.365118980407715 C 28.26757431030273 2.463963508605957 33.04315185546875 1.499996900558472 37.966796875 1.499996900558472 C 42.89044189453125 1.499996900558472 47.66601943969727 2.463963508605957 52.16086196899414 4.365118980407715 C 56.50312042236328 6.201741218566895 60.4031867980957 8.831341743469238 63.75271987915039 12.18087482452393 C 67.10224914550781 15.53040790557861 69.73184967041016 19.43047523498535 71.56847381591797 23.77274131774902 C 73.46962738037109 28.26757431030273 74.43359375 33.04315185546875 74.43359375 37.966796875 C 74.43359375 42.89044189453125 73.46962738037109 47.66601943969727 71.56847381591797 52.16086196899414 C 69.73184967041016 56.50313186645508 67.10224914550781 60.4031867980957 63.75271987915039 63.75271987915039 C 60.4031867980957 67.10224914550781 56.50313186645508 69.73184967041016 52.16086196899414 71.56847381591797 C 47.66601943969727 73.46962738037109 42.89044189453125 74.43359375 37.966796875 74.43359375 Z" stroke="none"/>
                            <path d="M 37.966796875 3 C 33.2449836730957 3 28.66600799560547 3.924095153808594 24.35705947875977 5.746635437011719 C 20.19359588623047 7.507637023925781 16.45379638671875 10.02928161621094 13.24153518676758 13.24153518676758 C 10.02927398681641 16.45379638671875 7.507621765136719 20.19359588623047 5.746635437011719 24.35705947875977 C 3.924095153808594 28.66600799560547 3 33.2449836730957 3 37.966796875 C 3 42.6886100769043 3.924095153808594 47.26758575439453 5.746635437011719 51.57653427124023 C 7.507621765136719 55.73999786376953 10.02927398681641 59.47979736328125 13.24153518676758 62.69205856323242 C 16.45379638671875 65.90431976318359 20.19359588623047 68.42597198486328 24.35705947875977 70.18695831298828 C 28.66600799560547 72.00949859619141 33.2449836730957 72.93359375 37.966796875 72.93359375 C 42.6886100769043 72.93359375 47.26758575439453 72.00949859619141 51.57653427124023 70.18695831298828 C 55.73999786376953 68.42597198486328 59.47979736328125 65.90431976318359 62.69205856323242 62.69205856323242 C 65.90431976318359 59.47979736328125 68.42597198486328 55.73999786376953 70.18695831298828 51.57653427124023 C 72.00949859619141 47.26758575439453 72.93359375 42.6886100769043 72.93359375 37.966796875 C 72.93359375 33.2449836730957 72.00949859619141 28.66600799560547 70.18695831298828 24.35705947875977 C 68.42597198486328 20.19359588623047 65.90431976318359 16.45379638671875 62.69205856323242 13.24153518676758 C 59.47979736328125 10.02928161621094 55.73999786376953 7.507637023925781 51.57653427124023 5.746635437011719 C 47.26758575439453 3.924095153808594 42.6886100769043 3 37.966796875 3 M 37.966796875 0 C 58.93528366088867 0 75.93359375 16.99832153320312 75.93359375 37.966796875 C 75.93359375 58.93528366088867 58.93528366088867 75.93359375 37.966796875 75.93359375 C 16.99831008911133 75.93359375 0 58.93528366088867 0 37.966796875 C 0 16.99832153320312 16.99831008911133 0 37.966796875 0 Z" stroke="none" fill="#2e5bb6"/>
                          </g>
                        </g>
                      </g>
                    </g>
                  </g>
                </g>
              </g>
            </g>
          </g>
        </g>
      </g>
    </g>
    <g id="desarrollo_1_" data-name="desarrollo (1)" transform="translate(1052.608 5095.68)">
      <g id="Grupo_1201153" data-name="Grupo 1201153" transform="translate(0.685 2.405)">
        <path id="Trazado_1042735" data-name="Trazado 1042735" d="M85.839,19.614l-7.467,2.652a1.8,1.8,0,0,0-.566,3.07l1.425,1.215-4.777,5.6-7.321-6.78a2.09,2.09,0,0,0-3.179.4L56.435,37.5l-6.548-5.993a2.09,2.09,0,0,0-2.821,3.083l8.378,7.667a2.09,2.09,0,0,0,3.169-.413l7.512-11.706L73.212,36.7a2.09,2.09,0,0,0,3.01-.178l6.189-7.261,1.426,1.215a1.8,1.8,0,0,0,2.942-1.045l1.436-7.793a1.8,1.8,0,0,0-2.376-2.025Z" transform="translate(-42.833 -18.567)" fill="#b3e59f"/>
        <g id="Grupo_1201151" data-name="Grupo 1201151" transform="translate(0 22.392)">
          <path id="Trazado_1042736" data-name="Trazado 1042736" d="M52.912,254.281a22.706,22.706,0,1,1-45.413,0Z" transform="translate(-7.499 -254.281)" fill="#80b4fb"/>
          <path id="Trazado_1042737" data-name="Trazado 1042737" d="M35.739,276.307A22.726,22.726,0,0,1,7.5,254.281H18.565A22.711,22.711,0,0,0,35.739,276.307Z" transform="translate(-7.498 -254.281)" fill="#61a2f9"/>
        </g>
        <g id="Grupo_1201152" data-name="Grupo 1201152" transform="translate(8.672 0)">
          <circle id="Elipse_12581" data-name="Elipse 12581" cx="6.974" cy="6.974" r="6.974" transform="translate(0 0)" fill="#f6e266"/>
          <path id="Trazado_1042738" data-name="Trazado 1042738" d="M111.075,22.96a6.975,6.975,0,1,1,0-13.536,6.977,6.977,0,0,0,0,13.536Z" transform="translate(-102.407 -9.217)" fill="#ffd064"/>
        </g>
      </g>
      <g id="Grupo_1201154" data-name="Grupo 1201154" transform="translate(0 1.72)">
        <path id="Trazado_1042739" data-name="Trazado 1042739" d="M46.783,24.8a.685.685,0,0,0-.685-.685H18.285l5.826-9.079L30.6,21.042a2.775,2.775,0,0,0,4-.237l2.9-3.4a.685.685,0,0,0-1.043-.889l-2.9,3.4a1.4,1.4,0,0,1-2.023.12l-7.088-6.565A.685.685,0,0,0,23.4,13.6L16.657,24.112h-4.51L5.38,17.92a1.4,1.4,0,0,1,1.9-2.072l6.548,5.993a.685.685,0,0,0,1.04-.135l3.109-4.846A7.671,7.671,0,0,0,23.99,9.407a1.4,1.4,0,0,1,.529.308L31.841,16.5a.685.685,0,0,0,.466.182h.04a.685.685,0,0,0,.481-.24l4.776-5.6a.685.685,0,0,0-.077-.966L36.1,8.653a1.117,1.117,0,0,1,.351-1.9L43.92,4.1a1.117,1.117,0,0,1,1.472,1.256l-1.435,7.793a1.117,1.117,0,0,1-1.824.647l-1.425-1.214a.685.685,0,0,0-.966.077l-1.517,1.779a.685.685,0,0,0,1.043.889l1.072-1.258.9.77A2.488,2.488,0,0,0,45.3,13.394L46.74,5.6a2.488,2.488,0,0,0-3.279-2.8L35.995,5.458A2.488,2.488,0,0,0,35.213,9.7l.9.771-3.868,4.539-6.8-6.3a2.765,2.765,0,0,0-1.589-.723,7.659,7.659,0,1,0-7.63,9.05L14.15,20.281,8.2,14.837a2.775,2.775,0,1,0-3.747,4.094l5.661,5.181H.685A.685.685,0,0,0,0,24.8a23.364,23.364,0,0,0,9.913,19.12A.685.685,0,1,0,10.7,42.8a22.073,22.073,0,0,1-2.665-2.22,21.9,21.9,0,0,1,5.584-3.957,29.478,29.478,0,0,0,1.65,4.522,15.593,15.593,0,0,0,3.685,5.224,21.93,21.93,0,0,1-6-2.173.685.685,0,1,0-.65,1.206,23.426,23.426,0,0,0,11.071,2.788h.03A23.391,23.391,0,0,0,46.783,24.8ZM10.043,9.38a6.289,6.289,0,1,1,6.289,6.289A6.3,6.3,0,0,1,10.043,9.38ZM39.7,39.6a23.266,23.266,0,0,0-6.19-4.327,45.16,45.16,0,0,0,1.165-9.786H45.4A21.848,21.848,0,0,1,39.7,39.6ZM13.479,25.482H33.3a43.967,43.967,0,0,1-1.068,9.22,23.463,23.463,0,0,0-17.689,0A43.959,43.959,0,0,1,13.479,25.482ZM7.087,39.592A21.9,21.9,0,0,1,1.381,25.482H12.108a45.162,45.162,0,0,0,1.165,9.786A23.265,23.265,0,0,0,7.087,39.592Zm9.428.971a28.368,28.368,0,0,1-1.629-4.517,22.079,22.079,0,0,1,17.012,0,28.357,28.357,0,0,1-1.629,4.517c-1.88,4.026-4.316,6.246-6.862,6.255H23.38c-2.547-.007-4.984-2.227-6.865-6.255Zm15,.58a29.477,29.477,0,0,0,1.65-4.522,21.907,21.907,0,0,1,5.586,3.959,21.854,21.854,0,0,1-10.929,5.8,15.575,15.575,0,0,0,3.694-5.232Z" transform="translate(0 -1.72)"/>
        <path id="Trazado_1042740" data-name="Trazado 1042740" d="M153.569,38.164v-.436a2.674,2.674,0,0,0,1.919-2.122,2.355,2.355,0,0,0-1.6-2.665,7.09,7.09,0,0,1-1.805-.84.635.635,0,0,1-.153-.614.862.862,0,0,1,.571-.681,1.5,1.5,0,0,1,1.374.219.685.685,0,1,0,.877-1.054,2.811,2.811,0,0,0-1.181-.55v-.328a.685.685,0,0,0-1.371,0v.375l-.094.026a2.22,2.22,0,0,0-1.523,1.74,1.976,1.976,0,0,0,.654,1.946,7.651,7.651,0,0,0,2.194,1.054.977.977,0,0,1,.706,1.146,1.267,1.267,0,0,1-1.257,1.069,2.064,2.064,0,0,1-1.485-.39.685.685,0,1,0-.75,1.147,3.194,3.194,0,0,0,1.555.589v.37a.685.685,0,1,0,1.371,0Z" transform="translate(-136.597 -25.969)"/>
      </g>
    </g>
  </g>
</svg>
