<svg xmlns="http://www.w3.org/2000/svg" xmlns:xlink="http://www.w3.org/1999/xlink" width="400" height="363" viewBox="0 0 400 363">
  <defs>
    <clipPath id="clip-path">
      <rect id="Rectángulo_416209" data-name="Rectángulo 416209" width="400" height="363" transform="translate(180 9211)" fill="#fff" stroke="#707070" stroke-width="1" opacity="0.84"/>
    </clipPath>
    <clipPath id="clip-path-2">
      <rect id="Rectángulo_416203" data-name="Rectángulo 416203" width="587" height="391" transform="translate(-0.05 0.3)"/>
    </clipPath>
    <clipPath id="clip-path-3">
      <path id="Trazado_1042351" data-name="Trazado 1042351" d="M233.436,184.282l-20.66-8.464-47.16,115.109,20.661,8.464c24.175,9.9,54.33-7.834,67.354-39.62S257.612,194.187,233.436,184.282Z" transform="translate(-165.616 -175.818)"/>
    </clipPath>
    <clipPath id="clip-path-6">
      <path id="Trazado_1042404" data-name="Trazado 1042404" d="M35.883,409.029l6.63-6.927L95.46,445.529l-6.63,6.927c-7.758,8.106-25.9,4.955-40.52-7.037S28.125,417.134,35.883,409.029Z" transform="translate(-32.381 -402.102)"/>
    </clipPath>
    <clipPath id="clip-path-7">
      <path id="Trazado_1042412" data-name="Trazado 1042412" d="M253.826,35.678l-4.253-6.988L208.157,53.9l4.253,6.988c4.976,8.177,18.281,9.163,29.719,2.2S258.8,43.855,253.826,35.678Z" transform="translate(-208.157 -28.69)"/>
    </clipPath>
  </defs>
  <g id="Enmascarar_grupo_1098873" data-name="Enmascarar grupo 1098873" transform="translate(-180 -9211)" clip-path="url(#clip-path)">
    <g id="Grupo_1200940" data-name="Grupo 1200940">
      <circle id="Elipse_12580" data-name="Elipse 12580" cx="194.5" cy="194.5" r="194.5" transform="translate(185 9289)" fill="#fcf2ec"/>
      <g id="Grupo_1200939" data-name="Grupo 1200939" transform="translate(1230.05 -858.614)">
        <g id="Grupo_1200886" data-name="Grupo 1200886" transform="translate(-1009.797 10109.959)">
          <circle id="Elipse_12573" data-name="Elipse 12573" cx="120.135" cy="120.135" r="120.135" transform="translate(0 0)" fill="#bfd7b3"/>
          <path id="Trazado_1042309" data-name="Trazado 1042309" d="M145.946,63.4c-46.2,4.317-70.181,34.93-81.977,60.027s-13.7,54.079-9.014,81.413c4.135,24.114,13.5,47.755,29.7,66.095s39.672,30.9,64.138,31" transform="translate(-28.602 -62.701)" fill="none" stroke="#94af85" stroke-miterlimit="10" stroke-width="1.2"/>
          <path id="Trazado_1042310" data-name="Trazado 1042310" d="M156.708,63.4C136.431,74.983,116,103.115,109.152,125.441s-7.495,46.073-6.6,69.408c.861,22.479,3.178,45.248,11.412,66.182s26.387,34,46.892,41.939" transform="translate(-39.364 -62.701)" fill="none" stroke="#94af85" stroke-miterlimit="10" stroke-width="1.2"/>
          <path id="Trazado_1042311" data-name="Trazado 1042311" d="M175.284,301.935c-7.6-76.437-7.873-161.813-4.146-238.537" transform="translate(-53.794 -62.701)" fill="none" stroke="#94af85" stroke-miterlimit="10" stroke-width="1.2"/>
          <path id="Trazado_1042312" data-name="Trazado 1042312" d="M176.21,302.97c36.4-28.509,61.783-70.1,61.786-116.329C238,130.113,217.138,81.73,173.07,63.4" transform="translate(-54.72 -62.701)" fill="none" stroke="#94af85" stroke-miterlimit="10" stroke-width="1.2"/>
          <path id="Trazado_1042313" data-name="Trazado 1042313" d="M173.071,63.4c28.274-.124,69.261,25.354,83.272,49.912s17.039,54.166,13.777,82.252c-2.869,24.7-10.6,49.275-25.474,69.2s-43.683,35.822-68.436,38.207" transform="translate(-54.72 -62.701)" fill="none" stroke="#94af85" stroke-miterlimit="10" stroke-width="1.2"/>
          <path id="Trazado_1042314" data-name="Trazado 1042314" d="M22.179,222.118h240.1" transform="translate(-22.011 -97.107)" fill="none" stroke="#94af85" stroke-miterlimit="10" stroke-width="1.2"/>
          <line id="Línea_890" data-name="Línea 890" x2="202.075" transform="translate(17.775 57.223)" fill="none" stroke="#94af85" stroke-miterlimit="10" stroke-width="1.2"/>
          <path id="Trazado_1042315" data-name="Trazado 1042315" d="M57.482,308.667H242.115" transform="translate(-29.663 -115.869)" fill="none" stroke="#94af85" stroke-miterlimit="10" stroke-width="1.2"/>
        </g>
        <g id="Grupo_1200890" data-name="Grupo 1200890" transform="translate(-985.428 10079.656)">
          <g id="Grupo_1200887" data-name="Grupo 1200887" transform="translate(217.289 220.709)">
            <line id="Línea_891" data-name="Línea 891" y1="6.898" x2="6.898" fill="none" stroke="#2d2b58" stroke-miterlimit="10" stroke-width="1.2"/>
            <line id="Línea_892" data-name="Línea 892" x2="6.898" y2="6.898" fill="none" stroke="#2d2b58" stroke-miterlimit="10" stroke-width="1.2"/>
          </g>
          <g id="Grupo_1200888" data-name="Grupo 1200888" transform="translate(103.624 0)">
            <line id="Línea_893" data-name="Línea 893" y1="6.897" x2="6.898" fill="none" stroke="#2d2b58" stroke-miterlimit="10" stroke-width="1.2"/>
            <line id="Línea_894" data-name="Línea 894" x2="6.898" y2="6.897" fill="none" stroke="#2d2b58" stroke-miterlimit="10" stroke-width="1.2"/>
          </g>
          <g id="Grupo_1200889" data-name="Grupo 1200889" transform="translate(0 266.087)">
            <line id="Línea_895" data-name="Línea 895" y1="6.897" x2="6.898" fill="none" stroke="#2d2b58" stroke-miterlimit="10" stroke-width="1.2"/>
            <line id="Línea_896" data-name="Línea 896" x2="6.898" y2="6.897" fill="none" stroke="#2d2b58" stroke-miterlimit="10" stroke-width="1.2"/>
          </g>
        </g>
        <g id="Grupo_1200891" data-name="Grupo 1200891" transform="translate(-1027 10081.259)">
          <path id="Trazado_1042316" data-name="Trazado 1042316" d="M2.072,309.564A14.9,14.9,0,0,0,15.4,301.337l24.354-48.6h81.514a14.9,14.9,0,0,0,11.922-5.96l124.7-166.193,8.5,5.653a6.024,6.024,0,0,0,9.358-4.834l1.487-49.327a6.024,6.024,0,0,0-8.515-5.665l-44.92,20.432a6.025,6.025,0,0,0-.843,10.5l10.078,6.7L113.815,222.932H30.549a14.9,14.9,0,0,0-13.325,8.227L0,265.527" transform="translate(0 -25.866)" fill="#01899b"/>
          <path id="Trazado_1042317" data-name="Trazado 1042317" d="M208.264,124.864,118.582,244.392H35.316a14.9,14.9,0,0,0-13.325,8.227" transform="translate(-4.767 -47.326)" fill="none" stroke="#2d2b58" stroke-miterlimit="10" stroke-width="1.2"/>
        </g>
        <g id="Grupo_1200892" data-name="Grupo 1200892" transform="translate(-996.953 10151.74)">
          <path id="Trazado_1042318" data-name="Trazado 1042318" d="M310.658,131.3c-9.029,1.564-9.937,2.832-11.058,15.441-1.12-12.609-2.029-13.877-11.058-15.441,9.029-1.564,9.937-2.832,11.058-15.441C300.721,128.462,301.629,129.731,310.658,131.3Z" transform="translate(-92.595 -115.854)" fill="#f9ebeb"/>
          <path id="Trazado_1042319" data-name="Trazado 1042319" d="M60.478,215.844c-9.029,1.564-9.937,2.832-11.058,15.441-1.12-12.609-2.029-13.877-11.058-15.441,9.029-1.564,9.937-2.832,11.058-15.441C50.541,213.012,51.449,214.28,60.478,215.844Z" transform="translate(-38.363 -134.182)" fill="#f9ebeb"/>
        </g>
        <g id="Grupo_1200915" data-name="Grupo 1200915" transform="translate(-1027 10061.314)">
          <g id="Grupo_1200914" data-name="Grupo 1200914" transform="translate(0 0)" clip-path="url(#clip-path-2)">
            <g id="Grupo_1200894" data-name="Grupo 1200894" transform="translate(137.243 75.322)">
              <path id="Trazado_1042320" data-name="Trazado 1042320" d="M217.746,102.978c-.656-1.808-2.455-2.972-4.1-3.974a17.234,17.234,0,0,0-25.543,19.47,35,35,0,0,0,28.633.1l.41-10.054A6.436,6.436,0,0,0,217.746,102.978Z" transform="translate(-177.883 -96.57)" fill="#2d2b58"/>
              <g id="Grupo_1200893" data-name="Grupo 1200893" transform="translate(0 7.593)">
                <path id="Trazado_1042321" data-name="Trazado 1042321" d="M193.029,106.264a20.756,20.756,0,0,0-7.352,11.257c-.735,2.931-.82,6-1.635,8.912-1.476,5.269-5.2,9.567-8.814,13.674,2.578,1.756,5.714,2.44,8.764,3.088,4.856,1.032,9.765,2.069,14.729,1.957s10.061-1.483,13.8-4.752a4.079,4.079,0,0,0,1.368-1.852,4.6,4.6,0,0,0-.2-2.412,146.292,146.292,0,0,0-5.581-16.707Z" transform="translate(-175.227 -106.264)" fill="#2d2b58"/>
              </g>
            </g>
            <g id="Grupo_1200913" data-name="Grupo 1200913" transform="translate(70.849 71.493)">
              <path id="Trazado_1042322" data-name="Trazado 1042322" d="M270.049,163.361s34.569,33.98,25.911,86.132L280.98,260.708l-27.209-88.739Z" transform="translate(-125.859 -107.219)" fill="#4b56dd"/>
              <g id="Grupo_1200908" data-name="Grupo 1200908">
                <g id="Grupo_1200903" data-name="Grupo 1200903">
                  <g id="Grupo_1200895" data-name="Grupo 1200895" transform="translate(28.791 246.652)">
                    <path id="Trazado_1042323" data-name="Trazado 1042323" d="M244.974,407.826,127.217,406.6q3.486,30.228,6.972,60.455c2.774,24.063,24.661,40.267,41.581,57.6,1.165,12.581,3.008,24.509,4.173,37.09,16.725,1.019,33.627,1.893,50.351,2.913,3.82-35.26,7.806-70.031,11.625-105.292C243.775,442.24,245.634,425.039,244.974,407.826Z" transform="translate(-127.217 -406.599)" fill="#f9b1a0"/>
                    <path id="Trazado_1042324" data-name="Trazado 1042324" d="M187.327,531.439q-2.5-48.033-5-96.066" transform="translate(-139.163 -412.836)" fill="none" stroke="#2d2b58" stroke-linecap="round" stroke-linejoin="round" stroke-miterlimit="10" stroke-width="1.2"/>
                  </g>
                  <g id="Grupo_1200897" data-name="Grupo 1200897" transform="translate(0 42.286)">
                    <path id="Trazado_1042325" data-name="Trazado 1042325" d="M234.767,217.123A1477.85,1477.85,0,0,1,254.588,380.06l-148.774-1.91c3.412-39.031,7.412-74.1,10.824-113.129-25.456-3.042-29.527-29.676-24.046-43.689,9.643-24.655,36.223-60.118,55.713-65.97l18.26-5.483a32.807,32.807,0,0,0,19.961,7.875,30.551,30.551,0,0,0,19.653-6.455c3.273.769,6.906,1.5,10.18,2.271a86.167,86.167,0,0,1,18.288,6.868" transform="translate(-90.457 -146.582)" fill="#4b56dd"/>
                    <path id="Trazado_1042326" data-name="Trazado 1042326" d="M272.561,220.675l-7.2-61.189" transform="translate(-128.372 -148.665)" fill="none" stroke="#2d2b58" stroke-linecap="round" stroke-linejoin="round" stroke-miterlimit="10" stroke-width="1.2"/>
                    <path id="Trazado_1042327" data-name="Trazado 1042327" d="M112.422,427.029l145.824-6.981" transform="translate(-95.219 -205.148)" fill="none" stroke="#2d2b58" stroke-linecap="round" stroke-linejoin="round" stroke-miterlimit="10" stroke-width="1.2"/>
                    <path id="Trazado_1042328" data-name="Trazado 1042328" d="M120.962,318.985l24.85-8.31c-1.276,16.2-2.637,32.1-3.913,48.3-8.091,1.5-17.431,1.94-25.522,3.438" transform="translate(-96.076 -181.439)" fill="none" stroke="#2d2b58" stroke-linecap="round" stroke-linejoin="round" stroke-miterlimit="10" stroke-width="1.2"/>
                    <path id="Trazado_1042329" data-name="Trazado 1042329" d="M277.83,313.313c-11.409-2.15-23.325-4.773-34.734-6.923q2.556,26.442,5.114,52.884c11.426.522,22.592-.232,34.019.289" transform="translate(-123.545 -180.51)" fill="none" stroke="#2d2b58" stroke-linecap="round" stroke-linejoin="round" stroke-miterlimit="10" stroke-width="1.2"/>
                    <g id="Grupo_1200896" data-name="Grupo 1200896" transform="translate(69.436)">
                      <path id="Trazado_1042330" data-name="Trazado 1042330" d="M226.312,149.121c-5.335-.7-10.73-1.49-16.065-2.191a10.149,10.149,0,0,1-8.67,3.9,10.732,10.732,0,0,1-8.323-5.165l-13.793,3.467c-.367,11.4-.486,22.656-.155,33.991a3.529,3.529,0,0,0,6.29,2.082,144.881,144.881,0,0,0,16.382-25.194c2.254,9.428,5.028,18.914,8.184,28.178a3.515,3.515,0,0,0,6.667.01A253.269,253.269,0,0,0,226.312,149.121Z" transform="translate(-179.111 -145.67)" fill="#f9ebeb"/>
                      <path id="Trazado_1042331" data-name="Trazado 1042331" d="M182.691,150.225l.343,33.877a170.791,170.791,0,0,0,17.873-23.9" transform="translate(-179.887 -146.657)" fill="none" stroke="#2d2b58" stroke-linecap="round" stroke-linejoin="round" stroke-miterlimit="10" stroke-width="1.2"/>
                      <path id="Trazado_1042332" data-name="Trazado 1042332" d="M211.291,159.567a178.805,178.805,0,0,0,9.423,29.073,193.221,193.221,0,0,0,9.488-37.812" transform="translate(-186.087 -146.788)" fill="none" stroke="#2d2b58" stroke-linecap="round" stroke-linejoin="round" stroke-miterlimit="10" stroke-width="1.2"/>
                    </g>
                  </g>
                  <g id="Grupo_1200901" data-name="Grupo 1200901" transform="translate(74.269)">
                    <g id="Grupo_1200900" data-name="Grupo 1200900" transform="translate(1.277)">
                      <path id="Trazado_1042333" data-name="Trazado 1042333" d="M214.577,140.6c.046-2.921.094-5.931.14-8.851a13.486,13.486,0,0,0,6.242-7.457,14.39,14.39,0,0,0-.372-9.669,51.428,51.428,0,0,0-4.948-9.083c-2.1-.146-3.932-.089-6.036-.235a3.48,3.48,0,0,1-4.941,2.338,4.2,4.2,0,0,1-2.445,2.936,4.736,4.736,0,0,1-4.066-.148c-.687,1.719-1.687,3.931-2.374,5.65a7.4,7.4,0,1,0-.335,14.553c-.489,2.605-1.331,5.483-1.819,8.088C196.713,148.081,208.982,149.832,214.577,140.6Z" transform="translate(-186.913 -94.635)" fill="#f9b1a0"/>
                      <g id="Grupo_1200898" data-name="Grupo 1200898" transform="translate(13.856 14.169)">
                        <path id="Trazado_1042334" data-name="Trazado 1042334" d="M210.644,120.228a1.059,1.059,0,1,0-1.059,1.059A1.059,1.059,0,0,0,210.644,120.228Z" transform="translate(-205.453 -111.808)" fill="#2d2b58"/>
                        <path id="Trazado_1042335" data-name="Trazado 1042335" d="M225.695,116.2a1.059,1.059,0,1,0-1.059,1.059A1.059,1.059,0,0,0,225.695,116.2Z" transform="translate(-208.716 -110.935)" fill="#2d2b58"/>
                        <path id="Trazado_1042336" data-name="Trazado 1042336" d="M204.6,116.452a3.743,3.743,0,0,1,5.815-2.831" transform="translate(-204.603 -110.471)" fill="none" stroke="#2d2b58" stroke-linecap="round" stroke-linejoin="round" stroke-miterlimit="10" stroke-width="1.2"/>
                        <path id="Trazado_1042337" data-name="Trazado 1042337" d="M221.035,111.17l3.156-1.4" transform="translate(-208.165 -109.771)" fill="none" stroke="#2d2b58" stroke-linecap="round" stroke-linejoin="round" stroke-miterlimit="10" stroke-width="1.2"/>
                        <path id="Trazado_1042338" data-name="Trazado 1042338" d="M218.224,118l2.1,3.858c-.623.272-1.365.539-1.989.811" transform="translate(-207.556 -111.556)" fill="none" stroke="#2d2b58" stroke-linecap="round" stroke-linejoin="round" stroke-miterlimit="10" stroke-width="1.2"/>
                        <path id="Trazado_1042339" data-name="Trazado 1042339" d="M213.143,126.211a1.69,1.69,0,0,0,3.284.587" transform="translate(-206.454 -113.335)" fill="none" stroke="#2d2b58" stroke-linecap="round" stroke-linejoin="round" stroke-miterlimit="10" stroke-width="1.2"/>
                      </g>
                      <g id="Grupo_1200899" data-name="Grupo 1200899" transform="translate(3.739 26.169)">
                        <path id="Trazado_1042340" data-name="Trazado 1042340" d="M191.686,125.093l5.23,1.169" transform="translate(-191.686 -125.093)" fill="none" stroke="#2d2b58" stroke-linecap="round" stroke-linejoin="round" stroke-miterlimit="10" stroke-width="1.2"/>
                        <path id="Trazado_1042341" data-name="Trazado 1042341" d="M219.782,139.1a14.091,14.091,0,0,1-11.712.427" transform="translate(-195.238 -128.13)" fill="none" stroke="#2d2b58" stroke-linecap="round" stroke-linejoin="round" stroke-miterlimit="10" stroke-width="1.2"/>
                      </g>
                      <path id="Trazado_1042342" data-name="Trazado 1042342" d="M215.344,104.172a4.684,4.684,0,0,1-.941,5.163" transform="translate(-192.872 -94.389)" fill="none" stroke="#2d2b58" stroke-linecap="round" stroke-linejoin="round" stroke-miterlimit="10" stroke-width="1.2"/>
                      <path id="Trazado_1042343" data-name="Trazado 1042343" d="M202.135,96.9a4.684,4.684,0,0,1-.541-5.219" transform="translate(-189.975 -91.681)" fill="none" stroke="#2d2b58" stroke-linecap="round" stroke-linejoin="round" stroke-miterlimit="10" stroke-width="1.2"/>
                    </g>
                    <circle id="Elipse_12574" data-name="Elipse 12574" cx="6.295" cy="6.295" r="6.295" transform="translate(0 12.752) rotate(-80.758)" fill="#2d2b58"/>
                  </g>
                  <g id="Grupo_1200902" data-name="Grupo 1200902" transform="translate(59.297 387.043)">
                    <path id="Trazado_1042344" data-name="Trazado 1042344" d="M214,593.707a12.376,12.376,0,0,0-23.07,0c-1.454.008-2.889,0-4.352.016.146,14-2.871,21.248-11.682,26.6-2.963,1.8-8.731,3.749-8.731,7.421l72.933-.4c1.1-11.426,1.975-22.224,3.078-33.65C232.651,593.782,223.327,593.743,214,593.707Z" transform="translate(-166.166 -585.846)" fill="#f9ebeb"/>
                    <path id="Trazado_1042345" data-name="Trazado 1042345" d="M201.958,604.888l16.118-.352" transform="translate(-173.925 -589.897)" fill="none" stroke="#2d2b58" stroke-linecap="round" stroke-linejoin="round" stroke-miterlimit="10" stroke-width="1.2"/>
                    <path id="Trazado_1042346" data-name="Trazado 1042346" d="M199.568,610.991l18.924-.45" transform="translate(-173.407 -591.199)" fill="none" stroke="#2d2b58" stroke-linecap="round" stroke-linejoin="round" stroke-miterlimit="10" stroke-width="1.2"/>
                    <path id="Trazado_1042347" data-name="Trazado 1042347" d="M196.588,617.457l18.229.516" transform="translate(-172.761 -592.698)" fill="none" stroke="#2d2b58" stroke-linecap="round" stroke-linejoin="round" stroke-miterlimit="10" stroke-width="1.2"/>
                    <path id="Trazado_1042348" data-name="Trazado 1042348" d="M171.732,632.964l58.567-.569a14.989,14.989,0,0,1,10.563-8.154" transform="translate(-167.373 -594.169)" fill="none" stroke="#2d2b58" stroke-linecap="round" stroke-linejoin="round" stroke-miterlimit="10" stroke-width="1.2"/>
                  </g>
                </g>
                <g id="Grupo_1200907" data-name="Grupo 1200907" transform="translate(11.741 46.578)">
                  <path id="Trazado_1042349" data-name="Trazado 1042349" d="M233.436,184.282l-20.66-8.464-47.16,115.109,20.661,8.464c24.175,9.9,54.33-7.834,67.354-39.62S257.612,194.187,233.436,184.282Z" transform="translate(-118.491 -156.497)" fill="#e9b14c"/>
                  <g id="Grupo_1200905" data-name="Grupo 1200905" transform="translate(47.125 19.321)">
                    <g id="Grupo_1200904" data-name="Grupo 1200904" clip-path="url(#clip-path-3)">
                      <path id="Trazado_1042350" data-name="Trazado 1042350" d="M273.662,215.644l-50.725-20.782,2.379-5.808,50.725,20.782Zm6.982,17.066L229.92,211.927l-2.379,5.808,50.725,20.782Zm4.6,22.874L234.523,234.8l-2.379,5.808,50.725,20.782ZM237.8,303.173l-50.725-20.782L184.7,288.2l50.725,20.781Zm19.329-13.07-50.725-20.781-2.379,5.808,50.725,20.782Zm19.329-13.069-50.725-20.781-2.379,5.808,50.725,20.782Z" transform="translate(-169.752 -178.687)" fill="#d8892b"/>
                    </g>
                  </g>
                  <ellipse id="Elipse_12575" data-name="Elipse 12575" cx="62.198" cy="51.413" rx="62.198" ry="51.413" transform="translate(0 115.115) rotate(-67.723)" fill="#ffd652"/>
                  <path id="Trazado_1042352" data-name="Trazado 1042352" d="M213.343,176.051c26.275,10.765,37.018,45.26,24,77.046s-44.88,48.828-71.155,38.063" transform="translate(-118.614 -156.548)" fill="none" stroke="#2d2b58" stroke-miterlimit="10" stroke-width="1.2"/>
                  <ellipse id="Elipse_12576" data-name="Elipse 12576" cx="48.25" cy="37.726" rx="48.25" ry="37.726" transform="translate(15.957 106.578) rotate(-67.723)" fill="#e9b14c"/>
                  <path id="Trazado_1042353" data-name="Trazado 1042353" d="M144.384,234.352a60.84,60.84,0,0,1,3.748-13.144c10.1-24.658,33.922-38.244,53.2-30.345" transform="translate(-113.888 -159.272)" fill="none" stroke="#2d2b58" stroke-miterlimit="10" stroke-width="1.2"/>
                  <path id="Trazado_1042354" data-name="Trazado 1042354" d="M233.357,204.069c7.188,7.912,9.42,19.162,8.9,28.867" transform="translate(-133.175 -162.621)" fill="none" stroke="#2d2b58" stroke-miterlimit="10" stroke-width="1.2"/>
                  <path id="Trazado_1042355" data-name="Trazado 1042355" d="M245.044,298.846c10.66-7.377,19.957-18.815,25.8-33.084,9.415-22.981,7.3-47.012-3.734-62.307" transform="translate(-135.709 -162.488)" fill="none" stroke="#2d2b58" stroke-miterlimit="10" stroke-width="1.2"/>
                  <g id="Grupo_1200906" data-name="Grupo 1200906" transform="translate(48.007 54.636)">
                    <path id="Trazado_1042356" data-name="Trazado 1042356" d="M193.983,266.035a22.688,22.688,0,0,1-10.705-1.617c-6.114-2.5-10.707-7.3-12.309-13.35a18.956,18.956,0,0,1-.171-9.542l-4.056-1.661,1.815-4.43,3.432,1.406.435-1.06c.256-.624.573-1.223.829-1.847l-3.494-1.432,1.815-4.43,4.18,1.712A21.793,21.793,0,0,1,183.561,223a20.419,20.419,0,0,1,17.019-.46,25.527,25.527,0,0,1,8.593,5.706l-4.66,6.4a19.911,19.911,0,0,0-6.312-4.335,10.273,10.273,0,0,0-9.056.224,11.15,11.15,0,0,0-3.658,3.237l15.537,6.365-1.815,4.43-16.472-6.748c-.32.6-.6,1.285-.856,1.908l-.409,1,16.535,6.774-1.815,4.43-15.661-6.416a10.632,10.632,0,0,0,.269,5.211,11.291,11.291,0,0,0,6.744,6.48,18.733,18.733,0,0,0,7.778,1.292Z" transform="translate(-166.742 -220.907)" fill="#d8892b"/>
                  </g>
                </g>
              </g>
              <g id="Grupo_1200909" data-name="Grupo 1200909" transform="translate(110.349 117.735)">
                <path id="Trazado_1042357" data-name="Trazado 1042357" d="M276.119,277.755c-2.044-.413-3.983-1.451-6.047-1.152-7.054,1.02-13.908,2.087-20.962,3.105a1.719,1.719,0,0,1,.846-2.19c3.927-1.658,8.018-3.033,11.946-4.691-8.156,1.086-16.244,2.178-24.4,3.265a3.226,3.226,0,0,1,1.681-3.013c3.925-1.664,8.483-3.517,12.408-5.181-6.711,1.161-13.441,1.7-20.152,2.857a2.461,2.461,0,0,1,1.339-2.885l12.752-4.627c-4.7.938-9.252,2-13.948,2.936a2.444,2.444,0,0,1,1.008-3.038c7.16-3.745,14.417-7.8,21.577-11.546l-8.876-2.807a7.314,7.314,0,0,1-2.446-1.122,2.6,2.6,0,0,1-.817-2.507l20.622-2.908c7.915-1.116,16.188,1.572,22.541,6.422,5.375,4.1,8.031,11.446,5.907,17.866S282.748,279.095,276.119,277.755Z" transform="translate(-231.347 -242.001)" fill="#f9b1a0"/>
                <path id="Trazado_1042358" data-name="Trazado 1042358" d="M259,253.917l4.626-2.648" transform="translate(-237.341 -244.01)" fill="none" stroke="#2d2b58" stroke-linecap="round" stroke-linejoin="round" stroke-miterlimit="10" stroke-width="1.179"/>
                <path id="Trazado_1042359" data-name="Trazado 1042359" d="M243.226,269.424l16.536-5.281" transform="translate(-233.922 -246.801)" fill="none" stroke="#2d2b58" stroke-linecap="round" stroke-linejoin="round" stroke-miterlimit="10" stroke-width="1.179"/>
                <path id="Trazado_1042360" data-name="Trazado 1042360" d="M253.771,275.289l10.8-2.2" transform="translate(-236.208 -248.74)" fill="none" stroke="#2d2b58" stroke-linecap="round" stroke-linejoin="round" stroke-miterlimit="10" stroke-width="1.179"/>
              </g>
              <g id="Grupo_1200912" data-name="Grupo 1200912" transform="translate(0 93.244)">
                <g id="Grupo_1200910" data-name="Grupo 1200910">
                  <path id="Trazado_1042361" data-name="Trazado 1042361" d="M94.68,237.378c3.668-8.719,11.4-26.646,11.4-26.646l29.387,14.878c-3.226,8.634-6.7,17.232-9.923,25.866,9.678,6.846,19.317,13.327,28.994,20.172a28.483,28.483,0,0,1,9.92,2.1c4.2,1.506,15.263,9.956,21.178,13.2a2.032,2.032,0,0,1,.152,3.473c-4.063,2.583-12.008,1.306-13.823,6.122-11.133-4.468-24.091-3.9-35.095.876a362.184,362.184,0,0,1-37.828-25.828c-4.558-3.523-8.51-11.107-8.583-16.868C90.383,248.729,92.356,242.9,94.68,237.378Z" transform="translate(-90.457 -210.732)" fill="#f9b1a0"/>
                  <path id="Trazado_1042362" data-name="Trazado 1042362" d="M171.862,288.319h-3.856" transform="translate(-107.268 -227.551)" fill="none" stroke="#2d2b58" stroke-miterlimit="10" stroke-width="1.312"/>
                  <path id="Trazado_1042363" data-name="Trazado 1042363" d="M133.716,261.185l-6.057-4.735" transform="translate(-98.522 -220.642)" fill="none" stroke="#2d2b58" stroke-miterlimit="10" stroke-width="1.312"/>
                </g>
                <g id="Grupo_1200911" data-name="Grupo 1200911" transform="translate(40.677 62.899)">
                  <path id="Trazado_1042364" data-name="Trazado 1042364" d="M147.589,291.04l31.809,8.317c5.36,4.226,10.181,9.5,16.279,12.57l5.369,2.7a8.644,8.644,0,0,1,2.368,1.536,2.931,2.931,0,0,1,.9,2.568c-1.8-.236-3.405-.1-5.2-.341a2.282,2.282,0,0,1,1.845,1.815c-3.629.378-7.18.768-10.809,1.147-1.713.179-3.113.543-4.815.806-.925.143-1.634,1.012-2.555,1.177l-9.491,1.7c-6.474,1.162-13.136-2.076-18.866-5.307-6.072-3.424-10.1-6.665-11.547-12.408A17.14,17.14,0,0,1,147.589,291.04Z" transform="translate(-142.392 -291.04)" fill="#f9b1a0"/>
                  <path id="Trazado_1042365" data-name="Trazado 1042365" d="M196.513,307.616l-6.867-5.979" transform="translate(-152.636 -293.337)" fill="none" stroke="#2d2b58" stroke-miterlimit="10" stroke-width="1.312"/>
                  <path id="Trazado_1042366" data-name="Trazado 1042366" d="M209.4,323.809l-10.954-2.846c-4.081-1.061-7.619-3.549-11.4-5.407" transform="translate(-152.072 -296.354)" fill="none" stroke="#2d2b58" stroke-miterlimit="10" stroke-width="1.312"/>
                  <path id="Trazado_1042367" data-name="Trazado 1042367" d="M205.5,327.725l-12.992-.88c-4.475-.3-8.552-2.6-12.818-3.989" transform="translate(-150.477 -297.937)" fill="none" stroke="#2d2b58" stroke-miterlimit="10" stroke-width="1.312"/>
                  <path id="Trazado_1042368" data-name="Trazado 1042368" d="M192.061,330.55a69.055,69.055,0,0,1-16.189-.642" transform="translate(-149.65 -299.466)" fill="none" stroke="#2d2b58" stroke-miterlimit="10" stroke-width="1.312"/>
                </g>
              </g>
            </g>
            <path id="Trazado_1042369" data-name="Trazado 1042369" d="M110.682,195.722s-15.3,16.606-20.266,38.679c0,0-12.556,26.136,16.654,41.626l27.451,18.492,18.011-34.507L129.808,243,142.5,183.5Z" transform="translate(-19.018 -40.091)" fill="#4b56dd"/>
            <path id="Trazado_1042370" data-name="Trazado 1042370" d="M147.471,219.561Q152.184,191.279,156.9,163" transform="translate(-31.968 -35.647)" fill="none" stroke="#2d2b58" stroke-linecap="round" stroke-linejoin="round" stroke-miterlimit="10" stroke-width="1.2"/>
          </g>
        </g>
        <g id="Grupo_1200920" data-name="Grupo 1200920" transform="translate(-1027 10061.314)">
          <g id="Grupo_1200917" data-name="Grupo 1200917" transform="translate(0 0)" clip-path="url(#clip-path-2)">
            <path id="Trazado_1042375" data-name="Trazado 1042375" d="M-22.71,161.57c4.587,4.386,5.172,11.315,1.3,15.476s-10.722,3.979-15.309-.408-5.172-11.315-1.3-15.476S-27.3,157.184-22.71,161.57Z" transform="translate(8.796 -34.598)" fill="#b8d1aa"/>
            <path id="Trazado_1042376" data-name="Trazado 1042376" d="M-23.866,164.626c3.261,3.117,3.676,8.042.927,11s-7.621,2.827-10.881-.29-3.676-8.042-.927-11S-27.126,161.508-23.866,164.626Z" transform="translate(7.926 -35.474)" fill="#94af85"/>
          </g>
          <g id="Grupo_1200919" data-name="Grupo 1200919" transform="translate(0 0)" clip-path="url(#clip-path-2)">
            <path id="Trazado_1042380" data-name="Trazado 1042380" d="M390.231,345.917l-80.8,37.14A410.429,410.429,0,0,0,383.68,519.508l80.8-37.14A410.43,410.43,0,0,1,390.231,345.917Z" transform="translate(-67.077 -75.299)" fill="#b8d1aa"/>
            <path id="Trazado_1042381" data-name="Trazado 1042381" d="M383.68,519.508l80.8-37.14a410.429,410.429,0,0,1-74.247-136.451l-80.8,37.14" transform="translate(-67.077 -75.299)" fill="none" stroke="#94af85" stroke-miterlimit="10" stroke-width="1.2"/>
            <path id="Trazado_1042382" data-name="Trazado 1042382" d="M480.471,483.379q-11.028-15.933-21.2-32.354" transform="translate(-99.557 -98.084)" fill="none" stroke="#2d2b58" stroke-miterlimit="10" stroke-width="1.2"/>
            <path id="Trazado_1042383" data-name="Trazado 1042383" d="M384.639,510.768a409.86,409.86,0,0,1-63.672-116.634l-.934-2.685a2.882,2.882,0,0,1,1.531-3.571l64.212-29.515a2.98,2.98,0,0,1,4.045,1.693L391,363.374a423.3,423.3,0,0,0,61.433,113.4l2.377,3.12a2.883,2.883,0,0,1-1.1,4.381l-63.907,29.375a2.988,2.988,0,0,1-3.591-.869Z" transform="translate(-69.339 -77.938)" fill="none" stroke="#94af85" stroke-miterlimit="10" stroke-width="1.2"/>
            <path id="Trazado_1042384" data-name="Trazado 1042384" d="M391.418,509.081A401.763,401.763,0,0,1,328.7,394.2l58.4-26.843a426.743,426.743,0,0,0,62.33,115.055Z" transform="translate(-71.254 -79.947)" fill="#94af85"/>
            <path id="Trazado_1042385" data-name="Trazado 1042385" d="M403.486,469.526c-12.828,5.711-27.5,1.093-32.773-10.315s.852-25.286,13.68-31,27.5-1.093,32.773,10.315S416.313,463.815,403.486,469.526Z" transform="translate(-79.95 -92.608)" fill="#b8d1aa"/>
            <path id="Trazado_1042386" data-name="Trazado 1042386" d="M377.388,412.919c-6.248,2.781-13.394.532-15.962-5.024s.415-12.315,6.663-15.1,13.394-.532,15.962,5.024S383.636,410.138,377.388,412.919Z" transform="translate(-78.147 -85.203)" fill="#b8d1aa"/>
            <path id="Trazado_1042387" data-name="Trazado 1042387" d="M377.023,410.91c-4.44,1.977-9.52.378-11.346-3.571s.3-8.753,4.736-10.73,9.52-.378,11.346,3.571S381.464,408.933,377.023,410.91Z" transform="translate(-79.127 -86.104)" fill="#94af85"/>
            <path id="Trazado_1042388" data-name="Trazado 1042388" d="M430.337,514.657c-6.248,2.781-13.394.532-15.962-5.024s.415-12.315,6.663-15.1S434.432,494,437,499.56,436.585,511.876,430.337,514.657Z" transform="translate(-89.625 -107.257)" fill="#b8d1aa"/>
            <path id="Trazado_1042389" data-name="Trazado 1042389" d="M429.972,512.648c-4.441,1.977-9.52.378-11.346-3.571s.3-8.753,4.736-10.73,9.52-.378,11.346,3.571S434.412,510.671,429.972,512.648Z" transform="translate(-90.605 -108.158)" fill="#94af85"/>
            <g id="Grupo_1200918" data-name="Grupo 1200918" transform="translate(298.096 343.974)">
              <path id="Trazado_1042390" data-name="Trazado 1042390" d="M384.623,456.4a21.939,21.939,0,0,1-1.764-5.694,13.893,13.893,0,0,1-.043-4.977l4.75.093a14.023,14.023,0,0,0-.05,4.274,15.019,15.019,0,0,0,1.266,4.452,9.522,9.522,0,0,0,1.513,2.438,3.619,3.619,0,0,0,1.516,1.069,1.991,1.991,0,0,0,1.447-.082,1.8,1.8,0,0,0,1.086-1.365,6.659,6.659,0,0,0-.037-2.332q-.226-1.364-.583-2.932t-.6-3.207a12.909,12.909,0,0,1-.078-3.175,5.6,5.6,0,0,1,3.593-4.79,6.754,6.754,0,0,1,4-.493,8.114,8.114,0,0,1,4.027,2.119,15.423,15.423,0,0,1,3.474,5.053,20.6,20.6,0,0,1,1.5,4.572,14.313,14.313,0,0,1,.257,4.4l-4.688.04a15.075,15.075,0,0,0-.2-3.8,13.952,13.952,0,0,0-1.043-3.386,8.889,8.889,0,0,0-1.52-2.412,3.356,3.356,0,0,0-1.566-1.011,2.254,2.254,0,0,0-1.488.121,1.84,1.84,0,0,0-1.1,1.375,5.941,5.941,0,0,0,.045,2.308q.248,1.33.623,2.933t.585,3.23a14.441,14.441,0,0,1,.079,3.133,6.012,6.012,0,0,1-.956,2.774,5.657,5.657,0,0,1-2.549,2.04,6.569,6.569,0,0,1-3.957.455,8.4,8.4,0,0,1-4.043-2.152A15.4,15.4,0,0,1,384.623,456.4Zm-4.024.309,30.079-13.391,1.554,3.361-30.08,13.391Z" transform="translate(-380.599 -439.576)" fill="#94af85"/>
            </g>
          </g>
        </g>
        <g id="Grupo_1200927" data-name="Grupo 1200927" transform="translate(-994.016 10115.722)">
          <g id="Grupo_1200923" data-name="Grupo 1200923" transform="translate(187.663 95.399)">
            <path id="Trazado_1042391" data-name="Trazado 1042391" d="M281.715,209.282l12.98,12.185c0,.182-.013.361-.013.544a30.344,30.344,0,1,0,2.8-12.73H281.715Z" transform="translate(-281.715 -191.669)" fill="#f9ebeb"/>
            <path id="Trazado_1042392" data-name="Trazado 1042392" d="M367.351,222.011a30.343,30.343,0,0,0-30.342-30.342" transform="translate(-293.701 -191.669)" fill="none" stroke="#2d2b58" stroke-miterlimit="10" stroke-width="1.2"/>
            <g id="Grupo_1200922" data-name="Grupo 1200922" transform="translate(28.973 10.635)">
              <g id="Grupo_1200921" data-name="Grupo 1200921">
                <path id="Trazado_1042393" data-name="Trazado 1042393" d="M336.282,255.785h-2.568a2.442,2.442,0,0,1-2.442-2.442v-3.68h7.453v3.68A2.443,2.443,0,0,1,336.282,255.785Z" transform="translate(-321.431 -214.876)" fill="#2d2b58"/>
                <path id="Trazado_1042394" data-name="Trazado 1042394" d="M333.956,205.248H330.97a12.263,12.263,0,0,0-12.263,12.263h0a12.236,12.236,0,0,0,5.093,9.941,4.112,4.112,0,0,1,1.725,2.831l.233,1.96h13.41l.233-1.96a4.11,4.11,0,0,1,1.725-2.831,12.233,12.233,0,0,0,5.093-9.941h0A12.263,12.263,0,0,0,333.956,205.248Z" transform="translate(-318.707 -205.248)" fill="#ffd652"/>
                <path id="Trazado_1042395" data-name="Trazado 1042395" d="M343.223,225.536a12.2,12.2,0,0,0,3-8.024h0a12.263,12.263,0,0,0-12.263-12.263h-2.986a12.263,12.263,0,0,0-12.263,12.263" transform="translate(-318.707 -205.248)" fill="none" stroke="#2d2b58" stroke-linecap="round" stroke-linejoin="round" stroke-miterlimit="10" stroke-width="1.264"/>
                <path id="Trazado_1042396" data-name="Trazado 1042396" d="M340.177,249.4H328.13a1.009,1.009,0,0,1-1.007-.947l-.616-9.936a1.009,1.009,0,0,1,1.007-1.071h13.278a1.009,1.009,0,0,1,1.007,1.071l-.616,9.936A1.009,1.009,0,0,1,340.177,249.4Z" transform="translate(-320.397 -212.228)" fill="#4b56dd"/>
                <path id="Trazado_1042397" data-name="Trazado 1042397" d="M339.083,233.118l.824-5.652H339.9c.037-.219.073-.443.106-.674.612-4.194.334-8.33-.751-8.33-.674,0-1.4,1.685-1.9,4.031-.179-2.347-.67-4.031-1.344-4.031s-1.281,1.685-1.623,4.031c-.341-2.347-.949-4.031-1.623-4.031s-1.165,1.685-1.343,4.031c-.5-2.347-1.228-4.031-1.9-4.031-1.086,0-1.364,4.135-.752,8.33.034.23.069.454.107.674h0l.816,5.652" transform="translate(-320.818 -208.113)" fill="none" stroke="#2d2b58" stroke-linecap="round" stroke-linejoin="round" stroke-miterlimit="10" stroke-width="1.264"/>
              </g>
            </g>
          </g>
          <g id="Grupo_1200926" data-name="Grupo 1200926" transform="translate(0 0)">
            <g id="Grupo_1200924" data-name="Grupo 1200924">
              <path id="Trazado_1042398" data-name="Trazado 1042398" d="M108.534,128.677,90.92,125.125c-.147.109-.289.222-.439.329a30.625,30.625,0,1,1,8.835-9.746Z" transform="translate(-42.112 -69.866)" fill="#f9ebeb"/>
              <path id="Trazado_1042399" data-name="Trazado 1042399" d="M58.562,75.532a30.624,30.624,0,0,1,44.319,40.176" transform="translate(-45.678 -69.866)" fill="none" stroke="#2d2b58" stroke-miterlimit="10" stroke-width="1.2"/>
            </g>
            <g id="Grupo_1200925" data-name="Grupo 1200925" transform="translate(8.314 17.038)">
              <rect id="Rectángulo_416206" data-name="Rectángulo 416206" width="7.951" height="11.222" transform="translate(5.282 12.112)" fill="#d75a59"/>
              <rect id="Rectángulo_416207" data-name="Rectángulo 416207" width="7.951" height="18.185" transform="translate(16.994 5.149)" fill="#60928b"/>
              <rect id="Rectángulo_416208" data-name="Rectángulo 416208" width="7.951" height="23.334" transform="translate(29.113)" fill="#4b56dd"/>
              <line id="Línea_897" data-name="Línea 897" x2="41.98" transform="translate(0 23.205)" fill="none" stroke="#2d2b58" stroke-miterlimit="10" stroke-width="1.2"/>
            </g>
          </g>
        </g>
        <g id="Grupo_1200938" data-name="Grupo 1200938" transform="translate(-1003.929 10069.767)">
          <g id="Grupo_1200928" data-name="Grupo 1200928" transform="translate(79.552 10.726)">
            <path id="Trazado_1042400" data-name="Trazado 1042400" d="M146.484,25c-7.971.918-14.454,7.656-15.346,15.953a18.781,18.781,0,0,0,2.177,11.1,15.02,15.02,0,0,0,1.527,2.188l10.651,13.173a4.121,4.121,0,0,0,6.469-.078l7.372-9.577c.7-.9,1.991-2.672,3.119-4.274a18.27,18.27,0,0,0,3.47-10.35V43.05C165.923,32.336,157.012,23.788,146.484,25Zm3.683,25.211c-5.4,1.247-10.113-3.655-8.915-9.281a7.506,7.506,0,0,1,5.525-5.751c5.405-1.247,10.114,3.655,8.915,9.281A7.506,7.506,0,0,1,150.167,50.211ZM146.484,25c-7.971.918-14.454,7.656-15.346,15.953a18.781,18.781,0,0,0,2.177,11.1" transform="translate(-131.025 -24.885)" fill="#d75a59"/>
            <path id="Trazado_1042401" data-name="Trazado 1042401" d="M146.484,25.032c-7.971.918-14.454,7.656-15.346,15.953a18.781,18.781,0,0,0,2.177,11.1" transform="translate(-131.025 -24.917)" fill="none" stroke="#2d2b58" stroke-miterlimit="10" stroke-width="1.2"/>
          </g>
          <g id="Grupo_1200937" data-name="Grupo 1200937" transform="translate(0 0)">
            <g id="Grupo_1200932" data-name="Grupo 1200932" transform="translate(0 290.032)">
              <path id="Trazado_1042402" data-name="Trazado 1042402" d="M35.883,409.029l6.63-6.927L95.46,445.529l-6.63,6.927c-7.758,8.106-25.9,4.955-40.52-7.037S28.125,417.134,35.883,409.029Z" transform="translate(-30.09 -385.962)" fill="#e9b14c"/>
              <g id="Grupo_1200930" data-name="Grupo 1200930" transform="translate(2.291 16.14)">
                <g id="Grupo_1200929" data-name="Grupo 1200929" clip-path="url(#clip-path-6)">
                  <path id="Trazado_1042403" data-name="Trazado 1042403" d="M23.577,426.6l16.277-17.008,2.672,2.191L26.249,428.792Zm7.1,12.984,16.277-17.008-2.672-2.191L28,437.394ZM35.1,450.377,51.379,433.37l-2.672-2.192L32.431,448.186Zm34.079,13.629L85.458,447l-2.672-2.192L66.51,461.815Zm-12.106-2.768,16.277-17.008-2.672-2.191L54.4,459.046ZM44.969,458.47l16.277-17.008-2.672-2.191L42.3,456.279Z" transform="translate(-30.473 -403.726)" fill="#d8892b"/>
                </g>
              </g>
              <ellipse id="Elipse_12578" data-name="Elipse 12578" cx="20.224" cy="34.293" rx="20.224" ry="34.293" transform="translate(0 32.301) rotate(-52.995)" fill="#ffd652"/>
              <path id="Trazado_1042405" data-name="Trazado 1042405" d="M45.185,400.743c-7.758,8.106-2.194,24.4,12.427,36.39s32.762,15.142,40.52,7.037" transform="translate(-32.106 -385.667)" fill="none" stroke="#2d2b58" stroke-miterlimit="10" stroke-width="1.2"/>
              <path id="Trazado_1042406" data-name="Trazado 1042406" d="M64.039,432.915c11.342,9.3,25.152,12.023,30.844,6.075S96,420.679,84.653,411.377,59.5,399.354,53.809,405.3,52.7,423.613,64.039,432.915Z" transform="translate(-34.205 -385.973)" fill="#e9b14c"/>
              <path id="Trazado_1042407" data-name="Trazado 1042407" d="M98.006,432.374c-.005-6.292-4.645-14.411-12.676-21-11.342-9.3-25.151-12.023-30.844-6.075" transform="translate(-34.882 -385.972)" fill="none" stroke="#2d2b58" stroke-miterlimit="10" stroke-width="1.2"/>
              <g id="Grupo_1200931" data-name="Grupo 1200931" transform="translate(28.192 22.595)">
                <path id="Trazado_1042408" data-name="Trazado 1042408" d="M88.226,432.011a10.489,10.489,0,0,1-3.6,1.962,9.855,9.855,0,0,1-3.868.491l-2.216-3.89a10.21,10.21,0,0,0,3.363-.351,7.393,7.393,0,0,0,2.868-1.443,3.913,3.913,0,0,0,1.176-1.46,2.044,2.044,0,0,0,.1-1.337,2.581,2.581,0,0,0-.761-1.175,2.618,2.618,0,0,0-1.59-.763,4.682,4.682,0,0,0-1.8.244q-.957.309-2.009.744a22.463,22.463,0,0,1-2.218.78,8.872,8.872,0,0,1-2.443.355,6.689,6.689,0,0,1-2.643-.561,9.676,9.676,0,0,1-2.831-1.937,9.315,9.315,0,0,1-2.311-3.221,5.438,5.438,0,0,1-.284-3.485,6.416,6.416,0,0,1,2.274-3.3,9.682,9.682,0,0,1,2.851-1.641,9.4,9.4,0,0,1,3.312-.613l2.29,3.828a9.985,9.985,0,0,0-2.878.509,6.656,6.656,0,0,0-2.142,1.163,3.665,3.665,0,0,0-1.152,1.463,2,2,0,0,0-.035,1.372,3,3,0,0,0,.811,1.2,2.691,2.691,0,0,0,1.6.774,4.137,4.137,0,0,0,1.782-.248q.92-.324,1.992-.777a18.626,18.626,0,0,1,2.242-.774,9.941,9.941,0,0,1,2.409-.352,6.669,6.669,0,0,1,2.628.528A9.228,9.228,0,0,1,87.97,422a9,9,0,0,1,2.262,3.191,5.6,5.6,0,0,1,.267,3.5A6.405,6.405,0,0,1,88.226,432.011Zm2.181,3.26L65.451,411.92l1.877-1.577,24.954,23.35Z" transform="translate(-65.451 -410.343)" fill="#d8892b"/>
              </g>
              <path id="Trazado_1042409" data-name="Trazado 1042409" d="M51.371,413.744c-.681,4.359,1.66,9.505,4.692,13.623" transform="translate(-34.181 -388.486)" fill="none" stroke="#2d2b58" stroke-miterlimit="10" stroke-width="1.2"/>
            </g>
            <g id="Grupo_1200936" data-name="Grupo 1200936" transform="translate(131.361)">
              <path id="Trazado_1042410" data-name="Trazado 1042410" d="M253.826,35.678l-4.253-6.988L208.157,53.9l4.253,6.988c4.976,8.177,18.281,9.163,29.719,2.2S258.8,43.855,253.826,35.678Z" transform="translate(-199.554 -14.984)" fill="#e9b14c"/>
              <g id="Grupo_1200934" data-name="Grupo 1200934" transform="translate(8.603 13.706)">
                <g id="Grupo_1200933" data-name="Grupo 1200933" clip-path="url(#clip-path-7)">
                  <path id="Trazado_1042411" data-name="Trazado 1042411" d="M259.639,53.454,249.2,36.3l2.09-1.272,10.441,17.157Zm-1.913,6.711L247.285,43.009l-2.09,1.272,10.441,17.157Zm-4,7.983L243.281,50.991l-2.09,1.272L251.633,69.42Zm-25.577,4.474L217.7,55.464l-2.09,1.272,10.441,17.157Zm8.93.112L226.634,55.576l-2.09,1.272L234.986,74Zm8.929.112L235.563,55.688l-2.09,1.272,10.441,17.157Z" transform="translate(-209.774 -30.063)" fill="#d8892b"/>
                </g>
              </g>
              <ellipse id="Elipse_12579" data-name="Elipse 12579" cx="24.462" cy="17.554" rx="24.462" ry="17.554" transform="matrix(0.854, -0.52, 0.52, 0.854, 0, 25.435)" fill="#ffd652"/>
              <path id="Trazado_1042413" data-name="Trazado 1042413" d="M250.625,30.342c5.04,8.282-.23,20.689-11.77,27.713s-24.982,6-30.023-2.278" transform="translate(-199.701 -15.343)" fill="none" stroke="#2d2b58" stroke-miterlimit="10" stroke-width="0.82"/>
              <path id="Trazado_1042414" data-name="Trazado 1042414" d="M236.864,52.688c-8.953,5.449-19.209,4.939-22.907-1.137s.562-15.42,9.514-20.869,19.209-4.939,22.907,1.137S245.817,47.24,236.864,52.688Z" transform="translate(-200.523 -14.598)" fill="#e9b14c"/>
              <path id="Trazado_1042415" data-name="Trazado 1042415" d="M212.685,45.57c.475-5.221,4.461-11.03,10.8-14.888,8.953-5.449,19.209-4.939,22.907,1.137" transform="translate(-200.536 -14.598)" fill="none" stroke="#2d2b58" stroke-miterlimit="10" stroke-width="0.82"/>
              <g id="Grupo_1200935" data-name="Grupo 1200935" transform="translate(18.55 19.066)">
                <path id="Trazado_1042416" data-name="Trazado 1042416" d="M223.668,48.148a9.66,9.66,0,0,1-1.239-3.168,7.25,7.25,0,0,1-.037-3l3.318-.683a7.428,7.428,0,0,0-.029,2.592,6.7,6.7,0,0,0,.891,2.495,4.147,4.147,0,0,0,1.06,1.239,1.991,1.991,0,0,0,1.061.41,1.755,1.755,0,0,0,1.01-.275,1.527,1.527,0,0,0,.757-.995,3.461,3.461,0,0,0-.029-1.4q-.16-.789-.41-1.682a18.689,18.689,0,0,1-.42-1.846,6.608,6.608,0,0,1-.059-1.908,4.117,4.117,0,0,1,.692-1.829,5.623,5.623,0,0,1,1.811-1.626,6.16,6.16,0,0,1,2.791-.92,4.943,4.943,0,0,1,2.816.655,6.841,6.841,0,0,1,2.434,2.515,9.039,9.039,0,0,1,1.051,2.531,7.2,7.2,0,0,1,.186,2.619l-3.275.753a7.621,7.621,0,0,0-.143-2.27,6.141,6.141,0,0,0-.734-1.884,3.9,3.9,0,0,0-1.065-1.222,1.905,1.905,0,0,0-1.095-.367,2.014,2.014,0,0,0-1.039.3,1.564,1.564,0,0,0-.767,1,3.074,3.074,0,0,0,.034,1.389q.175.766.439,1.676a15.61,15.61,0,0,1,.414,1.862,7.416,7.416,0,0,1,.06,1.882,4.119,4.119,0,0,1-.665,1.826,5.338,5.338,0,0,1-1.778,1.63,5.963,5.963,0,0,1-2.763.891,5.1,5.1,0,0,1-2.827-.672A6.827,6.827,0,0,1,223.668,48.148Zm-2.811.813L241.85,36.185l1.089,1.79L221.946,50.751Z" transform="translate(-220.857 -35.533)" fill="#d8892b"/>
              </g>
              <path id="Trazado_1042417" data-name="Trazado 1042417" d="M256.169,40.08c.169,3.755-1.921,7.557-4.436,10.367" transform="translate(-209 -17.453)" fill="none" stroke="#2d2b58" stroke-miterlimit="10" stroke-width="0.82"/>
            </g>
          </g>
        </g>
      </g>
    </g>
  </g>
</svg>
